G04 #@! TF.GenerationSoftware,KiCad,Pcbnew,(5.0.2)-1*
G04 #@! TF.CreationDate,2019-01-08T06:01:03+01:00*
G04 #@! TF.ProjectId,XMOS_XUF216_FB236,584d4f53-5f58-4554-9632-31365f464232,BETA*
G04 #@! TF.SameCoordinates,Original*
G04 #@! TF.FileFunction,Paste,Bot*
G04 #@! TF.FilePolarity,Positive*
%FSLAX46Y46*%
G04 Gerber Fmt 4.6, Leading zero omitted, Abs format (unit mm)*
G04 Created by KiCad (PCBNEW (5.0.2)-1) date 2019-01-08 06:01:03*
%MOMM*%
%LPD*%
G01*
G04 APERTURE LIST*
%ADD10C,0.100000*%
%ADD11C,0.150000*%
%ADD12C,0.300000*%
%ADD13C,0.400000*%
%ADD14C,0.400000*%
%ADD15C,0.875000*%
%ADD16C,0.950000*%
%ADD17C,0.590000*%
G04 APERTURE END LIST*
D10*
D11*
X177002200Y-166007200D02*
X177002200Y-198007200D01*
X285002200Y-198007200D01*
X285002200Y-166007200D01*
X177002200Y-166007200D01*
D10*
D11*
X10000000Y-10000000D02*
X10000000Y-200007200D01*
X287002200Y-200007200D01*
X287002200Y-10000000D01*
X10000000Y-10000000D01*
D10*
D11*
X12000000Y-12000000D02*
X12000000Y-198007200D01*
X285002200Y-198007200D01*
X285002200Y-12000000D01*
X12000000Y-12000000D01*
D10*
D11*
X60000000Y-12000000D02*
X60000000Y-10000000D01*
D10*
D11*
X110000000Y-12000000D02*
X110000000Y-10000000D01*
D10*
D11*
X160000000Y-12000000D02*
X160000000Y-10000000D01*
D10*
D11*
X210000000Y-12000000D02*
X210000000Y-10000000D01*
D10*
D11*
X260000000Y-12000000D02*
X260000000Y-10000000D01*
D10*
D11*
X36065476Y-11588095D02*
X35322619Y-11588095D01*
X35694047Y-11588095D02*
X35694047Y-10288095D01*
X35570238Y-10473809D01*
X35446428Y-10597619D01*
X35322619Y-10659523D01*
D10*
D11*
X85322619Y-10411904D02*
X85384523Y-10350000D01*
X85508333Y-10288095D01*
X85817857Y-10288095D01*
X85941666Y-10350000D01*
X86003571Y-10411904D01*
X86065476Y-10535714D01*
X86065476Y-10659523D01*
X86003571Y-10845238D01*
X85260714Y-11588095D01*
X86065476Y-11588095D01*
D10*
D11*
X135260714Y-10288095D02*
X136065476Y-10288095D01*
X135632142Y-10783333D01*
X135817857Y-10783333D01*
X135941666Y-10845238D01*
X136003571Y-10907142D01*
X136065476Y-11030952D01*
X136065476Y-11340476D01*
X136003571Y-11464285D01*
X135941666Y-11526190D01*
X135817857Y-11588095D01*
X135446428Y-11588095D01*
X135322619Y-11526190D01*
X135260714Y-11464285D01*
D10*
D11*
X185941666Y-10721428D02*
X185941666Y-11588095D01*
X185632142Y-10226190D02*
X185322619Y-11154761D01*
X186127380Y-11154761D01*
D10*
D11*
X236003571Y-10288095D02*
X235384523Y-10288095D01*
X235322619Y-10907142D01*
X235384523Y-10845238D01*
X235508333Y-10783333D01*
X235817857Y-10783333D01*
X235941666Y-10845238D01*
X236003571Y-10907142D01*
X236065476Y-11030952D01*
X236065476Y-11340476D01*
X236003571Y-11464285D01*
X235941666Y-11526190D01*
X235817857Y-11588095D01*
X235508333Y-11588095D01*
X235384523Y-11526190D01*
X235322619Y-11464285D01*
D10*
D11*
X285941666Y-10288095D02*
X285694047Y-10288095D01*
X285570238Y-10350000D01*
X285508333Y-10411904D01*
X285384523Y-10597619D01*
X285322619Y-10845238D01*
X285322619Y-11340476D01*
X285384523Y-11464285D01*
X285446428Y-11526190D01*
X285570238Y-11588095D01*
X285817857Y-11588095D01*
X285941666Y-11526190D01*
X286003571Y-11464285D01*
X286065476Y-11340476D01*
X286065476Y-11030952D01*
X286003571Y-10907142D01*
X285941666Y-10845238D01*
X285817857Y-10783333D01*
X285570238Y-10783333D01*
X285446428Y-10845238D01*
X285384523Y-10907142D01*
X285322619Y-11030952D01*
D10*
D11*
X60000000Y-198007200D02*
X60000000Y-200007200D01*
D10*
D11*
X110000000Y-198007200D02*
X110000000Y-200007200D01*
D10*
D11*
X160000000Y-198007200D02*
X160000000Y-200007200D01*
D10*
D11*
X210000000Y-198007200D02*
X210000000Y-200007200D01*
D10*
D11*
X260000000Y-198007200D02*
X260000000Y-200007200D01*
D10*
D11*
X36065476Y-199595295D02*
X35322619Y-199595295D01*
X35694047Y-199595295D02*
X35694047Y-198295295D01*
X35570238Y-198481009D01*
X35446428Y-198604819D01*
X35322619Y-198666723D01*
D10*
D11*
X85322619Y-198419104D02*
X85384523Y-198357200D01*
X85508333Y-198295295D01*
X85817857Y-198295295D01*
X85941666Y-198357200D01*
X86003571Y-198419104D01*
X86065476Y-198542914D01*
X86065476Y-198666723D01*
X86003571Y-198852438D01*
X85260714Y-199595295D01*
X86065476Y-199595295D01*
D10*
D11*
X135260714Y-198295295D02*
X136065476Y-198295295D01*
X135632142Y-198790533D01*
X135817857Y-198790533D01*
X135941666Y-198852438D01*
X136003571Y-198914342D01*
X136065476Y-199038152D01*
X136065476Y-199347676D01*
X136003571Y-199471485D01*
X135941666Y-199533390D01*
X135817857Y-199595295D01*
X135446428Y-199595295D01*
X135322619Y-199533390D01*
X135260714Y-199471485D01*
D10*
D11*
X185941666Y-198728628D02*
X185941666Y-199595295D01*
X185632142Y-198233390D02*
X185322619Y-199161961D01*
X186127380Y-199161961D01*
D10*
D11*
X236003571Y-198295295D02*
X235384523Y-198295295D01*
X235322619Y-198914342D01*
X235384523Y-198852438D01*
X235508333Y-198790533D01*
X235817857Y-198790533D01*
X235941666Y-198852438D01*
X236003571Y-198914342D01*
X236065476Y-199038152D01*
X236065476Y-199347676D01*
X236003571Y-199471485D01*
X235941666Y-199533390D01*
X235817857Y-199595295D01*
X235508333Y-199595295D01*
X235384523Y-199533390D01*
X235322619Y-199471485D01*
D10*
D11*
X285941666Y-198295295D02*
X285694047Y-198295295D01*
X285570238Y-198357200D01*
X285508333Y-198419104D01*
X285384523Y-198604819D01*
X285322619Y-198852438D01*
X285322619Y-199347676D01*
X285384523Y-199471485D01*
X285446428Y-199533390D01*
X285570238Y-199595295D01*
X285817857Y-199595295D01*
X285941666Y-199533390D01*
X286003571Y-199471485D01*
X286065476Y-199347676D01*
X286065476Y-199038152D01*
X286003571Y-198914342D01*
X285941666Y-198852438D01*
X285817857Y-198790533D01*
X285570238Y-198790533D01*
X285446428Y-198852438D01*
X285384523Y-198914342D01*
X285322619Y-199038152D01*
D10*
D11*
X10000000Y-60000000D02*
X12000000Y-60000000D01*
D10*
D11*
X10000000Y-110000000D02*
X12000000Y-110000000D01*
D10*
D11*
X10000000Y-160000000D02*
X12000000Y-160000000D01*
D10*
D11*
X10690476Y-35216666D02*
X11309523Y-35216666D01*
X10566666Y-35588095D02*
X11000000Y-34288095D01*
X11433333Y-35588095D01*
D10*
D11*
X11092857Y-84907142D02*
X11278571Y-84969047D01*
X11340476Y-85030952D01*
X11402380Y-85154761D01*
X11402380Y-85340476D01*
X11340476Y-85464285D01*
X11278571Y-85526190D01*
X11154761Y-85588095D01*
X10659523Y-85588095D01*
X10659523Y-84288095D01*
X11092857Y-84288095D01*
X11216666Y-84350000D01*
X11278571Y-84411904D01*
X11340476Y-84535714D01*
X11340476Y-84659523D01*
X11278571Y-84783333D01*
X11216666Y-84845238D01*
X11092857Y-84907142D01*
X10659523Y-84907142D01*
D10*
D11*
X11402380Y-135464285D02*
X11340476Y-135526190D01*
X11154761Y-135588095D01*
X11030952Y-135588095D01*
X10845238Y-135526190D01*
X10721428Y-135402380D01*
X10659523Y-135278571D01*
X10597619Y-135030952D01*
X10597619Y-134845238D01*
X10659523Y-134597619D01*
X10721428Y-134473809D01*
X10845238Y-134350000D01*
X11030952Y-134288095D01*
X11154761Y-134288095D01*
X11340476Y-134350000D01*
X11402380Y-134411904D01*
D10*
D11*
X10659523Y-185588095D02*
X10659523Y-184288095D01*
X10969047Y-184288095D01*
X11154761Y-184350000D01*
X11278571Y-184473809D01*
X11340476Y-184597619D01*
X11402380Y-184845238D01*
X11402380Y-185030952D01*
X11340476Y-185278571D01*
X11278571Y-185402380D01*
X11154761Y-185526190D01*
X10969047Y-185588095D01*
X10659523Y-185588095D01*
D10*
D11*
X287002200Y-60000000D02*
X285002200Y-60000000D01*
D10*
D11*
X287002200Y-110000000D02*
X285002200Y-110000000D01*
D10*
D11*
X287002200Y-160000000D02*
X285002200Y-160000000D01*
D10*
D11*
X285692676Y-35216666D02*
X286311723Y-35216666D01*
X285568866Y-35588095D02*
X286002200Y-34288095D01*
X286435533Y-35588095D01*
D10*
D11*
X286095057Y-84907142D02*
X286280771Y-84969047D01*
X286342676Y-85030952D01*
X286404580Y-85154761D01*
X286404580Y-85340476D01*
X286342676Y-85464285D01*
X286280771Y-85526190D01*
X286156961Y-85588095D01*
X285661723Y-85588095D01*
X285661723Y-84288095D01*
X286095057Y-84288095D01*
X286218866Y-84350000D01*
X286280771Y-84411904D01*
X286342676Y-84535714D01*
X286342676Y-84659523D01*
X286280771Y-84783333D01*
X286218866Y-84845238D01*
X286095057Y-84907142D01*
X285661723Y-84907142D01*
D10*
D11*
X286404580Y-135464285D02*
X286342676Y-135526190D01*
X286156961Y-135588095D01*
X286033152Y-135588095D01*
X285847438Y-135526190D01*
X285723628Y-135402380D01*
X285661723Y-135278571D01*
X285599819Y-135030952D01*
X285599819Y-134845238D01*
X285661723Y-134597619D01*
X285723628Y-134473809D01*
X285847438Y-134350000D01*
X286033152Y-134288095D01*
X286156961Y-134288095D01*
X286342676Y-134350000D01*
X286404580Y-134411904D01*
D10*
D11*
X285661723Y-185588095D02*
X285661723Y-184288095D01*
X285971247Y-184288095D01*
X286156961Y-184350000D01*
X286280771Y-184473809D01*
X286342676Y-184597619D01*
X286404580Y-184845238D01*
X286404580Y-185030952D01*
X286342676Y-185278571D01*
X286280771Y-185402380D01*
X286156961Y-185526190D01*
X285971247Y-185588095D01*
X285661723Y-185588095D01*
D10*
D11*
X200434342Y-193785771D02*
X200434342Y-192285771D01*
X200791485Y-192285771D01*
X201005771Y-192357200D01*
X201148628Y-192500057D01*
X201220057Y-192642914D01*
X201291485Y-192928628D01*
X201291485Y-193142914D01*
X201220057Y-193428628D01*
X201148628Y-193571485D01*
X201005771Y-193714342D01*
X200791485Y-193785771D01*
X200434342Y-193785771D01*
X202577200Y-193785771D02*
X202577200Y-193000057D01*
X202505771Y-192857200D01*
X202362914Y-192785771D01*
X202077200Y-192785771D01*
X201934342Y-192857200D01*
X202577200Y-193714342D02*
X202434342Y-193785771D01*
X202077200Y-193785771D01*
X201934342Y-193714342D01*
X201862914Y-193571485D01*
X201862914Y-193428628D01*
X201934342Y-193285771D01*
X202077200Y-193214342D01*
X202434342Y-193214342D01*
X202577200Y-193142914D01*
X203077200Y-192785771D02*
X203648628Y-192785771D01*
X203291485Y-192285771D02*
X203291485Y-193571485D01*
X203362914Y-193714342D01*
X203505771Y-193785771D01*
X203648628Y-193785771D01*
X204720057Y-193714342D02*
X204577200Y-193785771D01*
X204291485Y-193785771D01*
X204148628Y-193714342D01*
X204077200Y-193571485D01*
X204077200Y-193000057D01*
X204148628Y-192857200D01*
X204291485Y-192785771D01*
X204577200Y-192785771D01*
X204720057Y-192857200D01*
X204791485Y-193000057D01*
X204791485Y-193142914D01*
X204077200Y-193285771D01*
X205434342Y-193642914D02*
X205505771Y-193714342D01*
X205434342Y-193785771D01*
X205362914Y-193714342D01*
X205434342Y-193642914D01*
X205434342Y-193785771D01*
X205434342Y-192857200D02*
X205505771Y-192928628D01*
X205434342Y-193000057D01*
X205362914Y-192928628D01*
X205434342Y-192857200D01*
X205434342Y-193000057D01*
X207220057Y-192428628D02*
X207291485Y-192357200D01*
X207434342Y-192285771D01*
X207791485Y-192285771D01*
X207934342Y-192357200D01*
X208005771Y-192428628D01*
X208077200Y-192571485D01*
X208077200Y-192714342D01*
X208005771Y-192928628D01*
X207148628Y-193785771D01*
X208077200Y-193785771D01*
X209005771Y-192285771D02*
X209148628Y-192285771D01*
X209291485Y-192357200D01*
X209362914Y-192428628D01*
X209434342Y-192571485D01*
X209505771Y-192857200D01*
X209505771Y-193214342D01*
X209434342Y-193500057D01*
X209362914Y-193642914D01*
X209291485Y-193714342D01*
X209148628Y-193785771D01*
X209005771Y-193785771D01*
X208862914Y-193714342D01*
X208791485Y-193642914D01*
X208720057Y-193500057D01*
X208648628Y-193214342D01*
X208648628Y-192857200D01*
X208720057Y-192571485D01*
X208791485Y-192428628D01*
X208862914Y-192357200D01*
X209005771Y-192285771D01*
X210934342Y-193785771D02*
X210077200Y-193785771D01*
X210505771Y-193785771D02*
X210505771Y-192285771D01*
X210362914Y-192500057D01*
X210220057Y-192642914D01*
X210077200Y-192714342D01*
X211648628Y-193785771D02*
X211934342Y-193785771D01*
X212077200Y-193714342D01*
X212148628Y-193642914D01*
X212291485Y-193428628D01*
X212362914Y-193142914D01*
X212362914Y-192571485D01*
X212291485Y-192428628D01*
X212220057Y-192357200D01*
X212077200Y-192285771D01*
X211791485Y-192285771D01*
X211648628Y-192357200D01*
X211577200Y-192428628D01*
X211505771Y-192571485D01*
X211505771Y-192928628D01*
X211577200Y-193071485D01*
X211648628Y-193142914D01*
X211791485Y-193214342D01*
X212077200Y-193214342D01*
X212220057Y-193142914D01*
X212291485Y-193071485D01*
X212362914Y-192928628D01*
X213005771Y-193214342D02*
X214148628Y-193214342D01*
X215148628Y-192285771D02*
X215291485Y-192285771D01*
X215434342Y-192357200D01*
X215505771Y-192428628D01*
X215577200Y-192571485D01*
X215648628Y-192857200D01*
X215648628Y-193214342D01*
X215577200Y-193500057D01*
X215505771Y-193642914D01*
X215434342Y-193714342D01*
X215291485Y-193785771D01*
X215148628Y-193785771D01*
X215005771Y-193714342D01*
X214934342Y-193642914D01*
X214862914Y-193500057D01*
X214791485Y-193214342D01*
X214791485Y-192857200D01*
X214862914Y-192571485D01*
X214934342Y-192428628D01*
X215005771Y-192357200D01*
X215148628Y-192285771D01*
X217077200Y-193785771D02*
X216220057Y-193785771D01*
X216648628Y-193785771D02*
X216648628Y-192285771D01*
X216505771Y-192500057D01*
X216362914Y-192642914D01*
X216220057Y-192714342D01*
X217720057Y-193214342D02*
X218862914Y-193214342D01*
X219862914Y-192285771D02*
X220005771Y-192285771D01*
X220148628Y-192357200D01*
X220220057Y-192428628D01*
X220291485Y-192571485D01*
X220362914Y-192857200D01*
X220362914Y-193214342D01*
X220291485Y-193500057D01*
X220220057Y-193642914D01*
X220148628Y-193714342D01*
X220005771Y-193785771D01*
X219862914Y-193785771D01*
X219720057Y-193714342D01*
X219648628Y-193642914D01*
X219577200Y-193500057D01*
X219505771Y-193214342D01*
X219505771Y-192857200D01*
X219577200Y-192571485D01*
X219648628Y-192428628D01*
X219720057Y-192357200D01*
X219862914Y-192285771D01*
X221220057Y-192928628D02*
X221077200Y-192857200D01*
X221005771Y-192785771D01*
X220934342Y-192642914D01*
X220934342Y-192571485D01*
X221005771Y-192428628D01*
X221077200Y-192357200D01*
X221220057Y-192285771D01*
X221505771Y-192285771D01*
X221648628Y-192357200D01*
X221720057Y-192428628D01*
X221791485Y-192571485D01*
X221791485Y-192642914D01*
X221720057Y-192785771D01*
X221648628Y-192857200D01*
X221505771Y-192928628D01*
X221220057Y-192928628D01*
X221077200Y-193000057D01*
X221005771Y-193071485D01*
X220934342Y-193214342D01*
X220934342Y-193500057D01*
X221005771Y-193642914D01*
X221077200Y-193714342D01*
X221220057Y-193785771D01*
X221505771Y-193785771D01*
X221648628Y-193714342D01*
X221720057Y-193642914D01*
X221791485Y-193500057D01*
X221791485Y-193214342D01*
X221720057Y-193071485D01*
X221648628Y-193000057D01*
X221505771Y-192928628D01*
D10*
D11*
X177002200Y-194507200D02*
X285002200Y-194507200D01*
D10*
D11*
X178434342Y-196585771D02*
X178434342Y-195085771D01*
X179291485Y-196585771D02*
X178648628Y-195728628D01*
X179291485Y-195085771D02*
X178434342Y-195942914D01*
X179934342Y-196585771D02*
X179934342Y-195585771D01*
X179934342Y-195085771D02*
X179862914Y-195157200D01*
X179934342Y-195228628D01*
X180005771Y-195157200D01*
X179934342Y-195085771D01*
X179934342Y-195228628D01*
X181505771Y-196442914D02*
X181434342Y-196514342D01*
X181220057Y-196585771D01*
X181077200Y-196585771D01*
X180862914Y-196514342D01*
X180720057Y-196371485D01*
X180648628Y-196228628D01*
X180577200Y-195942914D01*
X180577200Y-195728628D01*
X180648628Y-195442914D01*
X180720057Y-195300057D01*
X180862914Y-195157200D01*
X181077200Y-195085771D01*
X181220057Y-195085771D01*
X181434342Y-195157200D01*
X181505771Y-195228628D01*
X182791485Y-196585771D02*
X182791485Y-195800057D01*
X182720057Y-195657200D01*
X182577200Y-195585771D01*
X182291485Y-195585771D01*
X182148628Y-195657200D01*
X182791485Y-196514342D02*
X182648628Y-196585771D01*
X182291485Y-196585771D01*
X182148628Y-196514342D01*
X182077200Y-196371485D01*
X182077200Y-196228628D01*
X182148628Y-196085771D01*
X182291485Y-196014342D01*
X182648628Y-196014342D01*
X182791485Y-195942914D01*
X184148628Y-196585771D02*
X184148628Y-195085771D01*
X184148628Y-196514342D02*
X184005771Y-196585771D01*
X183720057Y-196585771D01*
X183577200Y-196514342D01*
X183505771Y-196442914D01*
X183434342Y-196300057D01*
X183434342Y-195871485D01*
X183505771Y-195728628D01*
X183577200Y-195657200D01*
X183720057Y-195585771D01*
X184005771Y-195585771D01*
X184148628Y-195657200D01*
X186005771Y-195800057D02*
X186505771Y-195800057D01*
X186720057Y-196585771D02*
X186005771Y-196585771D01*
X186005771Y-195085771D01*
X186720057Y-195085771D01*
X187362914Y-196442914D02*
X187434342Y-196514342D01*
X187362914Y-196585771D01*
X187291485Y-196514342D01*
X187362914Y-196442914D01*
X187362914Y-196585771D01*
X188077200Y-196585771D02*
X188077200Y-195085771D01*
X188434342Y-195085771D01*
X188648628Y-195157200D01*
X188791485Y-195300057D01*
X188862914Y-195442914D01*
X188934342Y-195728628D01*
X188934342Y-195942914D01*
X188862914Y-196228628D01*
X188791485Y-196371485D01*
X188648628Y-196514342D01*
X188434342Y-196585771D01*
X188077200Y-196585771D01*
X189577200Y-196442914D02*
X189648628Y-196514342D01*
X189577200Y-196585771D01*
X189505771Y-196514342D01*
X189577200Y-196442914D01*
X189577200Y-196585771D01*
X190220057Y-196157200D02*
X190934342Y-196157200D01*
X190077200Y-196585771D02*
X190577200Y-195085771D01*
X191077200Y-196585771D01*
X191577200Y-196442914D02*
X191648628Y-196514342D01*
X191577200Y-196585771D01*
X191505771Y-196514342D01*
X191577200Y-196442914D01*
X191577200Y-196585771D01*
X194577200Y-196585771D02*
X194577200Y-195085771D01*
X194720057Y-196014342D02*
X195148628Y-196585771D01*
X195148628Y-195585771D02*
X194577200Y-196157200D01*
X195791485Y-196585771D02*
X195791485Y-195585771D01*
X195791485Y-195085771D02*
X195720057Y-195157200D01*
X195791485Y-195228628D01*
X195862914Y-195157200D01*
X195791485Y-195085771D01*
X195791485Y-195228628D01*
X197148628Y-196514342D02*
X197005771Y-196585771D01*
X196720057Y-196585771D01*
X196577200Y-196514342D01*
X196505771Y-196442914D01*
X196434342Y-196300057D01*
X196434342Y-195871485D01*
X196505771Y-195728628D01*
X196577200Y-195657200D01*
X196720057Y-195585771D01*
X197005771Y-195585771D01*
X197148628Y-195657200D01*
X198434342Y-196585771D02*
X198434342Y-195800057D01*
X198362914Y-195657200D01*
X198220057Y-195585771D01*
X197934342Y-195585771D01*
X197791485Y-195657200D01*
X198434342Y-196514342D02*
X198291485Y-196585771D01*
X197934342Y-196585771D01*
X197791485Y-196514342D01*
X197720057Y-196371485D01*
X197720057Y-196228628D01*
X197791485Y-196085771D01*
X197934342Y-196014342D01*
X198291485Y-196014342D01*
X198434342Y-195942914D01*
X199791485Y-196585771D02*
X199791485Y-195085771D01*
X199791485Y-196514342D02*
X199648628Y-196585771D01*
X199362914Y-196585771D01*
X199220057Y-196514342D01*
X199148628Y-196442914D01*
X199077200Y-196300057D01*
X199077200Y-195871485D01*
X199148628Y-195728628D01*
X199220057Y-195657200D01*
X199362914Y-195585771D01*
X199648628Y-195585771D01*
X199791485Y-195657200D01*
X202077200Y-197157200D02*
X202005771Y-197085771D01*
X201862914Y-196871485D01*
X201791485Y-196728628D01*
X201720057Y-196514342D01*
X201648628Y-196157200D01*
X201648628Y-195871485D01*
X201720057Y-195514342D01*
X201791485Y-195300057D01*
X201862914Y-195157200D01*
X202005771Y-194942914D01*
X202077200Y-194871485D01*
X203362914Y-195085771D02*
X202648628Y-195085771D01*
X202577200Y-195800057D01*
X202648628Y-195728628D01*
X202791485Y-195657200D01*
X203148628Y-195657200D01*
X203291485Y-195728628D01*
X203362914Y-195800057D01*
X203434342Y-195942914D01*
X203434342Y-196300057D01*
X203362914Y-196442914D01*
X203291485Y-196514342D01*
X203148628Y-196585771D01*
X202791485Y-196585771D01*
X202648628Y-196514342D01*
X202577200Y-196442914D01*
X204077200Y-196442914D02*
X204148628Y-196514342D01*
X204077200Y-196585771D01*
X204005771Y-196514342D01*
X204077200Y-196442914D01*
X204077200Y-196585771D01*
X205077200Y-195085771D02*
X205220057Y-195085771D01*
X205362914Y-195157200D01*
X205434342Y-195228628D01*
X205505771Y-195371485D01*
X205577200Y-195657200D01*
X205577200Y-196014342D01*
X205505771Y-196300057D01*
X205434342Y-196442914D01*
X205362914Y-196514342D01*
X205220057Y-196585771D01*
X205077200Y-196585771D01*
X204934342Y-196514342D01*
X204862914Y-196442914D01*
X204791485Y-196300057D01*
X204720057Y-196014342D01*
X204720057Y-195657200D01*
X204791485Y-195371485D01*
X204862914Y-195228628D01*
X204934342Y-195157200D01*
X205077200Y-195085771D01*
X206220057Y-196442914D02*
X206291485Y-196514342D01*
X206220057Y-196585771D01*
X206148628Y-196514342D01*
X206220057Y-196442914D01*
X206220057Y-196585771D01*
X206862914Y-195228628D02*
X206934342Y-195157200D01*
X207077200Y-195085771D01*
X207434342Y-195085771D01*
X207577200Y-195157200D01*
X207648628Y-195228628D01*
X207720057Y-195371485D01*
X207720057Y-195514342D01*
X207648628Y-195728628D01*
X206791485Y-196585771D01*
X207720057Y-196585771D01*
X208220057Y-197157200D02*
X208291485Y-197085771D01*
X208434342Y-196871485D01*
X208505771Y-196728628D01*
X208577200Y-196514342D01*
X208648628Y-196157200D01*
X208648628Y-195871485D01*
X208577200Y-195514342D01*
X208505771Y-195300057D01*
X208434342Y-195157200D01*
X208291485Y-194942914D01*
X208220057Y-194871485D01*
X209362914Y-196014342D02*
X210505771Y-196014342D01*
X212005771Y-196585771D02*
X211148628Y-196585771D01*
X211577200Y-196585771D02*
X211577200Y-195085771D01*
X211434342Y-195300057D01*
X211291485Y-195442914D01*
X211148628Y-195514342D01*
D10*
D11*
X177002200Y-191507200D02*
X285002200Y-191507200D01*
D10*
D12*
X264411485Y-193785771D02*
X263911485Y-193071485D01*
X263554342Y-193785771D02*
X263554342Y-192285771D01*
X264125771Y-192285771D01*
X264268628Y-192357200D01*
X264340057Y-192428628D01*
X264411485Y-192571485D01*
X264411485Y-192785771D01*
X264340057Y-192928628D01*
X264268628Y-193000057D01*
X264125771Y-193071485D01*
X263554342Y-193071485D01*
X265625771Y-193714342D02*
X265482914Y-193785771D01*
X265197200Y-193785771D01*
X265054342Y-193714342D01*
X264982914Y-193571485D01*
X264982914Y-193000057D01*
X265054342Y-192857200D01*
X265197200Y-192785771D01*
X265482914Y-192785771D01*
X265625771Y-192857200D01*
X265697200Y-193000057D01*
X265697200Y-193142914D01*
X264982914Y-193285771D01*
X266197200Y-192785771D02*
X266554342Y-193785771D01*
X266911485Y-192785771D01*
X267482914Y-193642914D02*
X267554342Y-193714342D01*
X267482914Y-193785771D01*
X267411485Y-193714342D01*
X267482914Y-193642914D01*
X267482914Y-193785771D01*
X267482914Y-192857200D02*
X267554342Y-192928628D01*
X267482914Y-193000057D01*
X267411485Y-192928628D01*
X267482914Y-192857200D01*
X267482914Y-193000057D01*
X269840057Y-193000057D02*
X270054342Y-193071485D01*
X270125771Y-193142914D01*
X270197200Y-193285771D01*
X270197200Y-193500057D01*
X270125771Y-193642914D01*
X270054342Y-193714342D01*
X269911485Y-193785771D01*
X269340057Y-193785771D01*
X269340057Y-192285771D01*
X269840057Y-192285771D01*
X269982914Y-192357200D01*
X270054342Y-192428628D01*
X270125771Y-192571485D01*
X270125771Y-192714342D01*
X270054342Y-192857200D01*
X269982914Y-192928628D01*
X269840057Y-193000057D01*
X269340057Y-193000057D01*
X270840057Y-193000057D02*
X271340057Y-193000057D01*
X271554342Y-193785771D02*
X270840057Y-193785771D01*
X270840057Y-192285771D01*
X271554342Y-192285771D01*
X271982914Y-192285771D02*
X272840057Y-192285771D01*
X272411485Y-193785771D02*
X272411485Y-192285771D01*
X273268628Y-193357200D02*
X273982914Y-193357200D01*
X273125771Y-193785771D02*
X273625771Y-192285771D01*
X274125771Y-193785771D01*
D10*
D11*
X178362914Y-193714342D02*
X178577200Y-193785771D01*
X178934342Y-193785771D01*
X179077200Y-193714342D01*
X179148628Y-193642914D01*
X179220057Y-193500057D01*
X179220057Y-193357200D01*
X179148628Y-193214342D01*
X179077200Y-193142914D01*
X178934342Y-193071485D01*
X178648628Y-193000057D01*
X178505771Y-192928628D01*
X178434342Y-192857200D01*
X178362914Y-192714342D01*
X178362914Y-192571485D01*
X178434342Y-192428628D01*
X178505771Y-192357200D01*
X178648628Y-192285771D01*
X179005771Y-192285771D01*
X179220057Y-192357200D01*
X179862914Y-193785771D02*
X179862914Y-192785771D01*
X179862914Y-192285771D02*
X179791485Y-192357200D01*
X179862914Y-192428628D01*
X179934342Y-192357200D01*
X179862914Y-192285771D01*
X179862914Y-192428628D01*
X180434342Y-192785771D02*
X181220057Y-192785771D01*
X180434342Y-193785771D01*
X181220057Y-193785771D01*
X182362914Y-193714342D02*
X182220057Y-193785771D01*
X181934342Y-193785771D01*
X181791485Y-193714342D01*
X181720057Y-193571485D01*
X181720057Y-193000057D01*
X181791485Y-192857200D01*
X181934342Y-192785771D01*
X182220057Y-192785771D01*
X182362914Y-192857200D01*
X182434342Y-193000057D01*
X182434342Y-193142914D01*
X181720057Y-193285771D01*
X183077200Y-193642914D02*
X183148628Y-193714342D01*
X183077200Y-193785771D01*
X183005771Y-193714342D01*
X183077200Y-193642914D01*
X183077200Y-193785771D01*
X183077200Y-192857200D02*
X183148628Y-192928628D01*
X183077200Y-193000057D01*
X183005771Y-192928628D01*
X183077200Y-192857200D01*
X183077200Y-193000057D01*
X184862914Y-193357200D02*
X185577200Y-193357200D01*
X184720057Y-193785771D02*
X185220057Y-192285771D01*
X185720057Y-193785771D01*
X186862914Y-192785771D02*
X186862914Y-193785771D01*
X186505771Y-192214342D02*
X186148628Y-193285771D01*
X187077200Y-193285771D01*
D10*
D11*
X263434342Y-196585771D02*
X263434342Y-195085771D01*
X264791485Y-196585771D02*
X264791485Y-195085771D01*
X264791485Y-196514342D02*
X264648628Y-196585771D01*
X264362914Y-196585771D01*
X264220057Y-196514342D01*
X264148628Y-196442914D01*
X264077200Y-196300057D01*
X264077200Y-195871485D01*
X264148628Y-195728628D01*
X264220057Y-195657200D01*
X264362914Y-195585771D01*
X264648628Y-195585771D01*
X264791485Y-195657200D01*
X265505771Y-196442914D02*
X265577200Y-196514342D01*
X265505771Y-196585771D01*
X265434342Y-196514342D01*
X265505771Y-196442914D01*
X265505771Y-196585771D01*
X265505771Y-195657200D02*
X265577200Y-195728628D01*
X265505771Y-195800057D01*
X265434342Y-195728628D01*
X265505771Y-195657200D01*
X265505771Y-195800057D01*
X268148628Y-196585771D02*
X267291485Y-196585771D01*
X267720057Y-196585771D02*
X267720057Y-195085771D01*
X267577200Y-195300057D01*
X267434342Y-195442914D01*
X267291485Y-195514342D01*
X269862914Y-195014342D02*
X268577200Y-196942914D01*
X271148628Y-196585771D02*
X270291485Y-196585771D01*
X270720057Y-196585771D02*
X270720057Y-195085771D01*
X270577200Y-195300057D01*
X270434342Y-195442914D01*
X270291485Y-195514342D01*
D10*
D11*
X177002200Y-187507200D02*
X285002200Y-187507200D01*
D10*
D13*
X178714580Y-188211961D02*
X179857438Y-188211961D01*
X179036009Y-190211961D02*
X179286009Y-188211961D01*
X180274104Y-190211961D02*
X180440771Y-188878628D01*
X180524104Y-188211961D02*
X180416961Y-188307200D01*
X180500295Y-188402438D01*
X180607438Y-188307200D01*
X180524104Y-188211961D01*
X180500295Y-188402438D01*
X181107438Y-188878628D02*
X181869342Y-188878628D01*
X181476485Y-188211961D02*
X181262200Y-189926247D01*
X181333628Y-190116723D01*
X181512200Y-190211961D01*
X181702676Y-190211961D01*
X182655057Y-190211961D02*
X182476485Y-190116723D01*
X182405057Y-189926247D01*
X182619342Y-188211961D01*
X184190771Y-190116723D02*
X183988390Y-190211961D01*
X183607438Y-190211961D01*
X183428866Y-190116723D01*
X183357438Y-189926247D01*
X183452676Y-189164342D01*
X183571723Y-188973866D01*
X183774104Y-188878628D01*
X184155057Y-188878628D01*
X184333628Y-188973866D01*
X184405057Y-189164342D01*
X184381247Y-189354819D01*
X183405057Y-189545295D01*
X185155057Y-190021485D02*
X185238390Y-190116723D01*
X185131247Y-190211961D01*
X185047914Y-190116723D01*
X185155057Y-190021485D01*
X185131247Y-190211961D01*
X185286009Y-188973866D02*
X185369342Y-189069104D01*
X185262200Y-189164342D01*
X185178866Y-189069104D01*
X185286009Y-188973866D01*
X185262200Y-189164342D01*
X188631247Y-188878628D02*
X188464580Y-190211961D01*
X188250295Y-188116723D02*
X187595533Y-189545295D01*
X188833628Y-189545295D01*
X191321723Y-190211961D02*
X191143152Y-190116723D01*
X191071723Y-189926247D01*
X191286009Y-188211961D01*
X192940771Y-190211961D02*
X193071723Y-189164342D01*
X193000295Y-188973866D01*
X192821723Y-188878628D01*
X192440771Y-188878628D01*
X192238390Y-188973866D01*
X192952676Y-190116723D02*
X192750295Y-190211961D01*
X192274104Y-190211961D01*
X192095533Y-190116723D01*
X192024104Y-189926247D01*
X192047914Y-189735771D01*
X192166961Y-189545295D01*
X192369342Y-189450057D01*
X192845533Y-189450057D01*
X193047914Y-189354819D01*
X193869342Y-188878628D02*
X194178866Y-190211961D01*
X194821723Y-188878628D02*
X194178866Y-190211961D01*
X193928866Y-190688152D01*
X193821723Y-190783390D01*
X193619342Y-190878628D01*
X196190771Y-190116723D02*
X195988390Y-190211961D01*
X195607438Y-190211961D01*
X195428866Y-190116723D01*
X195357438Y-189926247D01*
X195452676Y-189164342D01*
X195571723Y-188973866D01*
X195774104Y-188878628D01*
X196155057Y-188878628D01*
X196333628Y-188973866D01*
X196405057Y-189164342D01*
X196381247Y-189354819D01*
X195405057Y-189545295D01*
X197131247Y-190211961D02*
X197297914Y-188878628D01*
X197250295Y-189259580D02*
X197369342Y-189069104D01*
X197476485Y-188973866D01*
X197678866Y-188878628D01*
X197869342Y-188878628D01*
X200940771Y-190211961D02*
X199797914Y-190211961D01*
X200369342Y-190211961D02*
X200619342Y-188211961D01*
X200393152Y-188497676D01*
X200178866Y-188688152D01*
X199976485Y-188783390D01*
X202428866Y-188211961D02*
X202619342Y-188211961D01*
X202797914Y-188307200D01*
X202881247Y-188402438D01*
X202952676Y-188592914D01*
X203000295Y-188973866D01*
X202940771Y-189450057D01*
X202797914Y-189831009D01*
X202678866Y-190021485D01*
X202571723Y-190116723D01*
X202369342Y-190211961D01*
X202178866Y-190211961D01*
X202000295Y-190116723D01*
X201916961Y-190021485D01*
X201845533Y-189831009D01*
X201797914Y-189450057D01*
X201857438Y-188973866D01*
X202000295Y-188592914D01*
X202119342Y-188402438D01*
X202226485Y-188307200D01*
X202428866Y-188211961D01*
X204333628Y-188211961D02*
X204524104Y-188211961D01*
X204702676Y-188307200D01*
X204786009Y-188402438D01*
X204857438Y-188592914D01*
X204905057Y-188973866D01*
X204845533Y-189450057D01*
X204702676Y-189831009D01*
X204583628Y-190021485D01*
X204476485Y-190116723D01*
X204274104Y-190211961D01*
X204083628Y-190211961D01*
X203905057Y-190116723D01*
X203821723Y-190021485D01*
X203750295Y-189831009D01*
X203702676Y-189450057D01*
X203762200Y-188973866D01*
X203905057Y-188592914D01*
X204024104Y-188402438D01*
X204131247Y-188307200D01*
X204333628Y-188211961D01*
X205416961Y-190211961D02*
X206631247Y-188878628D01*
X205583628Y-188878628D02*
X206464580Y-190211961D01*
X208274104Y-190211961D02*
X207131247Y-190211961D01*
X207702676Y-190211961D02*
X207952676Y-188211961D01*
X207726485Y-188497676D01*
X207512200Y-188688152D01*
X207309819Y-188783390D01*
X209762200Y-188211961D02*
X209952676Y-188211961D01*
X210131247Y-188307200D01*
X210214580Y-188402438D01*
X210286009Y-188592914D01*
X210333628Y-188973866D01*
X210274104Y-189450057D01*
X210131247Y-189831009D01*
X210012200Y-190021485D01*
X209905057Y-190116723D01*
X209702676Y-190211961D01*
X209512200Y-190211961D01*
X209333628Y-190116723D01*
X209250295Y-190021485D01*
X209178866Y-189831009D01*
X209131247Y-189450057D01*
X209190771Y-188973866D01*
X209333628Y-188592914D01*
X209452676Y-188402438D01*
X209559819Y-188307200D01*
X209762200Y-188211961D01*
X211666961Y-188211961D02*
X211857438Y-188211961D01*
X212036009Y-188307200D01*
X212119342Y-188402438D01*
X212190771Y-188592914D01*
X212238390Y-188973866D01*
X212178866Y-189450057D01*
X212036009Y-189831009D01*
X211916961Y-190021485D01*
X211809819Y-190116723D01*
X211607438Y-190211961D01*
X211416961Y-190211961D01*
X211238390Y-190116723D01*
X211155057Y-190021485D01*
X211083628Y-189831009D01*
X211036009Y-189450057D01*
X211095533Y-188973866D01*
X211238390Y-188592914D01*
X211357438Y-188402438D01*
X211464580Y-188307200D01*
X211666961Y-188211961D01*
X214464580Y-190211961D02*
X214631247Y-188878628D01*
X214607438Y-189069104D02*
X214714580Y-188973866D01*
X214916961Y-188878628D01*
X215202676Y-188878628D01*
X215381247Y-188973866D01*
X215452676Y-189164342D01*
X215321723Y-190211961D01*
X215452676Y-189164342D02*
X215571723Y-188973866D01*
X215774104Y-188878628D01*
X216059819Y-188878628D01*
X216238390Y-188973866D01*
X216309819Y-189164342D01*
X216178866Y-190211961D01*
X217131247Y-190211961D02*
X217297914Y-188878628D01*
X217274104Y-189069104D02*
X217381247Y-188973866D01*
X217583628Y-188878628D01*
X217869342Y-188878628D01*
X218047914Y-188973866D01*
X218119342Y-189164342D01*
X217988390Y-190211961D01*
X218119342Y-189164342D02*
X218238390Y-188973866D01*
X218440771Y-188878628D01*
X218726485Y-188878628D01*
X218905057Y-188973866D01*
X218976485Y-189164342D01*
X218845533Y-190211961D01*
X221321723Y-190211961D02*
X221571723Y-188211961D01*
X222333628Y-188211961D01*
X222512199Y-188307200D01*
X222595533Y-188402438D01*
X222666961Y-188592914D01*
X222631247Y-188878628D01*
X222512199Y-189069104D01*
X222405057Y-189164342D01*
X222202676Y-189259580D01*
X221440771Y-189259580D01*
X224488390Y-190021485D02*
X224381247Y-190116723D01*
X224083628Y-190211961D01*
X223893152Y-190211961D01*
X223619342Y-190116723D01*
X223452676Y-189926247D01*
X223381247Y-189735771D01*
X223333628Y-189354819D01*
X223369342Y-189069104D01*
X223512200Y-188688152D01*
X223631247Y-188497676D01*
X223845533Y-188307200D01*
X224143152Y-188211961D01*
X224333628Y-188211961D01*
X224607438Y-188307200D01*
X224690771Y-188402438D01*
X226119342Y-189164342D02*
X226393152Y-189259580D01*
X226476485Y-189354819D01*
X226547914Y-189545295D01*
X226512199Y-189831009D01*
X226393152Y-190021485D01*
X226286009Y-190116723D01*
X226083628Y-190211961D01*
X225321723Y-190211961D01*
X225571723Y-188211961D01*
X226238390Y-188211961D01*
X226416961Y-188307200D01*
X226500295Y-188402438D01*
X226571723Y-188592914D01*
X226547914Y-188783390D01*
X226428866Y-188973866D01*
X226321723Y-189069104D01*
X226119342Y-189164342D01*
X225452676Y-189164342D01*
D10*
D11*
X178934342Y-185600057D02*
X178434342Y-185600057D01*
X178434342Y-186385771D02*
X178434342Y-184885771D01*
X179148628Y-184885771D01*
X179720057Y-186385771D02*
X179720057Y-185385771D01*
X179720057Y-184885771D02*
X179648628Y-184957200D01*
X179720057Y-185028628D01*
X179791485Y-184957200D01*
X179720057Y-184885771D01*
X179720057Y-185028628D01*
X180648628Y-186385771D02*
X180505771Y-186314342D01*
X180434342Y-186171485D01*
X180434342Y-184885771D01*
X181791485Y-186314342D02*
X181648628Y-186385771D01*
X181362914Y-186385771D01*
X181220057Y-186314342D01*
X181148628Y-186171485D01*
X181148628Y-185600057D01*
X181220057Y-185457200D01*
X181362914Y-185385771D01*
X181648628Y-185385771D01*
X181791485Y-185457200D01*
X181862914Y-185600057D01*
X181862914Y-185742914D01*
X181148628Y-185885771D01*
X182505771Y-186242914D02*
X182577200Y-186314342D01*
X182505771Y-186385771D01*
X182434342Y-186314342D01*
X182505771Y-186242914D01*
X182505771Y-186385771D01*
X182505771Y-185457200D02*
X182577200Y-185528628D01*
X182505771Y-185600057D01*
X182434342Y-185528628D01*
X182505771Y-185457200D01*
X182505771Y-185600057D01*
X184220057Y-184885771D02*
X185220057Y-186385771D01*
X185220057Y-184885771D02*
X184220057Y-186385771D01*
X185791485Y-186385771D02*
X185791485Y-184885771D01*
X186291485Y-185957200D01*
X186791485Y-184885771D01*
X186791485Y-186385771D01*
X187791485Y-184885771D02*
X188077200Y-184885771D01*
X188220057Y-184957200D01*
X188362914Y-185100057D01*
X188434342Y-185385771D01*
X188434342Y-185885771D01*
X188362914Y-186171485D01*
X188220057Y-186314342D01*
X188077200Y-186385771D01*
X187791485Y-186385771D01*
X187648628Y-186314342D01*
X187505771Y-186171485D01*
X187434342Y-185885771D01*
X187434342Y-185385771D01*
X187505771Y-185100057D01*
X187648628Y-184957200D01*
X187791485Y-184885771D01*
X189005771Y-186314342D02*
X189220057Y-186385771D01*
X189577200Y-186385771D01*
X189720057Y-186314342D01*
X189791485Y-186242914D01*
X189862914Y-186100057D01*
X189862914Y-185957200D01*
X189791485Y-185814342D01*
X189720057Y-185742914D01*
X189577200Y-185671485D01*
X189291485Y-185600057D01*
X189148628Y-185528628D01*
X189077200Y-185457200D01*
X189005771Y-185314342D01*
X189005771Y-185171485D01*
X189077200Y-185028628D01*
X189148628Y-184957200D01*
X189291485Y-184885771D01*
X189648628Y-184885771D01*
X189862914Y-184957200D01*
X190148628Y-186528628D02*
X191291485Y-186528628D01*
X191505771Y-184885771D02*
X192505771Y-186385771D01*
X192505771Y-184885771D02*
X191505771Y-186385771D01*
X193077200Y-184885771D02*
X193077200Y-186100057D01*
X193148628Y-186242914D01*
X193220057Y-186314342D01*
X193362914Y-186385771D01*
X193648628Y-186385771D01*
X193791485Y-186314342D01*
X193862914Y-186242914D01*
X193934342Y-186100057D01*
X193934342Y-184885771D01*
X195148628Y-185600057D02*
X194648628Y-185600057D01*
X194648628Y-186385771D02*
X194648628Y-184885771D01*
X195362914Y-184885771D01*
X195862914Y-185028628D02*
X195934342Y-184957200D01*
X196077200Y-184885771D01*
X196434342Y-184885771D01*
X196577200Y-184957200D01*
X196648628Y-185028628D01*
X196720057Y-185171485D01*
X196720057Y-185314342D01*
X196648628Y-185528628D01*
X195791485Y-186385771D01*
X196720057Y-186385771D01*
X198148628Y-186385771D02*
X197291485Y-186385771D01*
X197720057Y-186385771D02*
X197720057Y-184885771D01*
X197577200Y-185100057D01*
X197434342Y-185242914D01*
X197291485Y-185314342D01*
X199434342Y-184885771D02*
X199148628Y-184885771D01*
X199005771Y-184957200D01*
X198934342Y-185028628D01*
X198791485Y-185242914D01*
X198720057Y-185528628D01*
X198720057Y-186100057D01*
X198791485Y-186242914D01*
X198862914Y-186314342D01*
X199005771Y-186385771D01*
X199291485Y-186385771D01*
X199434342Y-186314342D01*
X199505771Y-186242914D01*
X199577200Y-186100057D01*
X199577200Y-185742914D01*
X199505771Y-185600057D01*
X199434342Y-185528628D01*
X199291485Y-185457200D01*
X199005771Y-185457200D01*
X198862914Y-185528628D01*
X198791485Y-185600057D01*
X198720057Y-185742914D01*
X199862914Y-186528628D02*
X201005771Y-186528628D01*
X201862914Y-185600057D02*
X201362914Y-185600057D01*
X201362914Y-186385771D02*
X201362914Y-184885771D01*
X202077200Y-184885771D01*
X203148628Y-185600057D02*
X203362914Y-185671485D01*
X203434342Y-185742914D01*
X203505771Y-185885771D01*
X203505771Y-186100057D01*
X203434342Y-186242914D01*
X203362914Y-186314342D01*
X203220057Y-186385771D01*
X202648628Y-186385771D01*
X202648628Y-184885771D01*
X203148628Y-184885771D01*
X203291485Y-184957200D01*
X203362914Y-185028628D01*
X203434342Y-185171485D01*
X203434342Y-185314342D01*
X203362914Y-185457200D01*
X203291485Y-185528628D01*
X203148628Y-185600057D01*
X202648628Y-185600057D01*
X204077200Y-185028628D02*
X204148628Y-184957200D01*
X204291485Y-184885771D01*
X204648628Y-184885771D01*
X204791485Y-184957200D01*
X204862914Y-185028628D01*
X204934342Y-185171485D01*
X204934342Y-185314342D01*
X204862914Y-185528628D01*
X204005771Y-186385771D01*
X204934342Y-186385771D01*
X205434342Y-184885771D02*
X206362914Y-184885771D01*
X205862914Y-185457200D01*
X206077200Y-185457200D01*
X206220057Y-185528628D01*
X206291485Y-185600057D01*
X206362914Y-185742914D01*
X206362914Y-186100057D01*
X206291485Y-186242914D01*
X206220057Y-186314342D01*
X206077200Y-186385771D01*
X205648628Y-186385771D01*
X205505771Y-186314342D01*
X205434342Y-186242914D01*
X207648628Y-184885771D02*
X207362914Y-184885771D01*
X207220057Y-184957200D01*
X207148628Y-185028628D01*
X207005771Y-185242914D01*
X206934342Y-185528628D01*
X206934342Y-186100057D01*
X207005771Y-186242914D01*
X207077200Y-186314342D01*
X207220057Y-186385771D01*
X207505771Y-186385771D01*
X207648628Y-186314342D01*
X207720057Y-186242914D01*
X207791485Y-186100057D01*
X207791485Y-185742914D01*
X207720057Y-185600057D01*
X207648628Y-185528628D01*
X207505771Y-185457200D01*
X207220057Y-185457200D01*
X207077200Y-185528628D01*
X207005771Y-185600057D01*
X206934342Y-185742914D01*
X208434342Y-186242914D02*
X208505771Y-186314342D01*
X208434342Y-186385771D01*
X208362914Y-186314342D01*
X208434342Y-186242914D01*
X208434342Y-186385771D01*
X209148628Y-186385771D02*
X209148628Y-184885771D01*
X209291485Y-185814342D02*
X209720057Y-186385771D01*
X209720057Y-185385771D02*
X209148628Y-185957200D01*
X210362914Y-186385771D02*
X210362914Y-185385771D01*
X210362914Y-184885771D02*
X210291485Y-184957200D01*
X210362914Y-185028628D01*
X210434342Y-184957200D01*
X210362914Y-184885771D01*
X210362914Y-185028628D01*
X211720057Y-186314342D02*
X211577200Y-186385771D01*
X211291485Y-186385771D01*
X211148628Y-186314342D01*
X211077200Y-186242914D01*
X211005771Y-186100057D01*
X211005771Y-185671485D01*
X211077200Y-185528628D01*
X211148628Y-185457200D01*
X211291485Y-185385771D01*
X211577200Y-185385771D01*
X211720057Y-185457200D01*
X213005771Y-186385771D02*
X213005771Y-185600057D01*
X212934342Y-185457200D01*
X212791485Y-185385771D01*
X212505771Y-185385771D01*
X212362914Y-185457200D01*
X213005771Y-186314342D02*
X212862914Y-186385771D01*
X212505771Y-186385771D01*
X212362914Y-186314342D01*
X212291485Y-186171485D01*
X212291485Y-186028628D01*
X212362914Y-185885771D01*
X212505771Y-185814342D01*
X212862914Y-185814342D01*
X213005771Y-185742914D01*
X214362914Y-186385771D02*
X214362914Y-184885771D01*
X214362914Y-186314342D02*
X214220057Y-186385771D01*
X213934342Y-186385771D01*
X213791485Y-186314342D01*
X213720057Y-186242914D01*
X213648628Y-186100057D01*
X213648628Y-185671485D01*
X213720057Y-185528628D01*
X213791485Y-185457200D01*
X213934342Y-185385771D01*
X214220057Y-185385771D01*
X214362914Y-185457200D01*
X214720057Y-186528628D02*
X215862914Y-186528628D01*
X216220057Y-185385771D02*
X216220057Y-186885771D01*
X216220057Y-185457200D02*
X216362914Y-185385771D01*
X216648628Y-185385771D01*
X216791485Y-185457200D01*
X216862914Y-185528628D01*
X216934342Y-185671485D01*
X216934342Y-186100057D01*
X216862914Y-186242914D01*
X216791485Y-186314342D01*
X216648628Y-186385771D01*
X216362914Y-186385771D01*
X216220057Y-186314342D01*
X218220057Y-186314342D02*
X218077200Y-186385771D01*
X217791485Y-186385771D01*
X217648628Y-186314342D01*
X217577200Y-186242914D01*
X217505771Y-186100057D01*
X217505771Y-185671485D01*
X217577200Y-185528628D01*
X217648628Y-185457200D01*
X217791485Y-185385771D01*
X218077200Y-185385771D01*
X218220057Y-185457200D01*
X218862914Y-186385771D02*
X218862914Y-184885771D01*
X218862914Y-185457200D02*
X219005771Y-185385771D01*
X219291485Y-185385771D01*
X219434342Y-185457200D01*
X219505771Y-185528628D01*
X219577200Y-185671485D01*
X219577200Y-186100057D01*
X219505771Y-186242914D01*
X219434342Y-186314342D01*
X219291485Y-186385771D01*
X219005771Y-186385771D01*
X218862914Y-186314342D01*
D10*
D11*
X177002200Y-181507200D02*
X285002200Y-181507200D01*
D10*
D11*
X178362914Y-183614342D02*
X178577200Y-183685771D01*
X178934342Y-183685771D01*
X179077200Y-183614342D01*
X179148628Y-183542914D01*
X179220057Y-183400057D01*
X179220057Y-183257200D01*
X179148628Y-183114342D01*
X179077200Y-183042914D01*
X178934342Y-182971485D01*
X178648628Y-182900057D01*
X178505771Y-182828628D01*
X178434342Y-182757200D01*
X178362914Y-182614342D01*
X178362914Y-182471485D01*
X178434342Y-182328628D01*
X178505771Y-182257200D01*
X178648628Y-182185771D01*
X179005771Y-182185771D01*
X179220057Y-182257200D01*
X179862914Y-183685771D02*
X179862914Y-182185771D01*
X180505771Y-183685771D02*
X180505771Y-182900057D01*
X180434342Y-182757200D01*
X180291485Y-182685771D01*
X180077200Y-182685771D01*
X179934342Y-182757200D01*
X179862914Y-182828628D01*
X181791485Y-183614342D02*
X181648628Y-183685771D01*
X181362914Y-183685771D01*
X181220057Y-183614342D01*
X181148628Y-183471485D01*
X181148628Y-182900057D01*
X181220057Y-182757200D01*
X181362914Y-182685771D01*
X181648628Y-182685771D01*
X181791485Y-182757200D01*
X181862914Y-182900057D01*
X181862914Y-183042914D01*
X181148628Y-183185771D01*
X183077200Y-183614342D02*
X182934342Y-183685771D01*
X182648628Y-183685771D01*
X182505771Y-183614342D01*
X182434342Y-183471485D01*
X182434342Y-182900057D01*
X182505771Y-182757200D01*
X182648628Y-182685771D01*
X182934342Y-182685771D01*
X183077200Y-182757200D01*
X183148628Y-182900057D01*
X183148628Y-183042914D01*
X182434342Y-183185771D01*
X183577200Y-182685771D02*
X184148628Y-182685771D01*
X183791485Y-182185771D02*
X183791485Y-183471485D01*
X183862914Y-183614342D01*
X184005771Y-183685771D01*
X184148628Y-183685771D01*
X184648628Y-183542914D02*
X184720057Y-183614342D01*
X184648628Y-183685771D01*
X184577200Y-183614342D01*
X184648628Y-183542914D01*
X184648628Y-183685771D01*
X184648628Y-182757200D02*
X184720057Y-182828628D01*
X184648628Y-182900057D01*
X184577200Y-182828628D01*
X184648628Y-182757200D01*
X184648628Y-182900057D01*
D10*
D12*
X178768628Y-180685771D02*
X178625771Y-180614342D01*
X178554342Y-180542914D01*
X178482914Y-180400057D01*
X178482914Y-179971485D01*
X178554342Y-179828628D01*
X178625771Y-179757200D01*
X178768628Y-179685771D01*
X178982914Y-179685771D01*
X179125771Y-179757200D01*
X179197200Y-179828628D01*
X179268628Y-179971485D01*
X179268628Y-180400057D01*
X179197200Y-180542914D01*
X179125771Y-180614342D01*
X178982914Y-180685771D01*
X178768628Y-180685771D01*
X179911485Y-179685771D02*
X179911485Y-181185771D01*
X179911485Y-179757200D02*
X180054342Y-179685771D01*
X180340057Y-179685771D01*
X180482914Y-179757200D01*
X180554342Y-179828628D01*
X180625771Y-179971485D01*
X180625771Y-180400057D01*
X180554342Y-180542914D01*
X180482914Y-180614342D01*
X180340057Y-180685771D01*
X180054342Y-180685771D01*
X179911485Y-180614342D01*
X181840057Y-180614342D02*
X181697200Y-180685771D01*
X181411485Y-180685771D01*
X181268628Y-180614342D01*
X181197200Y-180471485D01*
X181197200Y-179900057D01*
X181268628Y-179757200D01*
X181411485Y-179685771D01*
X181697200Y-179685771D01*
X181840057Y-179757200D01*
X181911485Y-179900057D01*
X181911485Y-180042914D01*
X181197200Y-180185771D01*
X182554342Y-179685771D02*
X182554342Y-180685771D01*
X182554342Y-179828628D02*
X182625771Y-179757200D01*
X182768628Y-179685771D01*
X182982914Y-179685771D01*
X183125771Y-179757200D01*
X183197200Y-179900057D01*
X183197200Y-180685771D01*
X183911485Y-180685771D02*
X183911485Y-179185771D01*
X184482914Y-179185771D01*
X184625771Y-179257200D01*
X184697200Y-179328628D01*
X184768628Y-179471485D01*
X184768628Y-179685771D01*
X184697200Y-179828628D01*
X184625771Y-179900057D01*
X184482914Y-179971485D01*
X183911485Y-179971485D01*
X185411485Y-179685771D02*
X185411485Y-180685771D01*
X185411485Y-179828628D02*
X185482914Y-179757200D01*
X185625771Y-179685771D01*
X185840057Y-179685771D01*
X185982914Y-179757200D01*
X186054342Y-179900057D01*
X186054342Y-180685771D01*
X186768628Y-180685771D02*
X186768628Y-179185771D01*
X187340057Y-179185771D01*
X187482914Y-179257200D01*
X187554342Y-179328628D01*
X187625771Y-179471485D01*
X187625771Y-179685771D01*
X187554342Y-179828628D01*
X187482914Y-179900057D01*
X187340057Y-179971485D01*
X186768628Y-179971485D01*
D10*
D11*
X197002200Y-191507200D02*
X197002200Y-194507200D01*
D10*
D11*
X261002200Y-191507200D02*
X261002200Y-198007200D01*
D14*
G04 #@! TO.C,RN20*
X129906066Y-83598959D03*
D10*
G36*
X129941421Y-83280761D02*
X130224264Y-83563604D01*
X129870711Y-83917157D01*
X129587868Y-83634314D01*
X129941421Y-83280761D01*
X129941421Y-83280761D01*
G37*
D14*
X130401041Y-84093934D03*
D10*
G36*
X130436396Y-83775736D02*
X130719239Y-84058579D01*
X130365686Y-84412132D01*
X130082843Y-84129289D01*
X130436396Y-83775736D01*
X130436396Y-83775736D01*
G37*
D14*
X129693934Y-84801041D03*
D10*
G36*
X129729289Y-84482843D02*
X130012132Y-84765686D01*
X129658579Y-85119239D01*
X129375736Y-84836396D01*
X129729289Y-84482843D01*
X129729289Y-84482843D01*
G37*
D14*
X129198959Y-84306066D03*
D10*
G36*
X129234314Y-83987868D02*
X129517157Y-84270711D01*
X129163604Y-84624264D01*
X128880761Y-84341421D01*
X129234314Y-83987868D01*
X129234314Y-83987868D01*
G37*
G04 #@! TD*
G04 #@! TO.C,C33*
G36*
X133367691Y-84226053D02*
X133388926Y-84229203D01*
X133409750Y-84234419D01*
X133429962Y-84241651D01*
X133449368Y-84250830D01*
X133467781Y-84261866D01*
X133485024Y-84274654D01*
X133500930Y-84289070D01*
X133515346Y-84304976D01*
X133528134Y-84322219D01*
X133539170Y-84340632D01*
X133548349Y-84360038D01*
X133555581Y-84380250D01*
X133560797Y-84401074D01*
X133563947Y-84422309D01*
X133565000Y-84443750D01*
X133565000Y-84956250D01*
X133563947Y-84977691D01*
X133560797Y-84998926D01*
X133555581Y-85019750D01*
X133548349Y-85039962D01*
X133539170Y-85059368D01*
X133528134Y-85077781D01*
X133515346Y-85095024D01*
X133500930Y-85110930D01*
X133485024Y-85125346D01*
X133467781Y-85138134D01*
X133449368Y-85149170D01*
X133429962Y-85158349D01*
X133409750Y-85165581D01*
X133388926Y-85170797D01*
X133367691Y-85173947D01*
X133346250Y-85175000D01*
X132908750Y-85175000D01*
X132887309Y-85173947D01*
X132866074Y-85170797D01*
X132845250Y-85165581D01*
X132825038Y-85158349D01*
X132805632Y-85149170D01*
X132787219Y-85138134D01*
X132769976Y-85125346D01*
X132754070Y-85110930D01*
X132739654Y-85095024D01*
X132726866Y-85077781D01*
X132715830Y-85059368D01*
X132706651Y-85039962D01*
X132699419Y-85019750D01*
X132694203Y-84998926D01*
X132691053Y-84977691D01*
X132690000Y-84956250D01*
X132690000Y-84443750D01*
X132691053Y-84422309D01*
X132694203Y-84401074D01*
X132699419Y-84380250D01*
X132706651Y-84360038D01*
X132715830Y-84340632D01*
X132726866Y-84322219D01*
X132739654Y-84304976D01*
X132754070Y-84289070D01*
X132769976Y-84274654D01*
X132787219Y-84261866D01*
X132805632Y-84250830D01*
X132825038Y-84241651D01*
X132845250Y-84234419D01*
X132866074Y-84229203D01*
X132887309Y-84226053D01*
X132908750Y-84225000D01*
X133346250Y-84225000D01*
X133367691Y-84226053D01*
X133367691Y-84226053D01*
G37*
D15*
X133127500Y-84700000D03*
D10*
G36*
X134942691Y-84226053D02*
X134963926Y-84229203D01*
X134984750Y-84234419D01*
X135004962Y-84241651D01*
X135024368Y-84250830D01*
X135042781Y-84261866D01*
X135060024Y-84274654D01*
X135075930Y-84289070D01*
X135090346Y-84304976D01*
X135103134Y-84322219D01*
X135114170Y-84340632D01*
X135123349Y-84360038D01*
X135130581Y-84380250D01*
X135135797Y-84401074D01*
X135138947Y-84422309D01*
X135140000Y-84443750D01*
X135140000Y-84956250D01*
X135138947Y-84977691D01*
X135135797Y-84998926D01*
X135130581Y-85019750D01*
X135123349Y-85039962D01*
X135114170Y-85059368D01*
X135103134Y-85077781D01*
X135090346Y-85095024D01*
X135075930Y-85110930D01*
X135060024Y-85125346D01*
X135042781Y-85138134D01*
X135024368Y-85149170D01*
X135004962Y-85158349D01*
X134984750Y-85165581D01*
X134963926Y-85170797D01*
X134942691Y-85173947D01*
X134921250Y-85175000D01*
X134483750Y-85175000D01*
X134462309Y-85173947D01*
X134441074Y-85170797D01*
X134420250Y-85165581D01*
X134400038Y-85158349D01*
X134380632Y-85149170D01*
X134362219Y-85138134D01*
X134344976Y-85125346D01*
X134329070Y-85110930D01*
X134314654Y-85095024D01*
X134301866Y-85077781D01*
X134290830Y-85059368D01*
X134281651Y-85039962D01*
X134274419Y-85019750D01*
X134269203Y-84998926D01*
X134266053Y-84977691D01*
X134265000Y-84956250D01*
X134265000Y-84443750D01*
X134266053Y-84422309D01*
X134269203Y-84401074D01*
X134274419Y-84380250D01*
X134281651Y-84360038D01*
X134290830Y-84340632D01*
X134301866Y-84322219D01*
X134314654Y-84304976D01*
X134329070Y-84289070D01*
X134344976Y-84274654D01*
X134362219Y-84261866D01*
X134380632Y-84250830D01*
X134400038Y-84241651D01*
X134420250Y-84234419D01*
X134441074Y-84229203D01*
X134462309Y-84226053D01*
X134483750Y-84225000D01*
X134921250Y-84225000D01*
X134942691Y-84226053D01*
X134942691Y-84226053D01*
G37*
D15*
X134702500Y-84700000D03*
G04 #@! TD*
D10*
G04 #@! TO.C,C20*
G36*
X121835779Y-80726144D02*
X121858834Y-80729563D01*
X121881443Y-80735227D01*
X121903387Y-80743079D01*
X121924457Y-80753044D01*
X121944448Y-80765026D01*
X121963168Y-80778910D01*
X121980438Y-80794562D01*
X121996090Y-80811832D01*
X122009974Y-80830552D01*
X122021956Y-80850543D01*
X122031921Y-80871613D01*
X122039773Y-80893557D01*
X122045437Y-80916166D01*
X122048856Y-80939221D01*
X122050000Y-80962500D01*
X122050000Y-81437500D01*
X122048856Y-81460779D01*
X122045437Y-81483834D01*
X122039773Y-81506443D01*
X122031921Y-81528387D01*
X122021956Y-81549457D01*
X122009974Y-81569448D01*
X121996090Y-81588168D01*
X121980438Y-81605438D01*
X121963168Y-81621090D01*
X121944448Y-81634974D01*
X121924457Y-81646956D01*
X121903387Y-81656921D01*
X121881443Y-81664773D01*
X121858834Y-81670437D01*
X121835779Y-81673856D01*
X121812500Y-81675000D01*
X121237500Y-81675000D01*
X121214221Y-81673856D01*
X121191166Y-81670437D01*
X121168557Y-81664773D01*
X121146613Y-81656921D01*
X121125543Y-81646956D01*
X121105552Y-81634974D01*
X121086832Y-81621090D01*
X121069562Y-81605438D01*
X121053910Y-81588168D01*
X121040026Y-81569448D01*
X121028044Y-81549457D01*
X121018079Y-81528387D01*
X121010227Y-81506443D01*
X121004563Y-81483834D01*
X121001144Y-81460779D01*
X121000000Y-81437500D01*
X121000000Y-80962500D01*
X121001144Y-80939221D01*
X121004563Y-80916166D01*
X121010227Y-80893557D01*
X121018079Y-80871613D01*
X121028044Y-80850543D01*
X121040026Y-80830552D01*
X121053910Y-80811832D01*
X121069562Y-80794562D01*
X121086832Y-80778910D01*
X121105552Y-80765026D01*
X121125543Y-80753044D01*
X121146613Y-80743079D01*
X121168557Y-80735227D01*
X121191166Y-80729563D01*
X121214221Y-80726144D01*
X121237500Y-80725000D01*
X121812500Y-80725000D01*
X121835779Y-80726144D01*
X121835779Y-80726144D01*
G37*
D16*
X121525000Y-81200000D03*
D10*
G36*
X123585779Y-80726144D02*
X123608834Y-80729563D01*
X123631443Y-80735227D01*
X123653387Y-80743079D01*
X123674457Y-80753044D01*
X123694448Y-80765026D01*
X123713168Y-80778910D01*
X123730438Y-80794562D01*
X123746090Y-80811832D01*
X123759974Y-80830552D01*
X123771956Y-80850543D01*
X123781921Y-80871613D01*
X123789773Y-80893557D01*
X123795437Y-80916166D01*
X123798856Y-80939221D01*
X123800000Y-80962500D01*
X123800000Y-81437500D01*
X123798856Y-81460779D01*
X123795437Y-81483834D01*
X123789773Y-81506443D01*
X123781921Y-81528387D01*
X123771956Y-81549457D01*
X123759974Y-81569448D01*
X123746090Y-81588168D01*
X123730438Y-81605438D01*
X123713168Y-81621090D01*
X123694448Y-81634974D01*
X123674457Y-81646956D01*
X123653387Y-81656921D01*
X123631443Y-81664773D01*
X123608834Y-81670437D01*
X123585779Y-81673856D01*
X123562500Y-81675000D01*
X122987500Y-81675000D01*
X122964221Y-81673856D01*
X122941166Y-81670437D01*
X122918557Y-81664773D01*
X122896613Y-81656921D01*
X122875543Y-81646956D01*
X122855552Y-81634974D01*
X122836832Y-81621090D01*
X122819562Y-81605438D01*
X122803910Y-81588168D01*
X122790026Y-81569448D01*
X122778044Y-81549457D01*
X122768079Y-81528387D01*
X122760227Y-81506443D01*
X122754563Y-81483834D01*
X122751144Y-81460779D01*
X122750000Y-81437500D01*
X122750000Y-80962500D01*
X122751144Y-80939221D01*
X122754563Y-80916166D01*
X122760227Y-80893557D01*
X122768079Y-80871613D01*
X122778044Y-80850543D01*
X122790026Y-80830552D01*
X122803910Y-80811832D01*
X122819562Y-80794562D01*
X122836832Y-80778910D01*
X122855552Y-80765026D01*
X122875543Y-80753044D01*
X122896613Y-80743079D01*
X122918557Y-80735227D01*
X122941166Y-80729563D01*
X122964221Y-80726144D01*
X122987500Y-80725000D01*
X123562500Y-80725000D01*
X123585779Y-80726144D01*
X123585779Y-80726144D01*
G37*
D16*
X123275000Y-81200000D03*
G04 #@! TD*
D10*
G04 #@! TO.C,C18*
G36*
X127686958Y-92920710D02*
X127701276Y-92922834D01*
X127715317Y-92926351D01*
X127728946Y-92931228D01*
X127742031Y-92937417D01*
X127754447Y-92944858D01*
X127766073Y-92953481D01*
X127776798Y-92963202D01*
X127786519Y-92973927D01*
X127795142Y-92985553D01*
X127802583Y-92997969D01*
X127808772Y-93011054D01*
X127813649Y-93024683D01*
X127817166Y-93038724D01*
X127819290Y-93053042D01*
X127820000Y-93067500D01*
X127820000Y-93362500D01*
X127819290Y-93376958D01*
X127817166Y-93391276D01*
X127813649Y-93405317D01*
X127808772Y-93418946D01*
X127802583Y-93432031D01*
X127795142Y-93444447D01*
X127786519Y-93456073D01*
X127776798Y-93466798D01*
X127766073Y-93476519D01*
X127754447Y-93485142D01*
X127742031Y-93492583D01*
X127728946Y-93498772D01*
X127715317Y-93503649D01*
X127701276Y-93507166D01*
X127686958Y-93509290D01*
X127672500Y-93510000D01*
X127327500Y-93510000D01*
X127313042Y-93509290D01*
X127298724Y-93507166D01*
X127284683Y-93503649D01*
X127271054Y-93498772D01*
X127257969Y-93492583D01*
X127245553Y-93485142D01*
X127233927Y-93476519D01*
X127223202Y-93466798D01*
X127213481Y-93456073D01*
X127204858Y-93444447D01*
X127197417Y-93432031D01*
X127191228Y-93418946D01*
X127186351Y-93405317D01*
X127182834Y-93391276D01*
X127180710Y-93376958D01*
X127180000Y-93362500D01*
X127180000Y-93067500D01*
X127180710Y-93053042D01*
X127182834Y-93038724D01*
X127186351Y-93024683D01*
X127191228Y-93011054D01*
X127197417Y-92997969D01*
X127204858Y-92985553D01*
X127213481Y-92973927D01*
X127223202Y-92963202D01*
X127233927Y-92953481D01*
X127245553Y-92944858D01*
X127257969Y-92937417D01*
X127271054Y-92931228D01*
X127284683Y-92926351D01*
X127298724Y-92922834D01*
X127313042Y-92920710D01*
X127327500Y-92920000D01*
X127672500Y-92920000D01*
X127686958Y-92920710D01*
X127686958Y-92920710D01*
G37*
D17*
X127500000Y-93215000D03*
D10*
G36*
X127686958Y-93890710D02*
X127701276Y-93892834D01*
X127715317Y-93896351D01*
X127728946Y-93901228D01*
X127742031Y-93907417D01*
X127754447Y-93914858D01*
X127766073Y-93923481D01*
X127776798Y-93933202D01*
X127786519Y-93943927D01*
X127795142Y-93955553D01*
X127802583Y-93967969D01*
X127808772Y-93981054D01*
X127813649Y-93994683D01*
X127817166Y-94008724D01*
X127819290Y-94023042D01*
X127820000Y-94037500D01*
X127820000Y-94332500D01*
X127819290Y-94346958D01*
X127817166Y-94361276D01*
X127813649Y-94375317D01*
X127808772Y-94388946D01*
X127802583Y-94402031D01*
X127795142Y-94414447D01*
X127786519Y-94426073D01*
X127776798Y-94436798D01*
X127766073Y-94446519D01*
X127754447Y-94455142D01*
X127742031Y-94462583D01*
X127728946Y-94468772D01*
X127715317Y-94473649D01*
X127701276Y-94477166D01*
X127686958Y-94479290D01*
X127672500Y-94480000D01*
X127327500Y-94480000D01*
X127313042Y-94479290D01*
X127298724Y-94477166D01*
X127284683Y-94473649D01*
X127271054Y-94468772D01*
X127257969Y-94462583D01*
X127245553Y-94455142D01*
X127233927Y-94446519D01*
X127223202Y-94436798D01*
X127213481Y-94426073D01*
X127204858Y-94414447D01*
X127197417Y-94402031D01*
X127191228Y-94388946D01*
X127186351Y-94375317D01*
X127182834Y-94361276D01*
X127180710Y-94346958D01*
X127180000Y-94332500D01*
X127180000Y-94037500D01*
X127180710Y-94023042D01*
X127182834Y-94008724D01*
X127186351Y-93994683D01*
X127191228Y-93981054D01*
X127197417Y-93967969D01*
X127204858Y-93955553D01*
X127213481Y-93943927D01*
X127223202Y-93933202D01*
X127233927Y-93923481D01*
X127245553Y-93914858D01*
X127257969Y-93907417D01*
X127271054Y-93901228D01*
X127284683Y-93896351D01*
X127298724Y-93892834D01*
X127313042Y-93890710D01*
X127327500Y-93890000D01*
X127672500Y-93890000D01*
X127686958Y-93890710D01*
X127686958Y-93890710D01*
G37*
D17*
X127500000Y-94185000D03*
G04 #@! TD*
D10*
G04 #@! TO.C,C21*
G36*
X130931958Y-91680710D02*
X130946276Y-91682834D01*
X130960317Y-91686351D01*
X130973946Y-91691228D01*
X130987031Y-91697417D01*
X130999447Y-91704858D01*
X131011073Y-91713481D01*
X131021798Y-91723202D01*
X131031519Y-91733927D01*
X131040142Y-91745553D01*
X131047583Y-91757969D01*
X131053772Y-91771054D01*
X131058649Y-91784683D01*
X131062166Y-91798724D01*
X131064290Y-91813042D01*
X131065000Y-91827500D01*
X131065000Y-92172500D01*
X131064290Y-92186958D01*
X131062166Y-92201276D01*
X131058649Y-92215317D01*
X131053772Y-92228946D01*
X131047583Y-92242031D01*
X131040142Y-92254447D01*
X131031519Y-92266073D01*
X131021798Y-92276798D01*
X131011073Y-92286519D01*
X130999447Y-92295142D01*
X130987031Y-92302583D01*
X130973946Y-92308772D01*
X130960317Y-92313649D01*
X130946276Y-92317166D01*
X130931958Y-92319290D01*
X130917500Y-92320000D01*
X130622500Y-92320000D01*
X130608042Y-92319290D01*
X130593724Y-92317166D01*
X130579683Y-92313649D01*
X130566054Y-92308772D01*
X130552969Y-92302583D01*
X130540553Y-92295142D01*
X130528927Y-92286519D01*
X130518202Y-92276798D01*
X130508481Y-92266073D01*
X130499858Y-92254447D01*
X130492417Y-92242031D01*
X130486228Y-92228946D01*
X130481351Y-92215317D01*
X130477834Y-92201276D01*
X130475710Y-92186958D01*
X130475000Y-92172500D01*
X130475000Y-91827500D01*
X130475710Y-91813042D01*
X130477834Y-91798724D01*
X130481351Y-91784683D01*
X130486228Y-91771054D01*
X130492417Y-91757969D01*
X130499858Y-91745553D01*
X130508481Y-91733927D01*
X130518202Y-91723202D01*
X130528927Y-91713481D01*
X130540553Y-91704858D01*
X130552969Y-91697417D01*
X130566054Y-91691228D01*
X130579683Y-91686351D01*
X130593724Y-91682834D01*
X130608042Y-91680710D01*
X130622500Y-91680000D01*
X130917500Y-91680000D01*
X130931958Y-91680710D01*
X130931958Y-91680710D01*
G37*
D17*
X130770000Y-92000000D03*
D10*
G36*
X129961958Y-91680710D02*
X129976276Y-91682834D01*
X129990317Y-91686351D01*
X130003946Y-91691228D01*
X130017031Y-91697417D01*
X130029447Y-91704858D01*
X130041073Y-91713481D01*
X130051798Y-91723202D01*
X130061519Y-91733927D01*
X130070142Y-91745553D01*
X130077583Y-91757969D01*
X130083772Y-91771054D01*
X130088649Y-91784683D01*
X130092166Y-91798724D01*
X130094290Y-91813042D01*
X130095000Y-91827500D01*
X130095000Y-92172500D01*
X130094290Y-92186958D01*
X130092166Y-92201276D01*
X130088649Y-92215317D01*
X130083772Y-92228946D01*
X130077583Y-92242031D01*
X130070142Y-92254447D01*
X130061519Y-92266073D01*
X130051798Y-92276798D01*
X130041073Y-92286519D01*
X130029447Y-92295142D01*
X130017031Y-92302583D01*
X130003946Y-92308772D01*
X129990317Y-92313649D01*
X129976276Y-92317166D01*
X129961958Y-92319290D01*
X129947500Y-92320000D01*
X129652500Y-92320000D01*
X129638042Y-92319290D01*
X129623724Y-92317166D01*
X129609683Y-92313649D01*
X129596054Y-92308772D01*
X129582969Y-92302583D01*
X129570553Y-92295142D01*
X129558927Y-92286519D01*
X129548202Y-92276798D01*
X129538481Y-92266073D01*
X129529858Y-92254447D01*
X129522417Y-92242031D01*
X129516228Y-92228946D01*
X129511351Y-92215317D01*
X129507834Y-92201276D01*
X129505710Y-92186958D01*
X129505000Y-92172500D01*
X129505000Y-91827500D01*
X129505710Y-91813042D01*
X129507834Y-91798724D01*
X129511351Y-91784683D01*
X129516228Y-91771054D01*
X129522417Y-91757969D01*
X129529858Y-91745553D01*
X129538481Y-91733927D01*
X129548202Y-91723202D01*
X129558927Y-91713481D01*
X129570553Y-91704858D01*
X129582969Y-91697417D01*
X129596054Y-91691228D01*
X129609683Y-91686351D01*
X129623724Y-91682834D01*
X129638042Y-91680710D01*
X129652500Y-91680000D01*
X129947500Y-91680000D01*
X129961958Y-91680710D01*
X129961958Y-91680710D01*
G37*
D17*
X129800000Y-92000000D03*
G04 #@! TD*
D10*
G04 #@! TO.C,C25*
G36*
X129686958Y-92920710D02*
X129701276Y-92922834D01*
X129715317Y-92926351D01*
X129728946Y-92931228D01*
X129742031Y-92937417D01*
X129754447Y-92944858D01*
X129766073Y-92953481D01*
X129776798Y-92963202D01*
X129786519Y-92973927D01*
X129795142Y-92985553D01*
X129802583Y-92997969D01*
X129808772Y-93011054D01*
X129813649Y-93024683D01*
X129817166Y-93038724D01*
X129819290Y-93053042D01*
X129820000Y-93067500D01*
X129820000Y-93362500D01*
X129819290Y-93376958D01*
X129817166Y-93391276D01*
X129813649Y-93405317D01*
X129808772Y-93418946D01*
X129802583Y-93432031D01*
X129795142Y-93444447D01*
X129786519Y-93456073D01*
X129776798Y-93466798D01*
X129766073Y-93476519D01*
X129754447Y-93485142D01*
X129742031Y-93492583D01*
X129728946Y-93498772D01*
X129715317Y-93503649D01*
X129701276Y-93507166D01*
X129686958Y-93509290D01*
X129672500Y-93510000D01*
X129327500Y-93510000D01*
X129313042Y-93509290D01*
X129298724Y-93507166D01*
X129284683Y-93503649D01*
X129271054Y-93498772D01*
X129257969Y-93492583D01*
X129245553Y-93485142D01*
X129233927Y-93476519D01*
X129223202Y-93466798D01*
X129213481Y-93456073D01*
X129204858Y-93444447D01*
X129197417Y-93432031D01*
X129191228Y-93418946D01*
X129186351Y-93405317D01*
X129182834Y-93391276D01*
X129180710Y-93376958D01*
X129180000Y-93362500D01*
X129180000Y-93067500D01*
X129180710Y-93053042D01*
X129182834Y-93038724D01*
X129186351Y-93024683D01*
X129191228Y-93011054D01*
X129197417Y-92997969D01*
X129204858Y-92985553D01*
X129213481Y-92973927D01*
X129223202Y-92963202D01*
X129233927Y-92953481D01*
X129245553Y-92944858D01*
X129257969Y-92937417D01*
X129271054Y-92931228D01*
X129284683Y-92926351D01*
X129298724Y-92922834D01*
X129313042Y-92920710D01*
X129327500Y-92920000D01*
X129672500Y-92920000D01*
X129686958Y-92920710D01*
X129686958Y-92920710D01*
G37*
D17*
X129500000Y-93215000D03*
D10*
G36*
X129686958Y-93890710D02*
X129701276Y-93892834D01*
X129715317Y-93896351D01*
X129728946Y-93901228D01*
X129742031Y-93907417D01*
X129754447Y-93914858D01*
X129766073Y-93923481D01*
X129776798Y-93933202D01*
X129786519Y-93943927D01*
X129795142Y-93955553D01*
X129802583Y-93967969D01*
X129808772Y-93981054D01*
X129813649Y-93994683D01*
X129817166Y-94008724D01*
X129819290Y-94023042D01*
X129820000Y-94037500D01*
X129820000Y-94332500D01*
X129819290Y-94346958D01*
X129817166Y-94361276D01*
X129813649Y-94375317D01*
X129808772Y-94388946D01*
X129802583Y-94402031D01*
X129795142Y-94414447D01*
X129786519Y-94426073D01*
X129776798Y-94436798D01*
X129766073Y-94446519D01*
X129754447Y-94455142D01*
X129742031Y-94462583D01*
X129728946Y-94468772D01*
X129715317Y-94473649D01*
X129701276Y-94477166D01*
X129686958Y-94479290D01*
X129672500Y-94480000D01*
X129327500Y-94480000D01*
X129313042Y-94479290D01*
X129298724Y-94477166D01*
X129284683Y-94473649D01*
X129271054Y-94468772D01*
X129257969Y-94462583D01*
X129245553Y-94455142D01*
X129233927Y-94446519D01*
X129223202Y-94436798D01*
X129213481Y-94426073D01*
X129204858Y-94414447D01*
X129197417Y-94402031D01*
X129191228Y-94388946D01*
X129186351Y-94375317D01*
X129182834Y-94361276D01*
X129180710Y-94346958D01*
X129180000Y-94332500D01*
X129180000Y-94037500D01*
X129180710Y-94023042D01*
X129182834Y-94008724D01*
X129186351Y-93994683D01*
X129191228Y-93981054D01*
X129197417Y-93967969D01*
X129204858Y-93955553D01*
X129213481Y-93943927D01*
X129223202Y-93933202D01*
X129233927Y-93923481D01*
X129245553Y-93914858D01*
X129257969Y-93907417D01*
X129271054Y-93901228D01*
X129284683Y-93896351D01*
X129298724Y-93892834D01*
X129313042Y-93890710D01*
X129327500Y-93890000D01*
X129672500Y-93890000D01*
X129686958Y-93890710D01*
X129686958Y-93890710D01*
G37*
D17*
X129500000Y-94185000D03*
G04 #@! TD*
D10*
G04 #@! TO.C,C26*
G36*
X126391958Y-91680710D02*
X126406276Y-91682834D01*
X126420317Y-91686351D01*
X126433946Y-91691228D01*
X126447031Y-91697417D01*
X126459447Y-91704858D01*
X126471073Y-91713481D01*
X126481798Y-91723202D01*
X126491519Y-91733927D01*
X126500142Y-91745553D01*
X126507583Y-91757969D01*
X126513772Y-91771054D01*
X126518649Y-91784683D01*
X126522166Y-91798724D01*
X126524290Y-91813042D01*
X126525000Y-91827500D01*
X126525000Y-92172500D01*
X126524290Y-92186958D01*
X126522166Y-92201276D01*
X126518649Y-92215317D01*
X126513772Y-92228946D01*
X126507583Y-92242031D01*
X126500142Y-92254447D01*
X126491519Y-92266073D01*
X126481798Y-92276798D01*
X126471073Y-92286519D01*
X126459447Y-92295142D01*
X126447031Y-92302583D01*
X126433946Y-92308772D01*
X126420317Y-92313649D01*
X126406276Y-92317166D01*
X126391958Y-92319290D01*
X126377500Y-92320000D01*
X126082500Y-92320000D01*
X126068042Y-92319290D01*
X126053724Y-92317166D01*
X126039683Y-92313649D01*
X126026054Y-92308772D01*
X126012969Y-92302583D01*
X126000553Y-92295142D01*
X125988927Y-92286519D01*
X125978202Y-92276798D01*
X125968481Y-92266073D01*
X125959858Y-92254447D01*
X125952417Y-92242031D01*
X125946228Y-92228946D01*
X125941351Y-92215317D01*
X125937834Y-92201276D01*
X125935710Y-92186958D01*
X125935000Y-92172500D01*
X125935000Y-91827500D01*
X125935710Y-91813042D01*
X125937834Y-91798724D01*
X125941351Y-91784683D01*
X125946228Y-91771054D01*
X125952417Y-91757969D01*
X125959858Y-91745553D01*
X125968481Y-91733927D01*
X125978202Y-91723202D01*
X125988927Y-91713481D01*
X126000553Y-91704858D01*
X126012969Y-91697417D01*
X126026054Y-91691228D01*
X126039683Y-91686351D01*
X126053724Y-91682834D01*
X126068042Y-91680710D01*
X126082500Y-91680000D01*
X126377500Y-91680000D01*
X126391958Y-91680710D01*
X126391958Y-91680710D01*
G37*
D17*
X126230000Y-92000000D03*
D10*
G36*
X127361958Y-91680710D02*
X127376276Y-91682834D01*
X127390317Y-91686351D01*
X127403946Y-91691228D01*
X127417031Y-91697417D01*
X127429447Y-91704858D01*
X127441073Y-91713481D01*
X127451798Y-91723202D01*
X127461519Y-91733927D01*
X127470142Y-91745553D01*
X127477583Y-91757969D01*
X127483772Y-91771054D01*
X127488649Y-91784683D01*
X127492166Y-91798724D01*
X127494290Y-91813042D01*
X127495000Y-91827500D01*
X127495000Y-92172500D01*
X127494290Y-92186958D01*
X127492166Y-92201276D01*
X127488649Y-92215317D01*
X127483772Y-92228946D01*
X127477583Y-92242031D01*
X127470142Y-92254447D01*
X127461519Y-92266073D01*
X127451798Y-92276798D01*
X127441073Y-92286519D01*
X127429447Y-92295142D01*
X127417031Y-92302583D01*
X127403946Y-92308772D01*
X127390317Y-92313649D01*
X127376276Y-92317166D01*
X127361958Y-92319290D01*
X127347500Y-92320000D01*
X127052500Y-92320000D01*
X127038042Y-92319290D01*
X127023724Y-92317166D01*
X127009683Y-92313649D01*
X126996054Y-92308772D01*
X126982969Y-92302583D01*
X126970553Y-92295142D01*
X126958927Y-92286519D01*
X126948202Y-92276798D01*
X126938481Y-92266073D01*
X126929858Y-92254447D01*
X126922417Y-92242031D01*
X126916228Y-92228946D01*
X126911351Y-92215317D01*
X126907834Y-92201276D01*
X126905710Y-92186958D01*
X126905000Y-92172500D01*
X126905000Y-91827500D01*
X126905710Y-91813042D01*
X126907834Y-91798724D01*
X126911351Y-91784683D01*
X126916228Y-91771054D01*
X126922417Y-91757969D01*
X126929858Y-91745553D01*
X126938481Y-91733927D01*
X126948202Y-91723202D01*
X126958927Y-91713481D01*
X126970553Y-91704858D01*
X126982969Y-91697417D01*
X126996054Y-91691228D01*
X127009683Y-91686351D01*
X127023724Y-91682834D01*
X127038042Y-91680710D01*
X127052500Y-91680000D01*
X127347500Y-91680000D01*
X127361958Y-91680710D01*
X127361958Y-91680710D01*
G37*
D17*
X127200000Y-92000000D03*
G04 #@! TD*
D10*
G04 #@! TO.C,C23*
G36*
X127686958Y-89520710D02*
X127701276Y-89522834D01*
X127715317Y-89526351D01*
X127728946Y-89531228D01*
X127742031Y-89537417D01*
X127754447Y-89544858D01*
X127766073Y-89553481D01*
X127776798Y-89563202D01*
X127786519Y-89573927D01*
X127795142Y-89585553D01*
X127802583Y-89597969D01*
X127808772Y-89611054D01*
X127813649Y-89624683D01*
X127817166Y-89638724D01*
X127819290Y-89653042D01*
X127820000Y-89667500D01*
X127820000Y-89962500D01*
X127819290Y-89976958D01*
X127817166Y-89991276D01*
X127813649Y-90005317D01*
X127808772Y-90018946D01*
X127802583Y-90032031D01*
X127795142Y-90044447D01*
X127786519Y-90056073D01*
X127776798Y-90066798D01*
X127766073Y-90076519D01*
X127754447Y-90085142D01*
X127742031Y-90092583D01*
X127728946Y-90098772D01*
X127715317Y-90103649D01*
X127701276Y-90107166D01*
X127686958Y-90109290D01*
X127672500Y-90110000D01*
X127327500Y-90110000D01*
X127313042Y-90109290D01*
X127298724Y-90107166D01*
X127284683Y-90103649D01*
X127271054Y-90098772D01*
X127257969Y-90092583D01*
X127245553Y-90085142D01*
X127233927Y-90076519D01*
X127223202Y-90066798D01*
X127213481Y-90056073D01*
X127204858Y-90044447D01*
X127197417Y-90032031D01*
X127191228Y-90018946D01*
X127186351Y-90005317D01*
X127182834Y-89991276D01*
X127180710Y-89976958D01*
X127180000Y-89962500D01*
X127180000Y-89667500D01*
X127180710Y-89653042D01*
X127182834Y-89638724D01*
X127186351Y-89624683D01*
X127191228Y-89611054D01*
X127197417Y-89597969D01*
X127204858Y-89585553D01*
X127213481Y-89573927D01*
X127223202Y-89563202D01*
X127233927Y-89553481D01*
X127245553Y-89544858D01*
X127257969Y-89537417D01*
X127271054Y-89531228D01*
X127284683Y-89526351D01*
X127298724Y-89522834D01*
X127313042Y-89520710D01*
X127327500Y-89520000D01*
X127672500Y-89520000D01*
X127686958Y-89520710D01*
X127686958Y-89520710D01*
G37*
D17*
X127500000Y-89815000D03*
D10*
G36*
X127686958Y-90490710D02*
X127701276Y-90492834D01*
X127715317Y-90496351D01*
X127728946Y-90501228D01*
X127742031Y-90507417D01*
X127754447Y-90514858D01*
X127766073Y-90523481D01*
X127776798Y-90533202D01*
X127786519Y-90543927D01*
X127795142Y-90555553D01*
X127802583Y-90567969D01*
X127808772Y-90581054D01*
X127813649Y-90594683D01*
X127817166Y-90608724D01*
X127819290Y-90623042D01*
X127820000Y-90637500D01*
X127820000Y-90932500D01*
X127819290Y-90946958D01*
X127817166Y-90961276D01*
X127813649Y-90975317D01*
X127808772Y-90988946D01*
X127802583Y-91002031D01*
X127795142Y-91014447D01*
X127786519Y-91026073D01*
X127776798Y-91036798D01*
X127766073Y-91046519D01*
X127754447Y-91055142D01*
X127742031Y-91062583D01*
X127728946Y-91068772D01*
X127715317Y-91073649D01*
X127701276Y-91077166D01*
X127686958Y-91079290D01*
X127672500Y-91080000D01*
X127327500Y-91080000D01*
X127313042Y-91079290D01*
X127298724Y-91077166D01*
X127284683Y-91073649D01*
X127271054Y-91068772D01*
X127257969Y-91062583D01*
X127245553Y-91055142D01*
X127233927Y-91046519D01*
X127223202Y-91036798D01*
X127213481Y-91026073D01*
X127204858Y-91014447D01*
X127197417Y-91002031D01*
X127191228Y-90988946D01*
X127186351Y-90975317D01*
X127182834Y-90961276D01*
X127180710Y-90946958D01*
X127180000Y-90932500D01*
X127180000Y-90637500D01*
X127180710Y-90623042D01*
X127182834Y-90608724D01*
X127186351Y-90594683D01*
X127191228Y-90581054D01*
X127197417Y-90567969D01*
X127204858Y-90555553D01*
X127213481Y-90543927D01*
X127223202Y-90533202D01*
X127233927Y-90523481D01*
X127245553Y-90514858D01*
X127257969Y-90507417D01*
X127271054Y-90501228D01*
X127284683Y-90496351D01*
X127298724Y-90492834D01*
X127313042Y-90490710D01*
X127327500Y-90490000D01*
X127672500Y-90490000D01*
X127686958Y-90490710D01*
X127686958Y-90490710D01*
G37*
D17*
X127500000Y-90785000D03*
G04 #@! TD*
D10*
G04 #@! TO.C,C16*
G36*
X129686958Y-89535710D02*
X129701276Y-89537834D01*
X129715317Y-89541351D01*
X129728946Y-89546228D01*
X129742031Y-89552417D01*
X129754447Y-89559858D01*
X129766073Y-89568481D01*
X129776798Y-89578202D01*
X129786519Y-89588927D01*
X129795142Y-89600553D01*
X129802583Y-89612969D01*
X129808772Y-89626054D01*
X129813649Y-89639683D01*
X129817166Y-89653724D01*
X129819290Y-89668042D01*
X129820000Y-89682500D01*
X129820000Y-89977500D01*
X129819290Y-89991958D01*
X129817166Y-90006276D01*
X129813649Y-90020317D01*
X129808772Y-90033946D01*
X129802583Y-90047031D01*
X129795142Y-90059447D01*
X129786519Y-90071073D01*
X129776798Y-90081798D01*
X129766073Y-90091519D01*
X129754447Y-90100142D01*
X129742031Y-90107583D01*
X129728946Y-90113772D01*
X129715317Y-90118649D01*
X129701276Y-90122166D01*
X129686958Y-90124290D01*
X129672500Y-90125000D01*
X129327500Y-90125000D01*
X129313042Y-90124290D01*
X129298724Y-90122166D01*
X129284683Y-90118649D01*
X129271054Y-90113772D01*
X129257969Y-90107583D01*
X129245553Y-90100142D01*
X129233927Y-90091519D01*
X129223202Y-90081798D01*
X129213481Y-90071073D01*
X129204858Y-90059447D01*
X129197417Y-90047031D01*
X129191228Y-90033946D01*
X129186351Y-90020317D01*
X129182834Y-90006276D01*
X129180710Y-89991958D01*
X129180000Y-89977500D01*
X129180000Y-89682500D01*
X129180710Y-89668042D01*
X129182834Y-89653724D01*
X129186351Y-89639683D01*
X129191228Y-89626054D01*
X129197417Y-89612969D01*
X129204858Y-89600553D01*
X129213481Y-89588927D01*
X129223202Y-89578202D01*
X129233927Y-89568481D01*
X129245553Y-89559858D01*
X129257969Y-89552417D01*
X129271054Y-89546228D01*
X129284683Y-89541351D01*
X129298724Y-89537834D01*
X129313042Y-89535710D01*
X129327500Y-89535000D01*
X129672500Y-89535000D01*
X129686958Y-89535710D01*
X129686958Y-89535710D01*
G37*
D17*
X129500000Y-89830000D03*
D10*
G36*
X129686958Y-90505710D02*
X129701276Y-90507834D01*
X129715317Y-90511351D01*
X129728946Y-90516228D01*
X129742031Y-90522417D01*
X129754447Y-90529858D01*
X129766073Y-90538481D01*
X129776798Y-90548202D01*
X129786519Y-90558927D01*
X129795142Y-90570553D01*
X129802583Y-90582969D01*
X129808772Y-90596054D01*
X129813649Y-90609683D01*
X129817166Y-90623724D01*
X129819290Y-90638042D01*
X129820000Y-90652500D01*
X129820000Y-90947500D01*
X129819290Y-90961958D01*
X129817166Y-90976276D01*
X129813649Y-90990317D01*
X129808772Y-91003946D01*
X129802583Y-91017031D01*
X129795142Y-91029447D01*
X129786519Y-91041073D01*
X129776798Y-91051798D01*
X129766073Y-91061519D01*
X129754447Y-91070142D01*
X129742031Y-91077583D01*
X129728946Y-91083772D01*
X129715317Y-91088649D01*
X129701276Y-91092166D01*
X129686958Y-91094290D01*
X129672500Y-91095000D01*
X129327500Y-91095000D01*
X129313042Y-91094290D01*
X129298724Y-91092166D01*
X129284683Y-91088649D01*
X129271054Y-91083772D01*
X129257969Y-91077583D01*
X129245553Y-91070142D01*
X129233927Y-91061519D01*
X129223202Y-91051798D01*
X129213481Y-91041073D01*
X129204858Y-91029447D01*
X129197417Y-91017031D01*
X129191228Y-91003946D01*
X129186351Y-90990317D01*
X129182834Y-90976276D01*
X129180710Y-90961958D01*
X129180000Y-90947500D01*
X129180000Y-90652500D01*
X129180710Y-90638042D01*
X129182834Y-90623724D01*
X129186351Y-90609683D01*
X129191228Y-90596054D01*
X129197417Y-90582969D01*
X129204858Y-90570553D01*
X129213481Y-90558927D01*
X129223202Y-90548202D01*
X129233927Y-90538481D01*
X129245553Y-90529858D01*
X129257969Y-90522417D01*
X129271054Y-90516228D01*
X129284683Y-90511351D01*
X129298724Y-90507834D01*
X129313042Y-90505710D01*
X129327500Y-90505000D01*
X129672500Y-90505000D01*
X129686958Y-90505710D01*
X129686958Y-90505710D01*
G37*
D17*
X129500000Y-90800000D03*
G04 #@! TD*
D10*
G04 #@! TO.C,C9*
G36*
X153835779Y-97846144D02*
X153858834Y-97849563D01*
X153881443Y-97855227D01*
X153903387Y-97863079D01*
X153924457Y-97873044D01*
X153944448Y-97885026D01*
X153963168Y-97898910D01*
X153980438Y-97914562D01*
X153996090Y-97931832D01*
X154009974Y-97950552D01*
X154021956Y-97970543D01*
X154031921Y-97991613D01*
X154039773Y-98013557D01*
X154045437Y-98036166D01*
X154048856Y-98059221D01*
X154050000Y-98082500D01*
X154050000Y-98557500D01*
X154048856Y-98580779D01*
X154045437Y-98603834D01*
X154039773Y-98626443D01*
X154031921Y-98648387D01*
X154021956Y-98669457D01*
X154009974Y-98689448D01*
X153996090Y-98708168D01*
X153980438Y-98725438D01*
X153963168Y-98741090D01*
X153944448Y-98754974D01*
X153924457Y-98766956D01*
X153903387Y-98776921D01*
X153881443Y-98784773D01*
X153858834Y-98790437D01*
X153835779Y-98793856D01*
X153812500Y-98795000D01*
X153237500Y-98795000D01*
X153214221Y-98793856D01*
X153191166Y-98790437D01*
X153168557Y-98784773D01*
X153146613Y-98776921D01*
X153125543Y-98766956D01*
X153105552Y-98754974D01*
X153086832Y-98741090D01*
X153069562Y-98725438D01*
X153053910Y-98708168D01*
X153040026Y-98689448D01*
X153028044Y-98669457D01*
X153018079Y-98648387D01*
X153010227Y-98626443D01*
X153004563Y-98603834D01*
X153001144Y-98580779D01*
X153000000Y-98557500D01*
X153000000Y-98082500D01*
X153001144Y-98059221D01*
X153004563Y-98036166D01*
X153010227Y-98013557D01*
X153018079Y-97991613D01*
X153028044Y-97970543D01*
X153040026Y-97950552D01*
X153053910Y-97931832D01*
X153069562Y-97914562D01*
X153086832Y-97898910D01*
X153105552Y-97885026D01*
X153125543Y-97873044D01*
X153146613Y-97863079D01*
X153168557Y-97855227D01*
X153191166Y-97849563D01*
X153214221Y-97846144D01*
X153237500Y-97845000D01*
X153812500Y-97845000D01*
X153835779Y-97846144D01*
X153835779Y-97846144D01*
G37*
D16*
X153525000Y-98320000D03*
D10*
G36*
X155585779Y-97846144D02*
X155608834Y-97849563D01*
X155631443Y-97855227D01*
X155653387Y-97863079D01*
X155674457Y-97873044D01*
X155694448Y-97885026D01*
X155713168Y-97898910D01*
X155730438Y-97914562D01*
X155746090Y-97931832D01*
X155759974Y-97950552D01*
X155771956Y-97970543D01*
X155781921Y-97991613D01*
X155789773Y-98013557D01*
X155795437Y-98036166D01*
X155798856Y-98059221D01*
X155800000Y-98082500D01*
X155800000Y-98557500D01*
X155798856Y-98580779D01*
X155795437Y-98603834D01*
X155789773Y-98626443D01*
X155781921Y-98648387D01*
X155771956Y-98669457D01*
X155759974Y-98689448D01*
X155746090Y-98708168D01*
X155730438Y-98725438D01*
X155713168Y-98741090D01*
X155694448Y-98754974D01*
X155674457Y-98766956D01*
X155653387Y-98776921D01*
X155631443Y-98784773D01*
X155608834Y-98790437D01*
X155585779Y-98793856D01*
X155562500Y-98795000D01*
X154987500Y-98795000D01*
X154964221Y-98793856D01*
X154941166Y-98790437D01*
X154918557Y-98784773D01*
X154896613Y-98776921D01*
X154875543Y-98766956D01*
X154855552Y-98754974D01*
X154836832Y-98741090D01*
X154819562Y-98725438D01*
X154803910Y-98708168D01*
X154790026Y-98689448D01*
X154778044Y-98669457D01*
X154768079Y-98648387D01*
X154760227Y-98626443D01*
X154754563Y-98603834D01*
X154751144Y-98580779D01*
X154750000Y-98557500D01*
X154750000Y-98082500D01*
X154751144Y-98059221D01*
X154754563Y-98036166D01*
X154760227Y-98013557D01*
X154768079Y-97991613D01*
X154778044Y-97970543D01*
X154790026Y-97950552D01*
X154803910Y-97931832D01*
X154819562Y-97914562D01*
X154836832Y-97898910D01*
X154855552Y-97885026D01*
X154875543Y-97873044D01*
X154896613Y-97863079D01*
X154918557Y-97855227D01*
X154941166Y-97849563D01*
X154964221Y-97846144D01*
X154987500Y-97845000D01*
X155562500Y-97845000D01*
X155585779Y-97846144D01*
X155585779Y-97846144D01*
G37*
D16*
X155275000Y-98320000D03*
G04 #@! TD*
D10*
G04 #@! TO.C,C2*
G36*
X149085779Y-93146144D02*
X149108834Y-93149563D01*
X149131443Y-93155227D01*
X149153387Y-93163079D01*
X149174457Y-93173044D01*
X149194448Y-93185026D01*
X149213168Y-93198910D01*
X149230438Y-93214562D01*
X149246090Y-93231832D01*
X149259974Y-93250552D01*
X149271956Y-93270543D01*
X149281921Y-93291613D01*
X149289773Y-93313557D01*
X149295437Y-93336166D01*
X149298856Y-93359221D01*
X149300000Y-93382500D01*
X149300000Y-93857500D01*
X149298856Y-93880779D01*
X149295437Y-93903834D01*
X149289773Y-93926443D01*
X149281921Y-93948387D01*
X149271956Y-93969457D01*
X149259974Y-93989448D01*
X149246090Y-94008168D01*
X149230438Y-94025438D01*
X149213168Y-94041090D01*
X149194448Y-94054974D01*
X149174457Y-94066956D01*
X149153387Y-94076921D01*
X149131443Y-94084773D01*
X149108834Y-94090437D01*
X149085779Y-94093856D01*
X149062500Y-94095000D01*
X148487500Y-94095000D01*
X148464221Y-94093856D01*
X148441166Y-94090437D01*
X148418557Y-94084773D01*
X148396613Y-94076921D01*
X148375543Y-94066956D01*
X148355552Y-94054974D01*
X148336832Y-94041090D01*
X148319562Y-94025438D01*
X148303910Y-94008168D01*
X148290026Y-93989448D01*
X148278044Y-93969457D01*
X148268079Y-93948387D01*
X148260227Y-93926443D01*
X148254563Y-93903834D01*
X148251144Y-93880779D01*
X148250000Y-93857500D01*
X148250000Y-93382500D01*
X148251144Y-93359221D01*
X148254563Y-93336166D01*
X148260227Y-93313557D01*
X148268079Y-93291613D01*
X148278044Y-93270543D01*
X148290026Y-93250552D01*
X148303910Y-93231832D01*
X148319562Y-93214562D01*
X148336832Y-93198910D01*
X148355552Y-93185026D01*
X148375543Y-93173044D01*
X148396613Y-93163079D01*
X148418557Y-93155227D01*
X148441166Y-93149563D01*
X148464221Y-93146144D01*
X148487500Y-93145000D01*
X149062500Y-93145000D01*
X149085779Y-93146144D01*
X149085779Y-93146144D01*
G37*
D16*
X148775000Y-93620000D03*
D10*
G36*
X147335779Y-93146144D02*
X147358834Y-93149563D01*
X147381443Y-93155227D01*
X147403387Y-93163079D01*
X147424457Y-93173044D01*
X147444448Y-93185026D01*
X147463168Y-93198910D01*
X147480438Y-93214562D01*
X147496090Y-93231832D01*
X147509974Y-93250552D01*
X147521956Y-93270543D01*
X147531921Y-93291613D01*
X147539773Y-93313557D01*
X147545437Y-93336166D01*
X147548856Y-93359221D01*
X147550000Y-93382500D01*
X147550000Y-93857500D01*
X147548856Y-93880779D01*
X147545437Y-93903834D01*
X147539773Y-93926443D01*
X147531921Y-93948387D01*
X147521956Y-93969457D01*
X147509974Y-93989448D01*
X147496090Y-94008168D01*
X147480438Y-94025438D01*
X147463168Y-94041090D01*
X147444448Y-94054974D01*
X147424457Y-94066956D01*
X147403387Y-94076921D01*
X147381443Y-94084773D01*
X147358834Y-94090437D01*
X147335779Y-94093856D01*
X147312500Y-94095000D01*
X146737500Y-94095000D01*
X146714221Y-94093856D01*
X146691166Y-94090437D01*
X146668557Y-94084773D01*
X146646613Y-94076921D01*
X146625543Y-94066956D01*
X146605552Y-94054974D01*
X146586832Y-94041090D01*
X146569562Y-94025438D01*
X146553910Y-94008168D01*
X146540026Y-93989448D01*
X146528044Y-93969457D01*
X146518079Y-93948387D01*
X146510227Y-93926443D01*
X146504563Y-93903834D01*
X146501144Y-93880779D01*
X146500000Y-93857500D01*
X146500000Y-93382500D01*
X146501144Y-93359221D01*
X146504563Y-93336166D01*
X146510227Y-93313557D01*
X146518079Y-93291613D01*
X146528044Y-93270543D01*
X146540026Y-93250552D01*
X146553910Y-93231832D01*
X146569562Y-93214562D01*
X146586832Y-93198910D01*
X146605552Y-93185026D01*
X146625543Y-93173044D01*
X146646613Y-93163079D01*
X146668557Y-93155227D01*
X146691166Y-93149563D01*
X146714221Y-93146144D01*
X146737500Y-93145000D01*
X147312500Y-93145000D01*
X147335779Y-93146144D01*
X147335779Y-93146144D01*
G37*
D16*
X147025000Y-93620000D03*
G04 #@! TD*
D10*
G04 #@! TO.C,C19*
G36*
X135585779Y-85626144D02*
X135608834Y-85629563D01*
X135631443Y-85635227D01*
X135653387Y-85643079D01*
X135674457Y-85653044D01*
X135694448Y-85665026D01*
X135713168Y-85678910D01*
X135730438Y-85694562D01*
X135746090Y-85711832D01*
X135759974Y-85730552D01*
X135771956Y-85750543D01*
X135781921Y-85771613D01*
X135789773Y-85793557D01*
X135795437Y-85816166D01*
X135798856Y-85839221D01*
X135800000Y-85862500D01*
X135800000Y-86337500D01*
X135798856Y-86360779D01*
X135795437Y-86383834D01*
X135789773Y-86406443D01*
X135781921Y-86428387D01*
X135771956Y-86449457D01*
X135759974Y-86469448D01*
X135746090Y-86488168D01*
X135730438Y-86505438D01*
X135713168Y-86521090D01*
X135694448Y-86534974D01*
X135674457Y-86546956D01*
X135653387Y-86556921D01*
X135631443Y-86564773D01*
X135608834Y-86570437D01*
X135585779Y-86573856D01*
X135562500Y-86575000D01*
X134987500Y-86575000D01*
X134964221Y-86573856D01*
X134941166Y-86570437D01*
X134918557Y-86564773D01*
X134896613Y-86556921D01*
X134875543Y-86546956D01*
X134855552Y-86534974D01*
X134836832Y-86521090D01*
X134819562Y-86505438D01*
X134803910Y-86488168D01*
X134790026Y-86469448D01*
X134778044Y-86449457D01*
X134768079Y-86428387D01*
X134760227Y-86406443D01*
X134754563Y-86383834D01*
X134751144Y-86360779D01*
X134750000Y-86337500D01*
X134750000Y-85862500D01*
X134751144Y-85839221D01*
X134754563Y-85816166D01*
X134760227Y-85793557D01*
X134768079Y-85771613D01*
X134778044Y-85750543D01*
X134790026Y-85730552D01*
X134803910Y-85711832D01*
X134819562Y-85694562D01*
X134836832Y-85678910D01*
X134855552Y-85665026D01*
X134875543Y-85653044D01*
X134896613Y-85643079D01*
X134918557Y-85635227D01*
X134941166Y-85629563D01*
X134964221Y-85626144D01*
X134987500Y-85625000D01*
X135562500Y-85625000D01*
X135585779Y-85626144D01*
X135585779Y-85626144D01*
G37*
D16*
X135275000Y-86100000D03*
D10*
G36*
X133835779Y-85626144D02*
X133858834Y-85629563D01*
X133881443Y-85635227D01*
X133903387Y-85643079D01*
X133924457Y-85653044D01*
X133944448Y-85665026D01*
X133963168Y-85678910D01*
X133980438Y-85694562D01*
X133996090Y-85711832D01*
X134009974Y-85730552D01*
X134021956Y-85750543D01*
X134031921Y-85771613D01*
X134039773Y-85793557D01*
X134045437Y-85816166D01*
X134048856Y-85839221D01*
X134050000Y-85862500D01*
X134050000Y-86337500D01*
X134048856Y-86360779D01*
X134045437Y-86383834D01*
X134039773Y-86406443D01*
X134031921Y-86428387D01*
X134021956Y-86449457D01*
X134009974Y-86469448D01*
X133996090Y-86488168D01*
X133980438Y-86505438D01*
X133963168Y-86521090D01*
X133944448Y-86534974D01*
X133924457Y-86546956D01*
X133903387Y-86556921D01*
X133881443Y-86564773D01*
X133858834Y-86570437D01*
X133835779Y-86573856D01*
X133812500Y-86575000D01*
X133237500Y-86575000D01*
X133214221Y-86573856D01*
X133191166Y-86570437D01*
X133168557Y-86564773D01*
X133146613Y-86556921D01*
X133125543Y-86546956D01*
X133105552Y-86534974D01*
X133086832Y-86521090D01*
X133069562Y-86505438D01*
X133053910Y-86488168D01*
X133040026Y-86469448D01*
X133028044Y-86449457D01*
X133018079Y-86428387D01*
X133010227Y-86406443D01*
X133004563Y-86383834D01*
X133001144Y-86360779D01*
X133000000Y-86337500D01*
X133000000Y-85862500D01*
X133001144Y-85839221D01*
X133004563Y-85816166D01*
X133010227Y-85793557D01*
X133018079Y-85771613D01*
X133028044Y-85750543D01*
X133040026Y-85730552D01*
X133053910Y-85711832D01*
X133069562Y-85694562D01*
X133086832Y-85678910D01*
X133105552Y-85665026D01*
X133125543Y-85653044D01*
X133146613Y-85643079D01*
X133168557Y-85635227D01*
X133191166Y-85629563D01*
X133214221Y-85626144D01*
X133237500Y-85625000D01*
X133812500Y-85625000D01*
X133835779Y-85626144D01*
X133835779Y-85626144D01*
G37*
D16*
X133525000Y-86100000D03*
G04 #@! TD*
D10*
G04 #@! TO.C,C22*
G36*
X133291779Y-96829144D02*
X133314834Y-96832563D01*
X133337443Y-96838227D01*
X133359387Y-96846079D01*
X133380457Y-96856044D01*
X133400448Y-96868026D01*
X133419168Y-96881910D01*
X133436438Y-96897562D01*
X133452090Y-96914832D01*
X133465974Y-96933552D01*
X133477956Y-96953543D01*
X133487921Y-96974613D01*
X133495773Y-96996557D01*
X133501437Y-97019166D01*
X133504856Y-97042221D01*
X133506000Y-97065500D01*
X133506000Y-97640500D01*
X133504856Y-97663779D01*
X133501437Y-97686834D01*
X133495773Y-97709443D01*
X133487921Y-97731387D01*
X133477956Y-97752457D01*
X133465974Y-97772448D01*
X133452090Y-97791168D01*
X133436438Y-97808438D01*
X133419168Y-97824090D01*
X133400448Y-97837974D01*
X133380457Y-97849956D01*
X133359387Y-97859921D01*
X133337443Y-97867773D01*
X133314834Y-97873437D01*
X133291779Y-97876856D01*
X133268500Y-97878000D01*
X132793500Y-97878000D01*
X132770221Y-97876856D01*
X132747166Y-97873437D01*
X132724557Y-97867773D01*
X132702613Y-97859921D01*
X132681543Y-97849956D01*
X132661552Y-97837974D01*
X132642832Y-97824090D01*
X132625562Y-97808438D01*
X132609910Y-97791168D01*
X132596026Y-97772448D01*
X132584044Y-97752457D01*
X132574079Y-97731387D01*
X132566227Y-97709443D01*
X132560563Y-97686834D01*
X132557144Y-97663779D01*
X132556000Y-97640500D01*
X132556000Y-97065500D01*
X132557144Y-97042221D01*
X132560563Y-97019166D01*
X132566227Y-96996557D01*
X132574079Y-96974613D01*
X132584044Y-96953543D01*
X132596026Y-96933552D01*
X132609910Y-96914832D01*
X132625562Y-96897562D01*
X132642832Y-96881910D01*
X132661552Y-96868026D01*
X132681543Y-96856044D01*
X132702613Y-96846079D01*
X132724557Y-96838227D01*
X132747166Y-96832563D01*
X132770221Y-96829144D01*
X132793500Y-96828000D01*
X133268500Y-96828000D01*
X133291779Y-96829144D01*
X133291779Y-96829144D01*
G37*
D16*
X133031000Y-97353000D03*
D10*
G36*
X133291779Y-98579144D02*
X133314834Y-98582563D01*
X133337443Y-98588227D01*
X133359387Y-98596079D01*
X133380457Y-98606044D01*
X133400448Y-98618026D01*
X133419168Y-98631910D01*
X133436438Y-98647562D01*
X133452090Y-98664832D01*
X133465974Y-98683552D01*
X133477956Y-98703543D01*
X133487921Y-98724613D01*
X133495773Y-98746557D01*
X133501437Y-98769166D01*
X133504856Y-98792221D01*
X133506000Y-98815500D01*
X133506000Y-99390500D01*
X133504856Y-99413779D01*
X133501437Y-99436834D01*
X133495773Y-99459443D01*
X133487921Y-99481387D01*
X133477956Y-99502457D01*
X133465974Y-99522448D01*
X133452090Y-99541168D01*
X133436438Y-99558438D01*
X133419168Y-99574090D01*
X133400448Y-99587974D01*
X133380457Y-99599956D01*
X133359387Y-99609921D01*
X133337443Y-99617773D01*
X133314834Y-99623437D01*
X133291779Y-99626856D01*
X133268500Y-99628000D01*
X132793500Y-99628000D01*
X132770221Y-99626856D01*
X132747166Y-99623437D01*
X132724557Y-99617773D01*
X132702613Y-99609921D01*
X132681543Y-99599956D01*
X132661552Y-99587974D01*
X132642832Y-99574090D01*
X132625562Y-99558438D01*
X132609910Y-99541168D01*
X132596026Y-99522448D01*
X132584044Y-99502457D01*
X132574079Y-99481387D01*
X132566227Y-99459443D01*
X132560563Y-99436834D01*
X132557144Y-99413779D01*
X132556000Y-99390500D01*
X132556000Y-98815500D01*
X132557144Y-98792221D01*
X132560563Y-98769166D01*
X132566227Y-98746557D01*
X132574079Y-98724613D01*
X132584044Y-98703543D01*
X132596026Y-98683552D01*
X132609910Y-98664832D01*
X132625562Y-98647562D01*
X132642832Y-98631910D01*
X132661552Y-98618026D01*
X132681543Y-98606044D01*
X132702613Y-98596079D01*
X132724557Y-98588227D01*
X132747166Y-98582563D01*
X132770221Y-98579144D01*
X132793500Y-98578000D01*
X133268500Y-98578000D01*
X133291779Y-98579144D01*
X133291779Y-98579144D01*
G37*
D16*
X133031000Y-99103000D03*
G04 #@! TD*
D10*
G04 #@! TO.C,C24*
G36*
X124719279Y-99641144D02*
X124742334Y-99644563D01*
X124764943Y-99650227D01*
X124786887Y-99658079D01*
X124807957Y-99668044D01*
X124827948Y-99680026D01*
X124846668Y-99693910D01*
X124863938Y-99709562D01*
X124879590Y-99726832D01*
X124893474Y-99745552D01*
X124905456Y-99765543D01*
X124915421Y-99786613D01*
X124923273Y-99808557D01*
X124928937Y-99831166D01*
X124932356Y-99854221D01*
X124933500Y-99877500D01*
X124933500Y-100452500D01*
X124932356Y-100475779D01*
X124928937Y-100498834D01*
X124923273Y-100521443D01*
X124915421Y-100543387D01*
X124905456Y-100564457D01*
X124893474Y-100584448D01*
X124879590Y-100603168D01*
X124863938Y-100620438D01*
X124846668Y-100636090D01*
X124827948Y-100649974D01*
X124807957Y-100661956D01*
X124786887Y-100671921D01*
X124764943Y-100679773D01*
X124742334Y-100685437D01*
X124719279Y-100688856D01*
X124696000Y-100690000D01*
X124221000Y-100690000D01*
X124197721Y-100688856D01*
X124174666Y-100685437D01*
X124152057Y-100679773D01*
X124130113Y-100671921D01*
X124109043Y-100661956D01*
X124089052Y-100649974D01*
X124070332Y-100636090D01*
X124053062Y-100620438D01*
X124037410Y-100603168D01*
X124023526Y-100584448D01*
X124011544Y-100564457D01*
X124001579Y-100543387D01*
X123993727Y-100521443D01*
X123988063Y-100498834D01*
X123984644Y-100475779D01*
X123983500Y-100452500D01*
X123983500Y-99877500D01*
X123984644Y-99854221D01*
X123988063Y-99831166D01*
X123993727Y-99808557D01*
X124001579Y-99786613D01*
X124011544Y-99765543D01*
X124023526Y-99745552D01*
X124037410Y-99726832D01*
X124053062Y-99709562D01*
X124070332Y-99693910D01*
X124089052Y-99680026D01*
X124109043Y-99668044D01*
X124130113Y-99658079D01*
X124152057Y-99650227D01*
X124174666Y-99644563D01*
X124197721Y-99641144D01*
X124221000Y-99640000D01*
X124696000Y-99640000D01*
X124719279Y-99641144D01*
X124719279Y-99641144D01*
G37*
D16*
X124458500Y-100165000D03*
D10*
G36*
X124719279Y-97891144D02*
X124742334Y-97894563D01*
X124764943Y-97900227D01*
X124786887Y-97908079D01*
X124807957Y-97918044D01*
X124827948Y-97930026D01*
X124846668Y-97943910D01*
X124863938Y-97959562D01*
X124879590Y-97976832D01*
X124893474Y-97995552D01*
X124905456Y-98015543D01*
X124915421Y-98036613D01*
X124923273Y-98058557D01*
X124928937Y-98081166D01*
X124932356Y-98104221D01*
X124933500Y-98127500D01*
X124933500Y-98702500D01*
X124932356Y-98725779D01*
X124928937Y-98748834D01*
X124923273Y-98771443D01*
X124915421Y-98793387D01*
X124905456Y-98814457D01*
X124893474Y-98834448D01*
X124879590Y-98853168D01*
X124863938Y-98870438D01*
X124846668Y-98886090D01*
X124827948Y-98899974D01*
X124807957Y-98911956D01*
X124786887Y-98921921D01*
X124764943Y-98929773D01*
X124742334Y-98935437D01*
X124719279Y-98938856D01*
X124696000Y-98940000D01*
X124221000Y-98940000D01*
X124197721Y-98938856D01*
X124174666Y-98935437D01*
X124152057Y-98929773D01*
X124130113Y-98921921D01*
X124109043Y-98911956D01*
X124089052Y-98899974D01*
X124070332Y-98886090D01*
X124053062Y-98870438D01*
X124037410Y-98853168D01*
X124023526Y-98834448D01*
X124011544Y-98814457D01*
X124001579Y-98793387D01*
X123993727Y-98771443D01*
X123988063Y-98748834D01*
X123984644Y-98725779D01*
X123983500Y-98702500D01*
X123983500Y-98127500D01*
X123984644Y-98104221D01*
X123988063Y-98081166D01*
X123993727Y-98058557D01*
X124001579Y-98036613D01*
X124011544Y-98015543D01*
X124023526Y-97995552D01*
X124037410Y-97976832D01*
X124053062Y-97959562D01*
X124070332Y-97943910D01*
X124089052Y-97930026D01*
X124109043Y-97918044D01*
X124130113Y-97908079D01*
X124152057Y-97900227D01*
X124174666Y-97894563D01*
X124197721Y-97891144D01*
X124221000Y-97890000D01*
X124696000Y-97890000D01*
X124719279Y-97891144D01*
X124719279Y-97891144D01*
G37*
D16*
X124458500Y-98415000D03*
G04 #@! TD*
D10*
G04 #@! TO.C,C42*
G36*
X116510779Y-64391144D02*
X116533834Y-64394563D01*
X116556443Y-64400227D01*
X116578387Y-64408079D01*
X116599457Y-64418044D01*
X116619448Y-64430026D01*
X116638168Y-64443910D01*
X116655438Y-64459562D01*
X116671090Y-64476832D01*
X116684974Y-64495552D01*
X116696956Y-64515543D01*
X116706921Y-64536613D01*
X116714773Y-64558557D01*
X116720437Y-64581166D01*
X116723856Y-64604221D01*
X116725000Y-64627500D01*
X116725000Y-65202500D01*
X116723856Y-65225779D01*
X116720437Y-65248834D01*
X116714773Y-65271443D01*
X116706921Y-65293387D01*
X116696956Y-65314457D01*
X116684974Y-65334448D01*
X116671090Y-65353168D01*
X116655438Y-65370438D01*
X116638168Y-65386090D01*
X116619448Y-65399974D01*
X116599457Y-65411956D01*
X116578387Y-65421921D01*
X116556443Y-65429773D01*
X116533834Y-65435437D01*
X116510779Y-65438856D01*
X116487500Y-65440000D01*
X116012500Y-65440000D01*
X115989221Y-65438856D01*
X115966166Y-65435437D01*
X115943557Y-65429773D01*
X115921613Y-65421921D01*
X115900543Y-65411956D01*
X115880552Y-65399974D01*
X115861832Y-65386090D01*
X115844562Y-65370438D01*
X115828910Y-65353168D01*
X115815026Y-65334448D01*
X115803044Y-65314457D01*
X115793079Y-65293387D01*
X115785227Y-65271443D01*
X115779563Y-65248834D01*
X115776144Y-65225779D01*
X115775000Y-65202500D01*
X115775000Y-64627500D01*
X115776144Y-64604221D01*
X115779563Y-64581166D01*
X115785227Y-64558557D01*
X115793079Y-64536613D01*
X115803044Y-64515543D01*
X115815026Y-64495552D01*
X115828910Y-64476832D01*
X115844562Y-64459562D01*
X115861832Y-64443910D01*
X115880552Y-64430026D01*
X115900543Y-64418044D01*
X115921613Y-64408079D01*
X115943557Y-64400227D01*
X115966166Y-64394563D01*
X115989221Y-64391144D01*
X116012500Y-64390000D01*
X116487500Y-64390000D01*
X116510779Y-64391144D01*
X116510779Y-64391144D01*
G37*
D16*
X116250000Y-64915000D03*
D10*
G36*
X116510779Y-62641144D02*
X116533834Y-62644563D01*
X116556443Y-62650227D01*
X116578387Y-62658079D01*
X116599457Y-62668044D01*
X116619448Y-62680026D01*
X116638168Y-62693910D01*
X116655438Y-62709562D01*
X116671090Y-62726832D01*
X116684974Y-62745552D01*
X116696956Y-62765543D01*
X116706921Y-62786613D01*
X116714773Y-62808557D01*
X116720437Y-62831166D01*
X116723856Y-62854221D01*
X116725000Y-62877500D01*
X116725000Y-63452500D01*
X116723856Y-63475779D01*
X116720437Y-63498834D01*
X116714773Y-63521443D01*
X116706921Y-63543387D01*
X116696956Y-63564457D01*
X116684974Y-63584448D01*
X116671090Y-63603168D01*
X116655438Y-63620438D01*
X116638168Y-63636090D01*
X116619448Y-63649974D01*
X116599457Y-63661956D01*
X116578387Y-63671921D01*
X116556443Y-63679773D01*
X116533834Y-63685437D01*
X116510779Y-63688856D01*
X116487500Y-63690000D01*
X116012500Y-63690000D01*
X115989221Y-63688856D01*
X115966166Y-63685437D01*
X115943557Y-63679773D01*
X115921613Y-63671921D01*
X115900543Y-63661956D01*
X115880552Y-63649974D01*
X115861832Y-63636090D01*
X115844562Y-63620438D01*
X115828910Y-63603168D01*
X115815026Y-63584448D01*
X115803044Y-63564457D01*
X115793079Y-63543387D01*
X115785227Y-63521443D01*
X115779563Y-63498834D01*
X115776144Y-63475779D01*
X115775000Y-63452500D01*
X115775000Y-62877500D01*
X115776144Y-62854221D01*
X115779563Y-62831166D01*
X115785227Y-62808557D01*
X115793079Y-62786613D01*
X115803044Y-62765543D01*
X115815026Y-62745552D01*
X115828910Y-62726832D01*
X115844562Y-62709562D01*
X115861832Y-62693910D01*
X115880552Y-62680026D01*
X115900543Y-62668044D01*
X115921613Y-62658079D01*
X115943557Y-62650227D01*
X115966166Y-62644563D01*
X115989221Y-62641144D01*
X116012500Y-62640000D01*
X116487500Y-62640000D01*
X116510779Y-62641144D01*
X116510779Y-62641144D01*
G37*
D16*
X116250000Y-63165000D03*
G04 #@! TD*
D10*
G04 #@! TO.C,C43*
G36*
X119360779Y-139851144D02*
X119383834Y-139854563D01*
X119406443Y-139860227D01*
X119428387Y-139868079D01*
X119449457Y-139878044D01*
X119469448Y-139890026D01*
X119488168Y-139903910D01*
X119505438Y-139919562D01*
X119521090Y-139936832D01*
X119534974Y-139955552D01*
X119546956Y-139975543D01*
X119556921Y-139996613D01*
X119564773Y-140018557D01*
X119570437Y-140041166D01*
X119573856Y-140064221D01*
X119575000Y-140087500D01*
X119575000Y-140662500D01*
X119573856Y-140685779D01*
X119570437Y-140708834D01*
X119564773Y-140731443D01*
X119556921Y-140753387D01*
X119546956Y-140774457D01*
X119534974Y-140794448D01*
X119521090Y-140813168D01*
X119505438Y-140830438D01*
X119488168Y-140846090D01*
X119469448Y-140859974D01*
X119449457Y-140871956D01*
X119428387Y-140881921D01*
X119406443Y-140889773D01*
X119383834Y-140895437D01*
X119360779Y-140898856D01*
X119337500Y-140900000D01*
X118862500Y-140900000D01*
X118839221Y-140898856D01*
X118816166Y-140895437D01*
X118793557Y-140889773D01*
X118771613Y-140881921D01*
X118750543Y-140871956D01*
X118730552Y-140859974D01*
X118711832Y-140846090D01*
X118694562Y-140830438D01*
X118678910Y-140813168D01*
X118665026Y-140794448D01*
X118653044Y-140774457D01*
X118643079Y-140753387D01*
X118635227Y-140731443D01*
X118629563Y-140708834D01*
X118626144Y-140685779D01*
X118625000Y-140662500D01*
X118625000Y-140087500D01*
X118626144Y-140064221D01*
X118629563Y-140041166D01*
X118635227Y-140018557D01*
X118643079Y-139996613D01*
X118653044Y-139975543D01*
X118665026Y-139955552D01*
X118678910Y-139936832D01*
X118694562Y-139919562D01*
X118711832Y-139903910D01*
X118730552Y-139890026D01*
X118750543Y-139878044D01*
X118771613Y-139868079D01*
X118793557Y-139860227D01*
X118816166Y-139854563D01*
X118839221Y-139851144D01*
X118862500Y-139850000D01*
X119337500Y-139850000D01*
X119360779Y-139851144D01*
X119360779Y-139851144D01*
G37*
D16*
X119100000Y-140375000D03*
D10*
G36*
X119360779Y-138101144D02*
X119383834Y-138104563D01*
X119406443Y-138110227D01*
X119428387Y-138118079D01*
X119449457Y-138128044D01*
X119469448Y-138140026D01*
X119488168Y-138153910D01*
X119505438Y-138169562D01*
X119521090Y-138186832D01*
X119534974Y-138205552D01*
X119546956Y-138225543D01*
X119556921Y-138246613D01*
X119564773Y-138268557D01*
X119570437Y-138291166D01*
X119573856Y-138314221D01*
X119575000Y-138337500D01*
X119575000Y-138912500D01*
X119573856Y-138935779D01*
X119570437Y-138958834D01*
X119564773Y-138981443D01*
X119556921Y-139003387D01*
X119546956Y-139024457D01*
X119534974Y-139044448D01*
X119521090Y-139063168D01*
X119505438Y-139080438D01*
X119488168Y-139096090D01*
X119469448Y-139109974D01*
X119449457Y-139121956D01*
X119428387Y-139131921D01*
X119406443Y-139139773D01*
X119383834Y-139145437D01*
X119360779Y-139148856D01*
X119337500Y-139150000D01*
X118862500Y-139150000D01*
X118839221Y-139148856D01*
X118816166Y-139145437D01*
X118793557Y-139139773D01*
X118771613Y-139131921D01*
X118750543Y-139121956D01*
X118730552Y-139109974D01*
X118711832Y-139096090D01*
X118694562Y-139080438D01*
X118678910Y-139063168D01*
X118665026Y-139044448D01*
X118653044Y-139024457D01*
X118643079Y-139003387D01*
X118635227Y-138981443D01*
X118629563Y-138958834D01*
X118626144Y-138935779D01*
X118625000Y-138912500D01*
X118625000Y-138337500D01*
X118626144Y-138314221D01*
X118629563Y-138291166D01*
X118635227Y-138268557D01*
X118643079Y-138246613D01*
X118653044Y-138225543D01*
X118665026Y-138205552D01*
X118678910Y-138186832D01*
X118694562Y-138169562D01*
X118711832Y-138153910D01*
X118730552Y-138140026D01*
X118750543Y-138128044D01*
X118771613Y-138118079D01*
X118793557Y-138110227D01*
X118816166Y-138104563D01*
X118839221Y-138101144D01*
X118862500Y-138100000D01*
X119337500Y-138100000D01*
X119360779Y-138101144D01*
X119360779Y-138101144D01*
G37*
D16*
X119100000Y-138625000D03*
G04 #@! TD*
D10*
G04 #@! TO.C,C45*
G36*
X103760779Y-87591144D02*
X103783834Y-87594563D01*
X103806443Y-87600227D01*
X103828387Y-87608079D01*
X103849457Y-87618044D01*
X103869448Y-87630026D01*
X103888168Y-87643910D01*
X103905438Y-87659562D01*
X103921090Y-87676832D01*
X103934974Y-87695552D01*
X103946956Y-87715543D01*
X103956921Y-87736613D01*
X103964773Y-87758557D01*
X103970437Y-87781166D01*
X103973856Y-87804221D01*
X103975000Y-87827500D01*
X103975000Y-88402500D01*
X103973856Y-88425779D01*
X103970437Y-88448834D01*
X103964773Y-88471443D01*
X103956921Y-88493387D01*
X103946956Y-88514457D01*
X103934974Y-88534448D01*
X103921090Y-88553168D01*
X103905438Y-88570438D01*
X103888168Y-88586090D01*
X103869448Y-88599974D01*
X103849457Y-88611956D01*
X103828387Y-88621921D01*
X103806443Y-88629773D01*
X103783834Y-88635437D01*
X103760779Y-88638856D01*
X103737500Y-88640000D01*
X103262500Y-88640000D01*
X103239221Y-88638856D01*
X103216166Y-88635437D01*
X103193557Y-88629773D01*
X103171613Y-88621921D01*
X103150543Y-88611956D01*
X103130552Y-88599974D01*
X103111832Y-88586090D01*
X103094562Y-88570438D01*
X103078910Y-88553168D01*
X103065026Y-88534448D01*
X103053044Y-88514457D01*
X103043079Y-88493387D01*
X103035227Y-88471443D01*
X103029563Y-88448834D01*
X103026144Y-88425779D01*
X103025000Y-88402500D01*
X103025000Y-87827500D01*
X103026144Y-87804221D01*
X103029563Y-87781166D01*
X103035227Y-87758557D01*
X103043079Y-87736613D01*
X103053044Y-87715543D01*
X103065026Y-87695552D01*
X103078910Y-87676832D01*
X103094562Y-87659562D01*
X103111832Y-87643910D01*
X103130552Y-87630026D01*
X103150543Y-87618044D01*
X103171613Y-87608079D01*
X103193557Y-87600227D01*
X103216166Y-87594563D01*
X103239221Y-87591144D01*
X103262500Y-87590000D01*
X103737500Y-87590000D01*
X103760779Y-87591144D01*
X103760779Y-87591144D01*
G37*
D16*
X103500000Y-88115000D03*
D10*
G36*
X103760779Y-85841144D02*
X103783834Y-85844563D01*
X103806443Y-85850227D01*
X103828387Y-85858079D01*
X103849457Y-85868044D01*
X103869448Y-85880026D01*
X103888168Y-85893910D01*
X103905438Y-85909562D01*
X103921090Y-85926832D01*
X103934974Y-85945552D01*
X103946956Y-85965543D01*
X103956921Y-85986613D01*
X103964773Y-86008557D01*
X103970437Y-86031166D01*
X103973856Y-86054221D01*
X103975000Y-86077500D01*
X103975000Y-86652500D01*
X103973856Y-86675779D01*
X103970437Y-86698834D01*
X103964773Y-86721443D01*
X103956921Y-86743387D01*
X103946956Y-86764457D01*
X103934974Y-86784448D01*
X103921090Y-86803168D01*
X103905438Y-86820438D01*
X103888168Y-86836090D01*
X103869448Y-86849974D01*
X103849457Y-86861956D01*
X103828387Y-86871921D01*
X103806443Y-86879773D01*
X103783834Y-86885437D01*
X103760779Y-86888856D01*
X103737500Y-86890000D01*
X103262500Y-86890000D01*
X103239221Y-86888856D01*
X103216166Y-86885437D01*
X103193557Y-86879773D01*
X103171613Y-86871921D01*
X103150543Y-86861956D01*
X103130552Y-86849974D01*
X103111832Y-86836090D01*
X103094562Y-86820438D01*
X103078910Y-86803168D01*
X103065026Y-86784448D01*
X103053044Y-86764457D01*
X103043079Y-86743387D01*
X103035227Y-86721443D01*
X103029563Y-86698834D01*
X103026144Y-86675779D01*
X103025000Y-86652500D01*
X103025000Y-86077500D01*
X103026144Y-86054221D01*
X103029563Y-86031166D01*
X103035227Y-86008557D01*
X103043079Y-85986613D01*
X103053044Y-85965543D01*
X103065026Y-85945552D01*
X103078910Y-85926832D01*
X103094562Y-85909562D01*
X103111832Y-85893910D01*
X103130552Y-85880026D01*
X103150543Y-85868044D01*
X103171613Y-85858079D01*
X103193557Y-85850227D01*
X103216166Y-85844563D01*
X103239221Y-85841144D01*
X103262500Y-85840000D01*
X103737500Y-85840000D01*
X103760779Y-85841144D01*
X103760779Y-85841144D01*
G37*
D16*
X103500000Y-86365000D03*
G04 #@! TD*
D10*
G04 #@! TO.C,C17*
G36*
X122560779Y-86526144D02*
X122583834Y-86529563D01*
X122606443Y-86535227D01*
X122628387Y-86543079D01*
X122649457Y-86553044D01*
X122669448Y-86565026D01*
X122688168Y-86578910D01*
X122705438Y-86594562D01*
X122721090Y-86611832D01*
X122734974Y-86630552D01*
X122746956Y-86650543D01*
X122756921Y-86671613D01*
X122764773Y-86693557D01*
X122770437Y-86716166D01*
X122773856Y-86739221D01*
X122775000Y-86762500D01*
X122775000Y-87237500D01*
X122773856Y-87260779D01*
X122770437Y-87283834D01*
X122764773Y-87306443D01*
X122756921Y-87328387D01*
X122746956Y-87349457D01*
X122734974Y-87369448D01*
X122721090Y-87388168D01*
X122705438Y-87405438D01*
X122688168Y-87421090D01*
X122669448Y-87434974D01*
X122649457Y-87446956D01*
X122628387Y-87456921D01*
X122606443Y-87464773D01*
X122583834Y-87470437D01*
X122560779Y-87473856D01*
X122537500Y-87475000D01*
X121962500Y-87475000D01*
X121939221Y-87473856D01*
X121916166Y-87470437D01*
X121893557Y-87464773D01*
X121871613Y-87456921D01*
X121850543Y-87446956D01*
X121830552Y-87434974D01*
X121811832Y-87421090D01*
X121794562Y-87405438D01*
X121778910Y-87388168D01*
X121765026Y-87369448D01*
X121753044Y-87349457D01*
X121743079Y-87328387D01*
X121735227Y-87306443D01*
X121729563Y-87283834D01*
X121726144Y-87260779D01*
X121725000Y-87237500D01*
X121725000Y-86762500D01*
X121726144Y-86739221D01*
X121729563Y-86716166D01*
X121735227Y-86693557D01*
X121743079Y-86671613D01*
X121753044Y-86650543D01*
X121765026Y-86630552D01*
X121778910Y-86611832D01*
X121794562Y-86594562D01*
X121811832Y-86578910D01*
X121830552Y-86565026D01*
X121850543Y-86553044D01*
X121871613Y-86543079D01*
X121893557Y-86535227D01*
X121916166Y-86529563D01*
X121939221Y-86526144D01*
X121962500Y-86525000D01*
X122537500Y-86525000D01*
X122560779Y-86526144D01*
X122560779Y-86526144D01*
G37*
D16*
X122250000Y-87000000D03*
D10*
G36*
X124310779Y-86526144D02*
X124333834Y-86529563D01*
X124356443Y-86535227D01*
X124378387Y-86543079D01*
X124399457Y-86553044D01*
X124419448Y-86565026D01*
X124438168Y-86578910D01*
X124455438Y-86594562D01*
X124471090Y-86611832D01*
X124484974Y-86630552D01*
X124496956Y-86650543D01*
X124506921Y-86671613D01*
X124514773Y-86693557D01*
X124520437Y-86716166D01*
X124523856Y-86739221D01*
X124525000Y-86762500D01*
X124525000Y-87237500D01*
X124523856Y-87260779D01*
X124520437Y-87283834D01*
X124514773Y-87306443D01*
X124506921Y-87328387D01*
X124496956Y-87349457D01*
X124484974Y-87369448D01*
X124471090Y-87388168D01*
X124455438Y-87405438D01*
X124438168Y-87421090D01*
X124419448Y-87434974D01*
X124399457Y-87446956D01*
X124378387Y-87456921D01*
X124356443Y-87464773D01*
X124333834Y-87470437D01*
X124310779Y-87473856D01*
X124287500Y-87475000D01*
X123712500Y-87475000D01*
X123689221Y-87473856D01*
X123666166Y-87470437D01*
X123643557Y-87464773D01*
X123621613Y-87456921D01*
X123600543Y-87446956D01*
X123580552Y-87434974D01*
X123561832Y-87421090D01*
X123544562Y-87405438D01*
X123528910Y-87388168D01*
X123515026Y-87369448D01*
X123503044Y-87349457D01*
X123493079Y-87328387D01*
X123485227Y-87306443D01*
X123479563Y-87283834D01*
X123476144Y-87260779D01*
X123475000Y-87237500D01*
X123475000Y-86762500D01*
X123476144Y-86739221D01*
X123479563Y-86716166D01*
X123485227Y-86693557D01*
X123493079Y-86671613D01*
X123503044Y-86650543D01*
X123515026Y-86630552D01*
X123528910Y-86611832D01*
X123544562Y-86594562D01*
X123561832Y-86578910D01*
X123580552Y-86565026D01*
X123600543Y-86553044D01*
X123621613Y-86543079D01*
X123643557Y-86535227D01*
X123666166Y-86529563D01*
X123689221Y-86526144D01*
X123712500Y-86525000D01*
X124287500Y-86525000D01*
X124310779Y-86526144D01*
X124310779Y-86526144D01*
G37*
D16*
X124000000Y-87000000D03*
G04 #@! TD*
D10*
G04 #@! TO.C,C8*
G36*
X108064916Y-79511131D02*
X108087971Y-79514550D01*
X108110580Y-79520214D01*
X108132524Y-79528066D01*
X108153594Y-79538031D01*
X108173585Y-79550013D01*
X108192305Y-79563897D01*
X108209575Y-79579549D01*
X108545451Y-79915425D01*
X108561103Y-79932695D01*
X108574987Y-79951415D01*
X108586969Y-79971406D01*
X108596934Y-79992476D01*
X108604786Y-80014420D01*
X108610450Y-80037029D01*
X108613869Y-80060084D01*
X108615013Y-80083363D01*
X108613869Y-80106642D01*
X108610450Y-80129697D01*
X108604786Y-80152306D01*
X108596934Y-80174250D01*
X108586969Y-80195320D01*
X108574987Y-80215311D01*
X108561103Y-80234031D01*
X108545451Y-80251301D01*
X108138865Y-80657887D01*
X108121595Y-80673539D01*
X108102875Y-80687423D01*
X108082884Y-80699405D01*
X108061814Y-80709370D01*
X108039870Y-80717222D01*
X108017261Y-80722886D01*
X107994206Y-80726305D01*
X107970927Y-80727449D01*
X107947648Y-80726305D01*
X107924593Y-80722886D01*
X107901984Y-80717222D01*
X107880040Y-80709370D01*
X107858970Y-80699405D01*
X107838979Y-80687423D01*
X107820259Y-80673539D01*
X107802989Y-80657887D01*
X107467113Y-80322011D01*
X107451461Y-80304741D01*
X107437577Y-80286021D01*
X107425595Y-80266030D01*
X107415630Y-80244960D01*
X107407778Y-80223016D01*
X107402114Y-80200407D01*
X107398695Y-80177352D01*
X107397551Y-80154073D01*
X107398695Y-80130794D01*
X107402114Y-80107739D01*
X107407778Y-80085130D01*
X107415630Y-80063186D01*
X107425595Y-80042116D01*
X107437577Y-80022125D01*
X107451461Y-80003405D01*
X107467113Y-79986135D01*
X107873699Y-79579549D01*
X107890969Y-79563897D01*
X107909689Y-79550013D01*
X107929680Y-79538031D01*
X107950750Y-79528066D01*
X107972694Y-79520214D01*
X107995303Y-79514550D01*
X108018358Y-79511131D01*
X108041637Y-79509987D01*
X108064916Y-79511131D01*
X108064916Y-79511131D01*
G37*
D16*
X108006282Y-80118718D03*
D10*
G36*
X109302352Y-78273695D02*
X109325407Y-78277114D01*
X109348016Y-78282778D01*
X109369960Y-78290630D01*
X109391030Y-78300595D01*
X109411021Y-78312577D01*
X109429741Y-78326461D01*
X109447011Y-78342113D01*
X109782887Y-78677989D01*
X109798539Y-78695259D01*
X109812423Y-78713979D01*
X109824405Y-78733970D01*
X109834370Y-78755040D01*
X109842222Y-78776984D01*
X109847886Y-78799593D01*
X109851305Y-78822648D01*
X109852449Y-78845927D01*
X109851305Y-78869206D01*
X109847886Y-78892261D01*
X109842222Y-78914870D01*
X109834370Y-78936814D01*
X109824405Y-78957884D01*
X109812423Y-78977875D01*
X109798539Y-78996595D01*
X109782887Y-79013865D01*
X109376301Y-79420451D01*
X109359031Y-79436103D01*
X109340311Y-79449987D01*
X109320320Y-79461969D01*
X109299250Y-79471934D01*
X109277306Y-79479786D01*
X109254697Y-79485450D01*
X109231642Y-79488869D01*
X109208363Y-79490013D01*
X109185084Y-79488869D01*
X109162029Y-79485450D01*
X109139420Y-79479786D01*
X109117476Y-79471934D01*
X109096406Y-79461969D01*
X109076415Y-79449987D01*
X109057695Y-79436103D01*
X109040425Y-79420451D01*
X108704549Y-79084575D01*
X108688897Y-79067305D01*
X108675013Y-79048585D01*
X108663031Y-79028594D01*
X108653066Y-79007524D01*
X108645214Y-78985580D01*
X108639550Y-78962971D01*
X108636131Y-78939916D01*
X108634987Y-78916637D01*
X108636131Y-78893358D01*
X108639550Y-78870303D01*
X108645214Y-78847694D01*
X108653066Y-78825750D01*
X108663031Y-78804680D01*
X108675013Y-78784689D01*
X108688897Y-78765969D01*
X108704549Y-78748699D01*
X109111135Y-78342113D01*
X109128405Y-78326461D01*
X109147125Y-78312577D01*
X109167116Y-78300595D01*
X109188186Y-78290630D01*
X109210130Y-78282778D01*
X109232739Y-78277114D01*
X109255794Y-78273695D01*
X109279073Y-78272551D01*
X109302352Y-78273695D01*
X109302352Y-78273695D01*
G37*
D16*
X109243718Y-78881282D03*
G04 #@! TD*
D10*
G04 #@! TO.C,C15*
G36*
X98260779Y-106266144D02*
X98283834Y-106269563D01*
X98306443Y-106275227D01*
X98328387Y-106283079D01*
X98349457Y-106293044D01*
X98369448Y-106305026D01*
X98388168Y-106318910D01*
X98405438Y-106334562D01*
X98421090Y-106351832D01*
X98434974Y-106370552D01*
X98446956Y-106390543D01*
X98456921Y-106411613D01*
X98464773Y-106433557D01*
X98470437Y-106456166D01*
X98473856Y-106479221D01*
X98475000Y-106502500D01*
X98475000Y-107077500D01*
X98473856Y-107100779D01*
X98470437Y-107123834D01*
X98464773Y-107146443D01*
X98456921Y-107168387D01*
X98446956Y-107189457D01*
X98434974Y-107209448D01*
X98421090Y-107228168D01*
X98405438Y-107245438D01*
X98388168Y-107261090D01*
X98369448Y-107274974D01*
X98349457Y-107286956D01*
X98328387Y-107296921D01*
X98306443Y-107304773D01*
X98283834Y-107310437D01*
X98260779Y-107313856D01*
X98237500Y-107315000D01*
X97762500Y-107315000D01*
X97739221Y-107313856D01*
X97716166Y-107310437D01*
X97693557Y-107304773D01*
X97671613Y-107296921D01*
X97650543Y-107286956D01*
X97630552Y-107274974D01*
X97611832Y-107261090D01*
X97594562Y-107245438D01*
X97578910Y-107228168D01*
X97565026Y-107209448D01*
X97553044Y-107189457D01*
X97543079Y-107168387D01*
X97535227Y-107146443D01*
X97529563Y-107123834D01*
X97526144Y-107100779D01*
X97525000Y-107077500D01*
X97525000Y-106502500D01*
X97526144Y-106479221D01*
X97529563Y-106456166D01*
X97535227Y-106433557D01*
X97543079Y-106411613D01*
X97553044Y-106390543D01*
X97565026Y-106370552D01*
X97578910Y-106351832D01*
X97594562Y-106334562D01*
X97611832Y-106318910D01*
X97630552Y-106305026D01*
X97650543Y-106293044D01*
X97671613Y-106283079D01*
X97693557Y-106275227D01*
X97716166Y-106269563D01*
X97739221Y-106266144D01*
X97762500Y-106265000D01*
X98237500Y-106265000D01*
X98260779Y-106266144D01*
X98260779Y-106266144D01*
G37*
D16*
X98000000Y-106790000D03*
D10*
G36*
X98260779Y-104516144D02*
X98283834Y-104519563D01*
X98306443Y-104525227D01*
X98328387Y-104533079D01*
X98349457Y-104543044D01*
X98369448Y-104555026D01*
X98388168Y-104568910D01*
X98405438Y-104584562D01*
X98421090Y-104601832D01*
X98434974Y-104620552D01*
X98446956Y-104640543D01*
X98456921Y-104661613D01*
X98464773Y-104683557D01*
X98470437Y-104706166D01*
X98473856Y-104729221D01*
X98475000Y-104752500D01*
X98475000Y-105327500D01*
X98473856Y-105350779D01*
X98470437Y-105373834D01*
X98464773Y-105396443D01*
X98456921Y-105418387D01*
X98446956Y-105439457D01*
X98434974Y-105459448D01*
X98421090Y-105478168D01*
X98405438Y-105495438D01*
X98388168Y-105511090D01*
X98369448Y-105524974D01*
X98349457Y-105536956D01*
X98328387Y-105546921D01*
X98306443Y-105554773D01*
X98283834Y-105560437D01*
X98260779Y-105563856D01*
X98237500Y-105565000D01*
X97762500Y-105565000D01*
X97739221Y-105563856D01*
X97716166Y-105560437D01*
X97693557Y-105554773D01*
X97671613Y-105546921D01*
X97650543Y-105536956D01*
X97630552Y-105524974D01*
X97611832Y-105511090D01*
X97594562Y-105495438D01*
X97578910Y-105478168D01*
X97565026Y-105459448D01*
X97553044Y-105439457D01*
X97543079Y-105418387D01*
X97535227Y-105396443D01*
X97529563Y-105373834D01*
X97526144Y-105350779D01*
X97525000Y-105327500D01*
X97525000Y-104752500D01*
X97526144Y-104729221D01*
X97529563Y-104706166D01*
X97535227Y-104683557D01*
X97543079Y-104661613D01*
X97553044Y-104640543D01*
X97565026Y-104620552D01*
X97578910Y-104601832D01*
X97594562Y-104584562D01*
X97611832Y-104568910D01*
X97630552Y-104555026D01*
X97650543Y-104543044D01*
X97671613Y-104533079D01*
X97693557Y-104525227D01*
X97716166Y-104519563D01*
X97739221Y-104516144D01*
X97762500Y-104515000D01*
X98237500Y-104515000D01*
X98260779Y-104516144D01*
X98260779Y-104516144D01*
G37*
D16*
X98000000Y-105040000D03*
G04 #@! TD*
D10*
G04 #@! TO.C,C1*
G36*
X156485779Y-73586144D02*
X156508834Y-73589563D01*
X156531443Y-73595227D01*
X156553387Y-73603079D01*
X156574457Y-73613044D01*
X156594448Y-73625026D01*
X156613168Y-73638910D01*
X156630438Y-73654562D01*
X156646090Y-73671832D01*
X156659974Y-73690552D01*
X156671956Y-73710543D01*
X156681921Y-73731613D01*
X156689773Y-73753557D01*
X156695437Y-73776166D01*
X156698856Y-73799221D01*
X156700000Y-73822500D01*
X156700000Y-74297500D01*
X156698856Y-74320779D01*
X156695437Y-74343834D01*
X156689773Y-74366443D01*
X156681921Y-74388387D01*
X156671956Y-74409457D01*
X156659974Y-74429448D01*
X156646090Y-74448168D01*
X156630438Y-74465438D01*
X156613168Y-74481090D01*
X156594448Y-74494974D01*
X156574457Y-74506956D01*
X156553387Y-74516921D01*
X156531443Y-74524773D01*
X156508834Y-74530437D01*
X156485779Y-74533856D01*
X156462500Y-74535000D01*
X155887500Y-74535000D01*
X155864221Y-74533856D01*
X155841166Y-74530437D01*
X155818557Y-74524773D01*
X155796613Y-74516921D01*
X155775543Y-74506956D01*
X155755552Y-74494974D01*
X155736832Y-74481090D01*
X155719562Y-74465438D01*
X155703910Y-74448168D01*
X155690026Y-74429448D01*
X155678044Y-74409457D01*
X155668079Y-74388387D01*
X155660227Y-74366443D01*
X155654563Y-74343834D01*
X155651144Y-74320779D01*
X155650000Y-74297500D01*
X155650000Y-73822500D01*
X155651144Y-73799221D01*
X155654563Y-73776166D01*
X155660227Y-73753557D01*
X155668079Y-73731613D01*
X155678044Y-73710543D01*
X155690026Y-73690552D01*
X155703910Y-73671832D01*
X155719562Y-73654562D01*
X155736832Y-73638910D01*
X155755552Y-73625026D01*
X155775543Y-73613044D01*
X155796613Y-73603079D01*
X155818557Y-73595227D01*
X155841166Y-73589563D01*
X155864221Y-73586144D01*
X155887500Y-73585000D01*
X156462500Y-73585000D01*
X156485779Y-73586144D01*
X156485779Y-73586144D01*
G37*
D16*
X156175000Y-74060000D03*
D10*
G36*
X154735779Y-73586144D02*
X154758834Y-73589563D01*
X154781443Y-73595227D01*
X154803387Y-73603079D01*
X154824457Y-73613044D01*
X154844448Y-73625026D01*
X154863168Y-73638910D01*
X154880438Y-73654562D01*
X154896090Y-73671832D01*
X154909974Y-73690552D01*
X154921956Y-73710543D01*
X154931921Y-73731613D01*
X154939773Y-73753557D01*
X154945437Y-73776166D01*
X154948856Y-73799221D01*
X154950000Y-73822500D01*
X154950000Y-74297500D01*
X154948856Y-74320779D01*
X154945437Y-74343834D01*
X154939773Y-74366443D01*
X154931921Y-74388387D01*
X154921956Y-74409457D01*
X154909974Y-74429448D01*
X154896090Y-74448168D01*
X154880438Y-74465438D01*
X154863168Y-74481090D01*
X154844448Y-74494974D01*
X154824457Y-74506956D01*
X154803387Y-74516921D01*
X154781443Y-74524773D01*
X154758834Y-74530437D01*
X154735779Y-74533856D01*
X154712500Y-74535000D01*
X154137500Y-74535000D01*
X154114221Y-74533856D01*
X154091166Y-74530437D01*
X154068557Y-74524773D01*
X154046613Y-74516921D01*
X154025543Y-74506956D01*
X154005552Y-74494974D01*
X153986832Y-74481090D01*
X153969562Y-74465438D01*
X153953910Y-74448168D01*
X153940026Y-74429448D01*
X153928044Y-74409457D01*
X153918079Y-74388387D01*
X153910227Y-74366443D01*
X153904563Y-74343834D01*
X153901144Y-74320779D01*
X153900000Y-74297500D01*
X153900000Y-73822500D01*
X153901144Y-73799221D01*
X153904563Y-73776166D01*
X153910227Y-73753557D01*
X153918079Y-73731613D01*
X153928044Y-73710543D01*
X153940026Y-73690552D01*
X153953910Y-73671832D01*
X153969562Y-73654562D01*
X153986832Y-73638910D01*
X154005552Y-73625026D01*
X154025543Y-73613044D01*
X154046613Y-73603079D01*
X154068557Y-73595227D01*
X154091166Y-73589563D01*
X154114221Y-73586144D01*
X154137500Y-73585000D01*
X154712500Y-73585000D01*
X154735779Y-73586144D01*
X154735779Y-73586144D01*
G37*
D16*
X154425000Y-74060000D03*
G04 #@! TD*
D10*
G04 #@! TO.C,C46*
G36*
X97660779Y-83616144D02*
X97683834Y-83619563D01*
X97706443Y-83625227D01*
X97728387Y-83633079D01*
X97749457Y-83643044D01*
X97769448Y-83655026D01*
X97788168Y-83668910D01*
X97805438Y-83684562D01*
X97821090Y-83701832D01*
X97834974Y-83720552D01*
X97846956Y-83740543D01*
X97856921Y-83761613D01*
X97864773Y-83783557D01*
X97870437Y-83806166D01*
X97873856Y-83829221D01*
X97875000Y-83852500D01*
X97875000Y-84427500D01*
X97873856Y-84450779D01*
X97870437Y-84473834D01*
X97864773Y-84496443D01*
X97856921Y-84518387D01*
X97846956Y-84539457D01*
X97834974Y-84559448D01*
X97821090Y-84578168D01*
X97805438Y-84595438D01*
X97788168Y-84611090D01*
X97769448Y-84624974D01*
X97749457Y-84636956D01*
X97728387Y-84646921D01*
X97706443Y-84654773D01*
X97683834Y-84660437D01*
X97660779Y-84663856D01*
X97637500Y-84665000D01*
X97162500Y-84665000D01*
X97139221Y-84663856D01*
X97116166Y-84660437D01*
X97093557Y-84654773D01*
X97071613Y-84646921D01*
X97050543Y-84636956D01*
X97030552Y-84624974D01*
X97011832Y-84611090D01*
X96994562Y-84595438D01*
X96978910Y-84578168D01*
X96965026Y-84559448D01*
X96953044Y-84539457D01*
X96943079Y-84518387D01*
X96935227Y-84496443D01*
X96929563Y-84473834D01*
X96926144Y-84450779D01*
X96925000Y-84427500D01*
X96925000Y-83852500D01*
X96926144Y-83829221D01*
X96929563Y-83806166D01*
X96935227Y-83783557D01*
X96943079Y-83761613D01*
X96953044Y-83740543D01*
X96965026Y-83720552D01*
X96978910Y-83701832D01*
X96994562Y-83684562D01*
X97011832Y-83668910D01*
X97030552Y-83655026D01*
X97050543Y-83643044D01*
X97071613Y-83633079D01*
X97093557Y-83625227D01*
X97116166Y-83619563D01*
X97139221Y-83616144D01*
X97162500Y-83615000D01*
X97637500Y-83615000D01*
X97660779Y-83616144D01*
X97660779Y-83616144D01*
G37*
D16*
X97400000Y-84140000D03*
D10*
G36*
X97660779Y-85366144D02*
X97683834Y-85369563D01*
X97706443Y-85375227D01*
X97728387Y-85383079D01*
X97749457Y-85393044D01*
X97769448Y-85405026D01*
X97788168Y-85418910D01*
X97805438Y-85434562D01*
X97821090Y-85451832D01*
X97834974Y-85470552D01*
X97846956Y-85490543D01*
X97856921Y-85511613D01*
X97864773Y-85533557D01*
X97870437Y-85556166D01*
X97873856Y-85579221D01*
X97875000Y-85602500D01*
X97875000Y-86177500D01*
X97873856Y-86200779D01*
X97870437Y-86223834D01*
X97864773Y-86246443D01*
X97856921Y-86268387D01*
X97846956Y-86289457D01*
X97834974Y-86309448D01*
X97821090Y-86328168D01*
X97805438Y-86345438D01*
X97788168Y-86361090D01*
X97769448Y-86374974D01*
X97749457Y-86386956D01*
X97728387Y-86396921D01*
X97706443Y-86404773D01*
X97683834Y-86410437D01*
X97660779Y-86413856D01*
X97637500Y-86415000D01*
X97162500Y-86415000D01*
X97139221Y-86413856D01*
X97116166Y-86410437D01*
X97093557Y-86404773D01*
X97071613Y-86396921D01*
X97050543Y-86386956D01*
X97030552Y-86374974D01*
X97011832Y-86361090D01*
X96994562Y-86345438D01*
X96978910Y-86328168D01*
X96965026Y-86309448D01*
X96953044Y-86289457D01*
X96943079Y-86268387D01*
X96935227Y-86246443D01*
X96929563Y-86223834D01*
X96926144Y-86200779D01*
X96925000Y-86177500D01*
X96925000Y-85602500D01*
X96926144Y-85579221D01*
X96929563Y-85556166D01*
X96935227Y-85533557D01*
X96943079Y-85511613D01*
X96953044Y-85490543D01*
X96965026Y-85470552D01*
X96978910Y-85451832D01*
X96994562Y-85434562D01*
X97011832Y-85418910D01*
X97030552Y-85405026D01*
X97050543Y-85393044D01*
X97071613Y-85383079D01*
X97093557Y-85375227D01*
X97116166Y-85369563D01*
X97139221Y-85366144D01*
X97162500Y-85365000D01*
X97637500Y-85365000D01*
X97660779Y-85366144D01*
X97660779Y-85366144D01*
G37*
D16*
X97400000Y-85890000D03*
G04 #@! TD*
D10*
G04 #@! TO.C,C48*
G36*
X152560779Y-84696144D02*
X152583834Y-84699563D01*
X152606443Y-84705227D01*
X152628387Y-84713079D01*
X152649457Y-84723044D01*
X152669448Y-84735026D01*
X152688168Y-84748910D01*
X152705438Y-84764562D01*
X152721090Y-84781832D01*
X152734974Y-84800552D01*
X152746956Y-84820543D01*
X152756921Y-84841613D01*
X152764773Y-84863557D01*
X152770437Y-84886166D01*
X152773856Y-84909221D01*
X152775000Y-84932500D01*
X152775000Y-85507500D01*
X152773856Y-85530779D01*
X152770437Y-85553834D01*
X152764773Y-85576443D01*
X152756921Y-85598387D01*
X152746956Y-85619457D01*
X152734974Y-85639448D01*
X152721090Y-85658168D01*
X152705438Y-85675438D01*
X152688168Y-85691090D01*
X152669448Y-85704974D01*
X152649457Y-85716956D01*
X152628387Y-85726921D01*
X152606443Y-85734773D01*
X152583834Y-85740437D01*
X152560779Y-85743856D01*
X152537500Y-85745000D01*
X152062500Y-85745000D01*
X152039221Y-85743856D01*
X152016166Y-85740437D01*
X151993557Y-85734773D01*
X151971613Y-85726921D01*
X151950543Y-85716956D01*
X151930552Y-85704974D01*
X151911832Y-85691090D01*
X151894562Y-85675438D01*
X151878910Y-85658168D01*
X151865026Y-85639448D01*
X151853044Y-85619457D01*
X151843079Y-85598387D01*
X151835227Y-85576443D01*
X151829563Y-85553834D01*
X151826144Y-85530779D01*
X151825000Y-85507500D01*
X151825000Y-84932500D01*
X151826144Y-84909221D01*
X151829563Y-84886166D01*
X151835227Y-84863557D01*
X151843079Y-84841613D01*
X151853044Y-84820543D01*
X151865026Y-84800552D01*
X151878910Y-84781832D01*
X151894562Y-84764562D01*
X151911832Y-84748910D01*
X151930552Y-84735026D01*
X151950543Y-84723044D01*
X151971613Y-84713079D01*
X151993557Y-84705227D01*
X152016166Y-84699563D01*
X152039221Y-84696144D01*
X152062500Y-84695000D01*
X152537500Y-84695000D01*
X152560779Y-84696144D01*
X152560779Y-84696144D01*
G37*
D16*
X152300000Y-85220000D03*
D10*
G36*
X152560779Y-86446144D02*
X152583834Y-86449563D01*
X152606443Y-86455227D01*
X152628387Y-86463079D01*
X152649457Y-86473044D01*
X152669448Y-86485026D01*
X152688168Y-86498910D01*
X152705438Y-86514562D01*
X152721090Y-86531832D01*
X152734974Y-86550552D01*
X152746956Y-86570543D01*
X152756921Y-86591613D01*
X152764773Y-86613557D01*
X152770437Y-86636166D01*
X152773856Y-86659221D01*
X152775000Y-86682500D01*
X152775000Y-87257500D01*
X152773856Y-87280779D01*
X152770437Y-87303834D01*
X152764773Y-87326443D01*
X152756921Y-87348387D01*
X152746956Y-87369457D01*
X152734974Y-87389448D01*
X152721090Y-87408168D01*
X152705438Y-87425438D01*
X152688168Y-87441090D01*
X152669448Y-87454974D01*
X152649457Y-87466956D01*
X152628387Y-87476921D01*
X152606443Y-87484773D01*
X152583834Y-87490437D01*
X152560779Y-87493856D01*
X152537500Y-87495000D01*
X152062500Y-87495000D01*
X152039221Y-87493856D01*
X152016166Y-87490437D01*
X151993557Y-87484773D01*
X151971613Y-87476921D01*
X151950543Y-87466956D01*
X151930552Y-87454974D01*
X151911832Y-87441090D01*
X151894562Y-87425438D01*
X151878910Y-87408168D01*
X151865026Y-87389448D01*
X151853044Y-87369457D01*
X151843079Y-87348387D01*
X151835227Y-87326443D01*
X151829563Y-87303834D01*
X151826144Y-87280779D01*
X151825000Y-87257500D01*
X151825000Y-86682500D01*
X151826144Y-86659221D01*
X151829563Y-86636166D01*
X151835227Y-86613557D01*
X151843079Y-86591613D01*
X151853044Y-86570543D01*
X151865026Y-86550552D01*
X151878910Y-86531832D01*
X151894562Y-86514562D01*
X151911832Y-86498910D01*
X151930552Y-86485026D01*
X151950543Y-86473044D01*
X151971613Y-86463079D01*
X151993557Y-86455227D01*
X152016166Y-86449563D01*
X152039221Y-86446144D01*
X152062500Y-86445000D01*
X152537500Y-86445000D01*
X152560779Y-86446144D01*
X152560779Y-86446144D01*
G37*
D16*
X152300000Y-86970000D03*
G04 #@! TD*
D10*
G04 #@! TO.C,C49*
G36*
X152660779Y-105471144D02*
X152683834Y-105474563D01*
X152706443Y-105480227D01*
X152728387Y-105488079D01*
X152749457Y-105498044D01*
X152769448Y-105510026D01*
X152788168Y-105523910D01*
X152805438Y-105539562D01*
X152821090Y-105556832D01*
X152834974Y-105575552D01*
X152846956Y-105595543D01*
X152856921Y-105616613D01*
X152864773Y-105638557D01*
X152870437Y-105661166D01*
X152873856Y-105684221D01*
X152875000Y-105707500D01*
X152875000Y-106282500D01*
X152873856Y-106305779D01*
X152870437Y-106328834D01*
X152864773Y-106351443D01*
X152856921Y-106373387D01*
X152846956Y-106394457D01*
X152834974Y-106414448D01*
X152821090Y-106433168D01*
X152805438Y-106450438D01*
X152788168Y-106466090D01*
X152769448Y-106479974D01*
X152749457Y-106491956D01*
X152728387Y-106501921D01*
X152706443Y-106509773D01*
X152683834Y-106515437D01*
X152660779Y-106518856D01*
X152637500Y-106520000D01*
X152162500Y-106520000D01*
X152139221Y-106518856D01*
X152116166Y-106515437D01*
X152093557Y-106509773D01*
X152071613Y-106501921D01*
X152050543Y-106491956D01*
X152030552Y-106479974D01*
X152011832Y-106466090D01*
X151994562Y-106450438D01*
X151978910Y-106433168D01*
X151965026Y-106414448D01*
X151953044Y-106394457D01*
X151943079Y-106373387D01*
X151935227Y-106351443D01*
X151929563Y-106328834D01*
X151926144Y-106305779D01*
X151925000Y-106282500D01*
X151925000Y-105707500D01*
X151926144Y-105684221D01*
X151929563Y-105661166D01*
X151935227Y-105638557D01*
X151943079Y-105616613D01*
X151953044Y-105595543D01*
X151965026Y-105575552D01*
X151978910Y-105556832D01*
X151994562Y-105539562D01*
X152011832Y-105523910D01*
X152030552Y-105510026D01*
X152050543Y-105498044D01*
X152071613Y-105488079D01*
X152093557Y-105480227D01*
X152116166Y-105474563D01*
X152139221Y-105471144D01*
X152162500Y-105470000D01*
X152637500Y-105470000D01*
X152660779Y-105471144D01*
X152660779Y-105471144D01*
G37*
D16*
X152400000Y-105995000D03*
D10*
G36*
X152660779Y-103721144D02*
X152683834Y-103724563D01*
X152706443Y-103730227D01*
X152728387Y-103738079D01*
X152749457Y-103748044D01*
X152769448Y-103760026D01*
X152788168Y-103773910D01*
X152805438Y-103789562D01*
X152821090Y-103806832D01*
X152834974Y-103825552D01*
X152846956Y-103845543D01*
X152856921Y-103866613D01*
X152864773Y-103888557D01*
X152870437Y-103911166D01*
X152873856Y-103934221D01*
X152875000Y-103957500D01*
X152875000Y-104532500D01*
X152873856Y-104555779D01*
X152870437Y-104578834D01*
X152864773Y-104601443D01*
X152856921Y-104623387D01*
X152846956Y-104644457D01*
X152834974Y-104664448D01*
X152821090Y-104683168D01*
X152805438Y-104700438D01*
X152788168Y-104716090D01*
X152769448Y-104729974D01*
X152749457Y-104741956D01*
X152728387Y-104751921D01*
X152706443Y-104759773D01*
X152683834Y-104765437D01*
X152660779Y-104768856D01*
X152637500Y-104770000D01*
X152162500Y-104770000D01*
X152139221Y-104768856D01*
X152116166Y-104765437D01*
X152093557Y-104759773D01*
X152071613Y-104751921D01*
X152050543Y-104741956D01*
X152030552Y-104729974D01*
X152011832Y-104716090D01*
X151994562Y-104700438D01*
X151978910Y-104683168D01*
X151965026Y-104664448D01*
X151953044Y-104644457D01*
X151943079Y-104623387D01*
X151935227Y-104601443D01*
X151929563Y-104578834D01*
X151926144Y-104555779D01*
X151925000Y-104532500D01*
X151925000Y-103957500D01*
X151926144Y-103934221D01*
X151929563Y-103911166D01*
X151935227Y-103888557D01*
X151943079Y-103866613D01*
X151953044Y-103845543D01*
X151965026Y-103825552D01*
X151978910Y-103806832D01*
X151994562Y-103789562D01*
X152011832Y-103773910D01*
X152030552Y-103760026D01*
X152050543Y-103748044D01*
X152071613Y-103738079D01*
X152093557Y-103730227D01*
X152116166Y-103724563D01*
X152139221Y-103721144D01*
X152162500Y-103720000D01*
X152637500Y-103720000D01*
X152660779Y-103721144D01*
X152660779Y-103721144D01*
G37*
D16*
X152400000Y-104245000D03*
G04 #@! TD*
D10*
G04 #@! TO.C,C50*
G36*
X97660779Y-66366144D02*
X97683834Y-66369563D01*
X97706443Y-66375227D01*
X97728387Y-66383079D01*
X97749457Y-66393044D01*
X97769448Y-66405026D01*
X97788168Y-66418910D01*
X97805438Y-66434562D01*
X97821090Y-66451832D01*
X97834974Y-66470552D01*
X97846956Y-66490543D01*
X97856921Y-66511613D01*
X97864773Y-66533557D01*
X97870437Y-66556166D01*
X97873856Y-66579221D01*
X97875000Y-66602500D01*
X97875000Y-67177500D01*
X97873856Y-67200779D01*
X97870437Y-67223834D01*
X97864773Y-67246443D01*
X97856921Y-67268387D01*
X97846956Y-67289457D01*
X97834974Y-67309448D01*
X97821090Y-67328168D01*
X97805438Y-67345438D01*
X97788168Y-67361090D01*
X97769448Y-67374974D01*
X97749457Y-67386956D01*
X97728387Y-67396921D01*
X97706443Y-67404773D01*
X97683834Y-67410437D01*
X97660779Y-67413856D01*
X97637500Y-67415000D01*
X97162500Y-67415000D01*
X97139221Y-67413856D01*
X97116166Y-67410437D01*
X97093557Y-67404773D01*
X97071613Y-67396921D01*
X97050543Y-67386956D01*
X97030552Y-67374974D01*
X97011832Y-67361090D01*
X96994562Y-67345438D01*
X96978910Y-67328168D01*
X96965026Y-67309448D01*
X96953044Y-67289457D01*
X96943079Y-67268387D01*
X96935227Y-67246443D01*
X96929563Y-67223834D01*
X96926144Y-67200779D01*
X96925000Y-67177500D01*
X96925000Y-66602500D01*
X96926144Y-66579221D01*
X96929563Y-66556166D01*
X96935227Y-66533557D01*
X96943079Y-66511613D01*
X96953044Y-66490543D01*
X96965026Y-66470552D01*
X96978910Y-66451832D01*
X96994562Y-66434562D01*
X97011832Y-66418910D01*
X97030552Y-66405026D01*
X97050543Y-66393044D01*
X97071613Y-66383079D01*
X97093557Y-66375227D01*
X97116166Y-66369563D01*
X97139221Y-66366144D01*
X97162500Y-66365000D01*
X97637500Y-66365000D01*
X97660779Y-66366144D01*
X97660779Y-66366144D01*
G37*
D16*
X97400000Y-66890000D03*
D10*
G36*
X97660779Y-64616144D02*
X97683834Y-64619563D01*
X97706443Y-64625227D01*
X97728387Y-64633079D01*
X97749457Y-64643044D01*
X97769448Y-64655026D01*
X97788168Y-64668910D01*
X97805438Y-64684562D01*
X97821090Y-64701832D01*
X97834974Y-64720552D01*
X97846956Y-64740543D01*
X97856921Y-64761613D01*
X97864773Y-64783557D01*
X97870437Y-64806166D01*
X97873856Y-64829221D01*
X97875000Y-64852500D01*
X97875000Y-65427500D01*
X97873856Y-65450779D01*
X97870437Y-65473834D01*
X97864773Y-65496443D01*
X97856921Y-65518387D01*
X97846956Y-65539457D01*
X97834974Y-65559448D01*
X97821090Y-65578168D01*
X97805438Y-65595438D01*
X97788168Y-65611090D01*
X97769448Y-65624974D01*
X97749457Y-65636956D01*
X97728387Y-65646921D01*
X97706443Y-65654773D01*
X97683834Y-65660437D01*
X97660779Y-65663856D01*
X97637500Y-65665000D01*
X97162500Y-65665000D01*
X97139221Y-65663856D01*
X97116166Y-65660437D01*
X97093557Y-65654773D01*
X97071613Y-65646921D01*
X97050543Y-65636956D01*
X97030552Y-65624974D01*
X97011832Y-65611090D01*
X96994562Y-65595438D01*
X96978910Y-65578168D01*
X96965026Y-65559448D01*
X96953044Y-65539457D01*
X96943079Y-65518387D01*
X96935227Y-65496443D01*
X96929563Y-65473834D01*
X96926144Y-65450779D01*
X96925000Y-65427500D01*
X96925000Y-64852500D01*
X96926144Y-64829221D01*
X96929563Y-64806166D01*
X96935227Y-64783557D01*
X96943079Y-64761613D01*
X96953044Y-64740543D01*
X96965026Y-64720552D01*
X96978910Y-64701832D01*
X96994562Y-64684562D01*
X97011832Y-64668910D01*
X97030552Y-64655026D01*
X97050543Y-64643044D01*
X97071613Y-64633079D01*
X97093557Y-64625227D01*
X97116166Y-64619563D01*
X97139221Y-64616144D01*
X97162500Y-64615000D01*
X97637500Y-64615000D01*
X97660779Y-64616144D01*
X97660779Y-64616144D01*
G37*
D16*
X97400000Y-65140000D03*
G04 #@! TD*
D10*
G04 #@! TO.C,C44*
G36*
X110680779Y-87371144D02*
X110703834Y-87374563D01*
X110726443Y-87380227D01*
X110748387Y-87388079D01*
X110769457Y-87398044D01*
X110789448Y-87410026D01*
X110808168Y-87423910D01*
X110825438Y-87439562D01*
X110841090Y-87456832D01*
X110854974Y-87475552D01*
X110866956Y-87495543D01*
X110876921Y-87516613D01*
X110884773Y-87538557D01*
X110890437Y-87561166D01*
X110893856Y-87584221D01*
X110895000Y-87607500D01*
X110895000Y-88182500D01*
X110893856Y-88205779D01*
X110890437Y-88228834D01*
X110884773Y-88251443D01*
X110876921Y-88273387D01*
X110866956Y-88294457D01*
X110854974Y-88314448D01*
X110841090Y-88333168D01*
X110825438Y-88350438D01*
X110808168Y-88366090D01*
X110789448Y-88379974D01*
X110769457Y-88391956D01*
X110748387Y-88401921D01*
X110726443Y-88409773D01*
X110703834Y-88415437D01*
X110680779Y-88418856D01*
X110657500Y-88420000D01*
X110182500Y-88420000D01*
X110159221Y-88418856D01*
X110136166Y-88415437D01*
X110113557Y-88409773D01*
X110091613Y-88401921D01*
X110070543Y-88391956D01*
X110050552Y-88379974D01*
X110031832Y-88366090D01*
X110014562Y-88350438D01*
X109998910Y-88333168D01*
X109985026Y-88314448D01*
X109973044Y-88294457D01*
X109963079Y-88273387D01*
X109955227Y-88251443D01*
X109949563Y-88228834D01*
X109946144Y-88205779D01*
X109945000Y-88182500D01*
X109945000Y-87607500D01*
X109946144Y-87584221D01*
X109949563Y-87561166D01*
X109955227Y-87538557D01*
X109963079Y-87516613D01*
X109973044Y-87495543D01*
X109985026Y-87475552D01*
X109998910Y-87456832D01*
X110014562Y-87439562D01*
X110031832Y-87423910D01*
X110050552Y-87410026D01*
X110070543Y-87398044D01*
X110091613Y-87388079D01*
X110113557Y-87380227D01*
X110136166Y-87374563D01*
X110159221Y-87371144D01*
X110182500Y-87370000D01*
X110657500Y-87370000D01*
X110680779Y-87371144D01*
X110680779Y-87371144D01*
G37*
D16*
X110420000Y-87895000D03*
D10*
G36*
X110680779Y-85621144D02*
X110703834Y-85624563D01*
X110726443Y-85630227D01*
X110748387Y-85638079D01*
X110769457Y-85648044D01*
X110789448Y-85660026D01*
X110808168Y-85673910D01*
X110825438Y-85689562D01*
X110841090Y-85706832D01*
X110854974Y-85725552D01*
X110866956Y-85745543D01*
X110876921Y-85766613D01*
X110884773Y-85788557D01*
X110890437Y-85811166D01*
X110893856Y-85834221D01*
X110895000Y-85857500D01*
X110895000Y-86432500D01*
X110893856Y-86455779D01*
X110890437Y-86478834D01*
X110884773Y-86501443D01*
X110876921Y-86523387D01*
X110866956Y-86544457D01*
X110854974Y-86564448D01*
X110841090Y-86583168D01*
X110825438Y-86600438D01*
X110808168Y-86616090D01*
X110789448Y-86629974D01*
X110769457Y-86641956D01*
X110748387Y-86651921D01*
X110726443Y-86659773D01*
X110703834Y-86665437D01*
X110680779Y-86668856D01*
X110657500Y-86670000D01*
X110182500Y-86670000D01*
X110159221Y-86668856D01*
X110136166Y-86665437D01*
X110113557Y-86659773D01*
X110091613Y-86651921D01*
X110070543Y-86641956D01*
X110050552Y-86629974D01*
X110031832Y-86616090D01*
X110014562Y-86600438D01*
X109998910Y-86583168D01*
X109985026Y-86564448D01*
X109973044Y-86544457D01*
X109963079Y-86523387D01*
X109955227Y-86501443D01*
X109949563Y-86478834D01*
X109946144Y-86455779D01*
X109945000Y-86432500D01*
X109945000Y-85857500D01*
X109946144Y-85834221D01*
X109949563Y-85811166D01*
X109955227Y-85788557D01*
X109963079Y-85766613D01*
X109973044Y-85745543D01*
X109985026Y-85725552D01*
X109998910Y-85706832D01*
X110014562Y-85689562D01*
X110031832Y-85673910D01*
X110050552Y-85660026D01*
X110070543Y-85648044D01*
X110091613Y-85638079D01*
X110113557Y-85630227D01*
X110136166Y-85624563D01*
X110159221Y-85621144D01*
X110182500Y-85620000D01*
X110657500Y-85620000D01*
X110680779Y-85621144D01*
X110680779Y-85621144D01*
G37*
D16*
X110420000Y-86145000D03*
G04 #@! TD*
D10*
G04 #@! TO.C,C51*
G36*
X109460779Y-67166144D02*
X109483834Y-67169563D01*
X109506443Y-67175227D01*
X109528387Y-67183079D01*
X109549457Y-67193044D01*
X109569448Y-67205026D01*
X109588168Y-67218910D01*
X109605438Y-67234562D01*
X109621090Y-67251832D01*
X109634974Y-67270552D01*
X109646956Y-67290543D01*
X109656921Y-67311613D01*
X109664773Y-67333557D01*
X109670437Y-67356166D01*
X109673856Y-67379221D01*
X109675000Y-67402500D01*
X109675000Y-67977500D01*
X109673856Y-68000779D01*
X109670437Y-68023834D01*
X109664773Y-68046443D01*
X109656921Y-68068387D01*
X109646956Y-68089457D01*
X109634974Y-68109448D01*
X109621090Y-68128168D01*
X109605438Y-68145438D01*
X109588168Y-68161090D01*
X109569448Y-68174974D01*
X109549457Y-68186956D01*
X109528387Y-68196921D01*
X109506443Y-68204773D01*
X109483834Y-68210437D01*
X109460779Y-68213856D01*
X109437500Y-68215000D01*
X108962500Y-68215000D01*
X108939221Y-68213856D01*
X108916166Y-68210437D01*
X108893557Y-68204773D01*
X108871613Y-68196921D01*
X108850543Y-68186956D01*
X108830552Y-68174974D01*
X108811832Y-68161090D01*
X108794562Y-68145438D01*
X108778910Y-68128168D01*
X108765026Y-68109448D01*
X108753044Y-68089457D01*
X108743079Y-68068387D01*
X108735227Y-68046443D01*
X108729563Y-68023834D01*
X108726144Y-68000779D01*
X108725000Y-67977500D01*
X108725000Y-67402500D01*
X108726144Y-67379221D01*
X108729563Y-67356166D01*
X108735227Y-67333557D01*
X108743079Y-67311613D01*
X108753044Y-67290543D01*
X108765026Y-67270552D01*
X108778910Y-67251832D01*
X108794562Y-67234562D01*
X108811832Y-67218910D01*
X108830552Y-67205026D01*
X108850543Y-67193044D01*
X108871613Y-67183079D01*
X108893557Y-67175227D01*
X108916166Y-67169563D01*
X108939221Y-67166144D01*
X108962500Y-67165000D01*
X109437500Y-67165000D01*
X109460779Y-67166144D01*
X109460779Y-67166144D01*
G37*
D16*
X109200000Y-67690000D03*
D10*
G36*
X109460779Y-68916144D02*
X109483834Y-68919563D01*
X109506443Y-68925227D01*
X109528387Y-68933079D01*
X109549457Y-68943044D01*
X109569448Y-68955026D01*
X109588168Y-68968910D01*
X109605438Y-68984562D01*
X109621090Y-69001832D01*
X109634974Y-69020552D01*
X109646956Y-69040543D01*
X109656921Y-69061613D01*
X109664773Y-69083557D01*
X109670437Y-69106166D01*
X109673856Y-69129221D01*
X109675000Y-69152500D01*
X109675000Y-69727500D01*
X109673856Y-69750779D01*
X109670437Y-69773834D01*
X109664773Y-69796443D01*
X109656921Y-69818387D01*
X109646956Y-69839457D01*
X109634974Y-69859448D01*
X109621090Y-69878168D01*
X109605438Y-69895438D01*
X109588168Y-69911090D01*
X109569448Y-69924974D01*
X109549457Y-69936956D01*
X109528387Y-69946921D01*
X109506443Y-69954773D01*
X109483834Y-69960437D01*
X109460779Y-69963856D01*
X109437500Y-69965000D01*
X108962500Y-69965000D01*
X108939221Y-69963856D01*
X108916166Y-69960437D01*
X108893557Y-69954773D01*
X108871613Y-69946921D01*
X108850543Y-69936956D01*
X108830552Y-69924974D01*
X108811832Y-69911090D01*
X108794562Y-69895438D01*
X108778910Y-69878168D01*
X108765026Y-69859448D01*
X108753044Y-69839457D01*
X108743079Y-69818387D01*
X108735227Y-69796443D01*
X108729563Y-69773834D01*
X108726144Y-69750779D01*
X108725000Y-69727500D01*
X108725000Y-69152500D01*
X108726144Y-69129221D01*
X108729563Y-69106166D01*
X108735227Y-69083557D01*
X108743079Y-69061613D01*
X108753044Y-69040543D01*
X108765026Y-69020552D01*
X108778910Y-69001832D01*
X108794562Y-68984562D01*
X108811832Y-68968910D01*
X108830552Y-68955026D01*
X108850543Y-68943044D01*
X108871613Y-68933079D01*
X108893557Y-68925227D01*
X108916166Y-68919563D01*
X108939221Y-68916144D01*
X108962500Y-68915000D01*
X109437500Y-68915000D01*
X109460779Y-68916144D01*
X109460779Y-68916144D01*
G37*
D16*
X109200000Y-69440000D03*
G04 #@! TD*
D10*
G04 #@! TO.C,C52*
G36*
X103660779Y-68666144D02*
X103683834Y-68669563D01*
X103706443Y-68675227D01*
X103728387Y-68683079D01*
X103749457Y-68693044D01*
X103769448Y-68705026D01*
X103788168Y-68718910D01*
X103805438Y-68734562D01*
X103821090Y-68751832D01*
X103834974Y-68770552D01*
X103846956Y-68790543D01*
X103856921Y-68811613D01*
X103864773Y-68833557D01*
X103870437Y-68856166D01*
X103873856Y-68879221D01*
X103875000Y-68902500D01*
X103875000Y-69477500D01*
X103873856Y-69500779D01*
X103870437Y-69523834D01*
X103864773Y-69546443D01*
X103856921Y-69568387D01*
X103846956Y-69589457D01*
X103834974Y-69609448D01*
X103821090Y-69628168D01*
X103805438Y-69645438D01*
X103788168Y-69661090D01*
X103769448Y-69674974D01*
X103749457Y-69686956D01*
X103728387Y-69696921D01*
X103706443Y-69704773D01*
X103683834Y-69710437D01*
X103660779Y-69713856D01*
X103637500Y-69715000D01*
X103162500Y-69715000D01*
X103139221Y-69713856D01*
X103116166Y-69710437D01*
X103093557Y-69704773D01*
X103071613Y-69696921D01*
X103050543Y-69686956D01*
X103030552Y-69674974D01*
X103011832Y-69661090D01*
X102994562Y-69645438D01*
X102978910Y-69628168D01*
X102965026Y-69609448D01*
X102953044Y-69589457D01*
X102943079Y-69568387D01*
X102935227Y-69546443D01*
X102929563Y-69523834D01*
X102926144Y-69500779D01*
X102925000Y-69477500D01*
X102925000Y-68902500D01*
X102926144Y-68879221D01*
X102929563Y-68856166D01*
X102935227Y-68833557D01*
X102943079Y-68811613D01*
X102953044Y-68790543D01*
X102965026Y-68770552D01*
X102978910Y-68751832D01*
X102994562Y-68734562D01*
X103011832Y-68718910D01*
X103030552Y-68705026D01*
X103050543Y-68693044D01*
X103071613Y-68683079D01*
X103093557Y-68675227D01*
X103116166Y-68669563D01*
X103139221Y-68666144D01*
X103162500Y-68665000D01*
X103637500Y-68665000D01*
X103660779Y-68666144D01*
X103660779Y-68666144D01*
G37*
D16*
X103400000Y-69190000D03*
D10*
G36*
X103660779Y-66916144D02*
X103683834Y-66919563D01*
X103706443Y-66925227D01*
X103728387Y-66933079D01*
X103749457Y-66943044D01*
X103769448Y-66955026D01*
X103788168Y-66968910D01*
X103805438Y-66984562D01*
X103821090Y-67001832D01*
X103834974Y-67020552D01*
X103846956Y-67040543D01*
X103856921Y-67061613D01*
X103864773Y-67083557D01*
X103870437Y-67106166D01*
X103873856Y-67129221D01*
X103875000Y-67152500D01*
X103875000Y-67727500D01*
X103873856Y-67750779D01*
X103870437Y-67773834D01*
X103864773Y-67796443D01*
X103856921Y-67818387D01*
X103846956Y-67839457D01*
X103834974Y-67859448D01*
X103821090Y-67878168D01*
X103805438Y-67895438D01*
X103788168Y-67911090D01*
X103769448Y-67924974D01*
X103749457Y-67936956D01*
X103728387Y-67946921D01*
X103706443Y-67954773D01*
X103683834Y-67960437D01*
X103660779Y-67963856D01*
X103637500Y-67965000D01*
X103162500Y-67965000D01*
X103139221Y-67963856D01*
X103116166Y-67960437D01*
X103093557Y-67954773D01*
X103071613Y-67946921D01*
X103050543Y-67936956D01*
X103030552Y-67924974D01*
X103011832Y-67911090D01*
X102994562Y-67895438D01*
X102978910Y-67878168D01*
X102965026Y-67859448D01*
X102953044Y-67839457D01*
X102943079Y-67818387D01*
X102935227Y-67796443D01*
X102929563Y-67773834D01*
X102926144Y-67750779D01*
X102925000Y-67727500D01*
X102925000Y-67152500D01*
X102926144Y-67129221D01*
X102929563Y-67106166D01*
X102935227Y-67083557D01*
X102943079Y-67061613D01*
X102953044Y-67040543D01*
X102965026Y-67020552D01*
X102978910Y-67001832D01*
X102994562Y-66984562D01*
X103011832Y-66968910D01*
X103030552Y-66955026D01*
X103050543Y-66943044D01*
X103071613Y-66933079D01*
X103093557Y-66925227D01*
X103116166Y-66919563D01*
X103139221Y-66916144D01*
X103162500Y-66915000D01*
X103637500Y-66915000D01*
X103660779Y-66916144D01*
X103660779Y-66916144D01*
G37*
D16*
X103400000Y-67440000D03*
G04 #@! TD*
D10*
G04 #@! TO.C,C53*
G36*
X95885779Y-117466144D02*
X95908834Y-117469563D01*
X95931443Y-117475227D01*
X95953387Y-117483079D01*
X95974457Y-117493044D01*
X95994448Y-117505026D01*
X96013168Y-117518910D01*
X96030438Y-117534562D01*
X96046090Y-117551832D01*
X96059974Y-117570552D01*
X96071956Y-117590543D01*
X96081921Y-117611613D01*
X96089773Y-117633557D01*
X96095437Y-117656166D01*
X96098856Y-117679221D01*
X96100000Y-117702500D01*
X96100000Y-118177500D01*
X96098856Y-118200779D01*
X96095437Y-118223834D01*
X96089773Y-118246443D01*
X96081921Y-118268387D01*
X96071956Y-118289457D01*
X96059974Y-118309448D01*
X96046090Y-118328168D01*
X96030438Y-118345438D01*
X96013168Y-118361090D01*
X95994448Y-118374974D01*
X95974457Y-118386956D01*
X95953387Y-118396921D01*
X95931443Y-118404773D01*
X95908834Y-118410437D01*
X95885779Y-118413856D01*
X95862500Y-118415000D01*
X95287500Y-118415000D01*
X95264221Y-118413856D01*
X95241166Y-118410437D01*
X95218557Y-118404773D01*
X95196613Y-118396921D01*
X95175543Y-118386956D01*
X95155552Y-118374974D01*
X95136832Y-118361090D01*
X95119562Y-118345438D01*
X95103910Y-118328168D01*
X95090026Y-118309448D01*
X95078044Y-118289457D01*
X95068079Y-118268387D01*
X95060227Y-118246443D01*
X95054563Y-118223834D01*
X95051144Y-118200779D01*
X95050000Y-118177500D01*
X95050000Y-117702500D01*
X95051144Y-117679221D01*
X95054563Y-117656166D01*
X95060227Y-117633557D01*
X95068079Y-117611613D01*
X95078044Y-117590543D01*
X95090026Y-117570552D01*
X95103910Y-117551832D01*
X95119562Y-117534562D01*
X95136832Y-117518910D01*
X95155552Y-117505026D01*
X95175543Y-117493044D01*
X95196613Y-117483079D01*
X95218557Y-117475227D01*
X95241166Y-117469563D01*
X95264221Y-117466144D01*
X95287500Y-117465000D01*
X95862500Y-117465000D01*
X95885779Y-117466144D01*
X95885779Y-117466144D01*
G37*
D16*
X95575000Y-117940000D03*
D10*
G36*
X94135779Y-117466144D02*
X94158834Y-117469563D01*
X94181443Y-117475227D01*
X94203387Y-117483079D01*
X94224457Y-117493044D01*
X94244448Y-117505026D01*
X94263168Y-117518910D01*
X94280438Y-117534562D01*
X94296090Y-117551832D01*
X94309974Y-117570552D01*
X94321956Y-117590543D01*
X94331921Y-117611613D01*
X94339773Y-117633557D01*
X94345437Y-117656166D01*
X94348856Y-117679221D01*
X94350000Y-117702500D01*
X94350000Y-118177500D01*
X94348856Y-118200779D01*
X94345437Y-118223834D01*
X94339773Y-118246443D01*
X94331921Y-118268387D01*
X94321956Y-118289457D01*
X94309974Y-118309448D01*
X94296090Y-118328168D01*
X94280438Y-118345438D01*
X94263168Y-118361090D01*
X94244448Y-118374974D01*
X94224457Y-118386956D01*
X94203387Y-118396921D01*
X94181443Y-118404773D01*
X94158834Y-118410437D01*
X94135779Y-118413856D01*
X94112500Y-118415000D01*
X93537500Y-118415000D01*
X93514221Y-118413856D01*
X93491166Y-118410437D01*
X93468557Y-118404773D01*
X93446613Y-118396921D01*
X93425543Y-118386956D01*
X93405552Y-118374974D01*
X93386832Y-118361090D01*
X93369562Y-118345438D01*
X93353910Y-118328168D01*
X93340026Y-118309448D01*
X93328044Y-118289457D01*
X93318079Y-118268387D01*
X93310227Y-118246443D01*
X93304563Y-118223834D01*
X93301144Y-118200779D01*
X93300000Y-118177500D01*
X93300000Y-117702500D01*
X93301144Y-117679221D01*
X93304563Y-117656166D01*
X93310227Y-117633557D01*
X93318079Y-117611613D01*
X93328044Y-117590543D01*
X93340026Y-117570552D01*
X93353910Y-117551832D01*
X93369562Y-117534562D01*
X93386832Y-117518910D01*
X93405552Y-117505026D01*
X93425543Y-117493044D01*
X93446613Y-117483079D01*
X93468557Y-117475227D01*
X93491166Y-117469563D01*
X93514221Y-117466144D01*
X93537500Y-117465000D01*
X94112500Y-117465000D01*
X94135779Y-117466144D01*
X94135779Y-117466144D01*
G37*
D16*
X93825000Y-117940000D03*
G04 #@! TD*
D10*
G04 #@! TO.C,C47*
G36*
X156885779Y-117846144D02*
X156908834Y-117849563D01*
X156931443Y-117855227D01*
X156953387Y-117863079D01*
X156974457Y-117873044D01*
X156994448Y-117885026D01*
X157013168Y-117898910D01*
X157030438Y-117914562D01*
X157046090Y-117931832D01*
X157059974Y-117950552D01*
X157071956Y-117970543D01*
X157081921Y-117991613D01*
X157089773Y-118013557D01*
X157095437Y-118036166D01*
X157098856Y-118059221D01*
X157100000Y-118082500D01*
X157100000Y-118557500D01*
X157098856Y-118580779D01*
X157095437Y-118603834D01*
X157089773Y-118626443D01*
X157081921Y-118648387D01*
X157071956Y-118669457D01*
X157059974Y-118689448D01*
X157046090Y-118708168D01*
X157030438Y-118725438D01*
X157013168Y-118741090D01*
X156994448Y-118754974D01*
X156974457Y-118766956D01*
X156953387Y-118776921D01*
X156931443Y-118784773D01*
X156908834Y-118790437D01*
X156885779Y-118793856D01*
X156862500Y-118795000D01*
X156287500Y-118795000D01*
X156264221Y-118793856D01*
X156241166Y-118790437D01*
X156218557Y-118784773D01*
X156196613Y-118776921D01*
X156175543Y-118766956D01*
X156155552Y-118754974D01*
X156136832Y-118741090D01*
X156119562Y-118725438D01*
X156103910Y-118708168D01*
X156090026Y-118689448D01*
X156078044Y-118669457D01*
X156068079Y-118648387D01*
X156060227Y-118626443D01*
X156054563Y-118603834D01*
X156051144Y-118580779D01*
X156050000Y-118557500D01*
X156050000Y-118082500D01*
X156051144Y-118059221D01*
X156054563Y-118036166D01*
X156060227Y-118013557D01*
X156068079Y-117991613D01*
X156078044Y-117970543D01*
X156090026Y-117950552D01*
X156103910Y-117931832D01*
X156119562Y-117914562D01*
X156136832Y-117898910D01*
X156155552Y-117885026D01*
X156175543Y-117873044D01*
X156196613Y-117863079D01*
X156218557Y-117855227D01*
X156241166Y-117849563D01*
X156264221Y-117846144D01*
X156287500Y-117845000D01*
X156862500Y-117845000D01*
X156885779Y-117846144D01*
X156885779Y-117846144D01*
G37*
D16*
X156575000Y-118320000D03*
D10*
G36*
X155135779Y-117846144D02*
X155158834Y-117849563D01*
X155181443Y-117855227D01*
X155203387Y-117863079D01*
X155224457Y-117873044D01*
X155244448Y-117885026D01*
X155263168Y-117898910D01*
X155280438Y-117914562D01*
X155296090Y-117931832D01*
X155309974Y-117950552D01*
X155321956Y-117970543D01*
X155331921Y-117991613D01*
X155339773Y-118013557D01*
X155345437Y-118036166D01*
X155348856Y-118059221D01*
X155350000Y-118082500D01*
X155350000Y-118557500D01*
X155348856Y-118580779D01*
X155345437Y-118603834D01*
X155339773Y-118626443D01*
X155331921Y-118648387D01*
X155321956Y-118669457D01*
X155309974Y-118689448D01*
X155296090Y-118708168D01*
X155280438Y-118725438D01*
X155263168Y-118741090D01*
X155244448Y-118754974D01*
X155224457Y-118766956D01*
X155203387Y-118776921D01*
X155181443Y-118784773D01*
X155158834Y-118790437D01*
X155135779Y-118793856D01*
X155112500Y-118795000D01*
X154537500Y-118795000D01*
X154514221Y-118793856D01*
X154491166Y-118790437D01*
X154468557Y-118784773D01*
X154446613Y-118776921D01*
X154425543Y-118766956D01*
X154405552Y-118754974D01*
X154386832Y-118741090D01*
X154369562Y-118725438D01*
X154353910Y-118708168D01*
X154340026Y-118689448D01*
X154328044Y-118669457D01*
X154318079Y-118648387D01*
X154310227Y-118626443D01*
X154304563Y-118603834D01*
X154301144Y-118580779D01*
X154300000Y-118557500D01*
X154300000Y-118082500D01*
X154301144Y-118059221D01*
X154304563Y-118036166D01*
X154310227Y-118013557D01*
X154318079Y-117991613D01*
X154328044Y-117970543D01*
X154340026Y-117950552D01*
X154353910Y-117931832D01*
X154369562Y-117914562D01*
X154386832Y-117898910D01*
X154405552Y-117885026D01*
X154425543Y-117873044D01*
X154446613Y-117863079D01*
X154468557Y-117855227D01*
X154491166Y-117849563D01*
X154514221Y-117846144D01*
X154537500Y-117845000D01*
X155112500Y-117845000D01*
X155135779Y-117846144D01*
X155135779Y-117846144D01*
G37*
D16*
X154825000Y-118320000D03*
G04 #@! TD*
D10*
G04 #@! TO.C,R40*
G36*
X120510779Y-95891144D02*
X120533834Y-95894563D01*
X120556443Y-95900227D01*
X120578387Y-95908079D01*
X120599457Y-95918044D01*
X120619448Y-95930026D01*
X120638168Y-95943910D01*
X120655438Y-95959562D01*
X120671090Y-95976832D01*
X120684974Y-95995552D01*
X120696956Y-96015543D01*
X120706921Y-96036613D01*
X120714773Y-96058557D01*
X120720437Y-96081166D01*
X120723856Y-96104221D01*
X120725000Y-96127500D01*
X120725000Y-96702500D01*
X120723856Y-96725779D01*
X120720437Y-96748834D01*
X120714773Y-96771443D01*
X120706921Y-96793387D01*
X120696956Y-96814457D01*
X120684974Y-96834448D01*
X120671090Y-96853168D01*
X120655438Y-96870438D01*
X120638168Y-96886090D01*
X120619448Y-96899974D01*
X120599457Y-96911956D01*
X120578387Y-96921921D01*
X120556443Y-96929773D01*
X120533834Y-96935437D01*
X120510779Y-96938856D01*
X120487500Y-96940000D01*
X120012500Y-96940000D01*
X119989221Y-96938856D01*
X119966166Y-96935437D01*
X119943557Y-96929773D01*
X119921613Y-96921921D01*
X119900543Y-96911956D01*
X119880552Y-96899974D01*
X119861832Y-96886090D01*
X119844562Y-96870438D01*
X119828910Y-96853168D01*
X119815026Y-96834448D01*
X119803044Y-96814457D01*
X119793079Y-96793387D01*
X119785227Y-96771443D01*
X119779563Y-96748834D01*
X119776144Y-96725779D01*
X119775000Y-96702500D01*
X119775000Y-96127500D01*
X119776144Y-96104221D01*
X119779563Y-96081166D01*
X119785227Y-96058557D01*
X119793079Y-96036613D01*
X119803044Y-96015543D01*
X119815026Y-95995552D01*
X119828910Y-95976832D01*
X119844562Y-95959562D01*
X119861832Y-95943910D01*
X119880552Y-95930026D01*
X119900543Y-95918044D01*
X119921613Y-95908079D01*
X119943557Y-95900227D01*
X119966166Y-95894563D01*
X119989221Y-95891144D01*
X120012500Y-95890000D01*
X120487500Y-95890000D01*
X120510779Y-95891144D01*
X120510779Y-95891144D01*
G37*
D16*
X120250000Y-96415000D03*
D10*
G36*
X120510779Y-97641144D02*
X120533834Y-97644563D01*
X120556443Y-97650227D01*
X120578387Y-97658079D01*
X120599457Y-97668044D01*
X120619448Y-97680026D01*
X120638168Y-97693910D01*
X120655438Y-97709562D01*
X120671090Y-97726832D01*
X120684974Y-97745552D01*
X120696956Y-97765543D01*
X120706921Y-97786613D01*
X120714773Y-97808557D01*
X120720437Y-97831166D01*
X120723856Y-97854221D01*
X120725000Y-97877500D01*
X120725000Y-98452500D01*
X120723856Y-98475779D01*
X120720437Y-98498834D01*
X120714773Y-98521443D01*
X120706921Y-98543387D01*
X120696956Y-98564457D01*
X120684974Y-98584448D01*
X120671090Y-98603168D01*
X120655438Y-98620438D01*
X120638168Y-98636090D01*
X120619448Y-98649974D01*
X120599457Y-98661956D01*
X120578387Y-98671921D01*
X120556443Y-98679773D01*
X120533834Y-98685437D01*
X120510779Y-98688856D01*
X120487500Y-98690000D01*
X120012500Y-98690000D01*
X119989221Y-98688856D01*
X119966166Y-98685437D01*
X119943557Y-98679773D01*
X119921613Y-98671921D01*
X119900543Y-98661956D01*
X119880552Y-98649974D01*
X119861832Y-98636090D01*
X119844562Y-98620438D01*
X119828910Y-98603168D01*
X119815026Y-98584448D01*
X119803044Y-98564457D01*
X119793079Y-98543387D01*
X119785227Y-98521443D01*
X119779563Y-98498834D01*
X119776144Y-98475779D01*
X119775000Y-98452500D01*
X119775000Y-97877500D01*
X119776144Y-97854221D01*
X119779563Y-97831166D01*
X119785227Y-97808557D01*
X119793079Y-97786613D01*
X119803044Y-97765543D01*
X119815026Y-97745552D01*
X119828910Y-97726832D01*
X119844562Y-97709562D01*
X119861832Y-97693910D01*
X119880552Y-97680026D01*
X119900543Y-97668044D01*
X119921613Y-97658079D01*
X119943557Y-97650227D01*
X119966166Y-97644563D01*
X119989221Y-97641144D01*
X120012500Y-97640000D01*
X120487500Y-97640000D01*
X120510779Y-97641144D01*
X120510779Y-97641144D01*
G37*
D16*
X120250000Y-98165000D03*
G04 #@! TD*
D10*
G04 #@! TO.C,R22*
G36*
X114510779Y-137141144D02*
X114533834Y-137144563D01*
X114556443Y-137150227D01*
X114578387Y-137158079D01*
X114599457Y-137168044D01*
X114619448Y-137180026D01*
X114638168Y-137193910D01*
X114655438Y-137209562D01*
X114671090Y-137226832D01*
X114684974Y-137245552D01*
X114696956Y-137265543D01*
X114706921Y-137286613D01*
X114714773Y-137308557D01*
X114720437Y-137331166D01*
X114723856Y-137354221D01*
X114725000Y-137377500D01*
X114725000Y-137952500D01*
X114723856Y-137975779D01*
X114720437Y-137998834D01*
X114714773Y-138021443D01*
X114706921Y-138043387D01*
X114696956Y-138064457D01*
X114684974Y-138084448D01*
X114671090Y-138103168D01*
X114655438Y-138120438D01*
X114638168Y-138136090D01*
X114619448Y-138149974D01*
X114599457Y-138161956D01*
X114578387Y-138171921D01*
X114556443Y-138179773D01*
X114533834Y-138185437D01*
X114510779Y-138188856D01*
X114487500Y-138190000D01*
X114012500Y-138190000D01*
X113989221Y-138188856D01*
X113966166Y-138185437D01*
X113943557Y-138179773D01*
X113921613Y-138171921D01*
X113900543Y-138161956D01*
X113880552Y-138149974D01*
X113861832Y-138136090D01*
X113844562Y-138120438D01*
X113828910Y-138103168D01*
X113815026Y-138084448D01*
X113803044Y-138064457D01*
X113793079Y-138043387D01*
X113785227Y-138021443D01*
X113779563Y-137998834D01*
X113776144Y-137975779D01*
X113775000Y-137952500D01*
X113775000Y-137377500D01*
X113776144Y-137354221D01*
X113779563Y-137331166D01*
X113785227Y-137308557D01*
X113793079Y-137286613D01*
X113803044Y-137265543D01*
X113815026Y-137245552D01*
X113828910Y-137226832D01*
X113844562Y-137209562D01*
X113861832Y-137193910D01*
X113880552Y-137180026D01*
X113900543Y-137168044D01*
X113921613Y-137158079D01*
X113943557Y-137150227D01*
X113966166Y-137144563D01*
X113989221Y-137141144D01*
X114012500Y-137140000D01*
X114487500Y-137140000D01*
X114510779Y-137141144D01*
X114510779Y-137141144D01*
G37*
D16*
X114250000Y-137665000D03*
D10*
G36*
X114510779Y-138891144D02*
X114533834Y-138894563D01*
X114556443Y-138900227D01*
X114578387Y-138908079D01*
X114599457Y-138918044D01*
X114619448Y-138930026D01*
X114638168Y-138943910D01*
X114655438Y-138959562D01*
X114671090Y-138976832D01*
X114684974Y-138995552D01*
X114696956Y-139015543D01*
X114706921Y-139036613D01*
X114714773Y-139058557D01*
X114720437Y-139081166D01*
X114723856Y-139104221D01*
X114725000Y-139127500D01*
X114725000Y-139702500D01*
X114723856Y-139725779D01*
X114720437Y-139748834D01*
X114714773Y-139771443D01*
X114706921Y-139793387D01*
X114696956Y-139814457D01*
X114684974Y-139834448D01*
X114671090Y-139853168D01*
X114655438Y-139870438D01*
X114638168Y-139886090D01*
X114619448Y-139899974D01*
X114599457Y-139911956D01*
X114578387Y-139921921D01*
X114556443Y-139929773D01*
X114533834Y-139935437D01*
X114510779Y-139938856D01*
X114487500Y-139940000D01*
X114012500Y-139940000D01*
X113989221Y-139938856D01*
X113966166Y-139935437D01*
X113943557Y-139929773D01*
X113921613Y-139921921D01*
X113900543Y-139911956D01*
X113880552Y-139899974D01*
X113861832Y-139886090D01*
X113844562Y-139870438D01*
X113828910Y-139853168D01*
X113815026Y-139834448D01*
X113803044Y-139814457D01*
X113793079Y-139793387D01*
X113785227Y-139771443D01*
X113779563Y-139748834D01*
X113776144Y-139725779D01*
X113775000Y-139702500D01*
X113775000Y-139127500D01*
X113776144Y-139104221D01*
X113779563Y-139081166D01*
X113785227Y-139058557D01*
X113793079Y-139036613D01*
X113803044Y-139015543D01*
X113815026Y-138995552D01*
X113828910Y-138976832D01*
X113844562Y-138959562D01*
X113861832Y-138943910D01*
X113880552Y-138930026D01*
X113900543Y-138918044D01*
X113921613Y-138908079D01*
X113943557Y-138900227D01*
X113966166Y-138894563D01*
X113989221Y-138891144D01*
X114012500Y-138890000D01*
X114487500Y-138890000D01*
X114510779Y-138891144D01*
X114510779Y-138891144D01*
G37*
D16*
X114250000Y-139415000D03*
G04 #@! TD*
D10*
G04 #@! TO.C,R10*
G36*
X113260779Y-132726144D02*
X113283834Y-132729563D01*
X113306443Y-132735227D01*
X113328387Y-132743079D01*
X113349457Y-132753044D01*
X113369448Y-132765026D01*
X113388168Y-132778910D01*
X113405438Y-132794562D01*
X113421090Y-132811832D01*
X113434974Y-132830552D01*
X113446956Y-132850543D01*
X113456921Y-132871613D01*
X113464773Y-132893557D01*
X113470437Y-132916166D01*
X113473856Y-132939221D01*
X113475000Y-132962500D01*
X113475000Y-133537500D01*
X113473856Y-133560779D01*
X113470437Y-133583834D01*
X113464773Y-133606443D01*
X113456921Y-133628387D01*
X113446956Y-133649457D01*
X113434974Y-133669448D01*
X113421090Y-133688168D01*
X113405438Y-133705438D01*
X113388168Y-133721090D01*
X113369448Y-133734974D01*
X113349457Y-133746956D01*
X113328387Y-133756921D01*
X113306443Y-133764773D01*
X113283834Y-133770437D01*
X113260779Y-133773856D01*
X113237500Y-133775000D01*
X112762500Y-133775000D01*
X112739221Y-133773856D01*
X112716166Y-133770437D01*
X112693557Y-133764773D01*
X112671613Y-133756921D01*
X112650543Y-133746956D01*
X112630552Y-133734974D01*
X112611832Y-133721090D01*
X112594562Y-133705438D01*
X112578910Y-133688168D01*
X112565026Y-133669448D01*
X112553044Y-133649457D01*
X112543079Y-133628387D01*
X112535227Y-133606443D01*
X112529563Y-133583834D01*
X112526144Y-133560779D01*
X112525000Y-133537500D01*
X112525000Y-132962500D01*
X112526144Y-132939221D01*
X112529563Y-132916166D01*
X112535227Y-132893557D01*
X112543079Y-132871613D01*
X112553044Y-132850543D01*
X112565026Y-132830552D01*
X112578910Y-132811832D01*
X112594562Y-132794562D01*
X112611832Y-132778910D01*
X112630552Y-132765026D01*
X112650543Y-132753044D01*
X112671613Y-132743079D01*
X112693557Y-132735227D01*
X112716166Y-132729563D01*
X112739221Y-132726144D01*
X112762500Y-132725000D01*
X113237500Y-132725000D01*
X113260779Y-132726144D01*
X113260779Y-132726144D01*
G37*
D16*
X113000000Y-133250000D03*
D10*
G36*
X113260779Y-130976144D02*
X113283834Y-130979563D01*
X113306443Y-130985227D01*
X113328387Y-130993079D01*
X113349457Y-131003044D01*
X113369448Y-131015026D01*
X113388168Y-131028910D01*
X113405438Y-131044562D01*
X113421090Y-131061832D01*
X113434974Y-131080552D01*
X113446956Y-131100543D01*
X113456921Y-131121613D01*
X113464773Y-131143557D01*
X113470437Y-131166166D01*
X113473856Y-131189221D01*
X113475000Y-131212500D01*
X113475000Y-131787500D01*
X113473856Y-131810779D01*
X113470437Y-131833834D01*
X113464773Y-131856443D01*
X113456921Y-131878387D01*
X113446956Y-131899457D01*
X113434974Y-131919448D01*
X113421090Y-131938168D01*
X113405438Y-131955438D01*
X113388168Y-131971090D01*
X113369448Y-131984974D01*
X113349457Y-131996956D01*
X113328387Y-132006921D01*
X113306443Y-132014773D01*
X113283834Y-132020437D01*
X113260779Y-132023856D01*
X113237500Y-132025000D01*
X112762500Y-132025000D01*
X112739221Y-132023856D01*
X112716166Y-132020437D01*
X112693557Y-132014773D01*
X112671613Y-132006921D01*
X112650543Y-131996956D01*
X112630552Y-131984974D01*
X112611832Y-131971090D01*
X112594562Y-131955438D01*
X112578910Y-131938168D01*
X112565026Y-131919448D01*
X112553044Y-131899457D01*
X112543079Y-131878387D01*
X112535227Y-131856443D01*
X112529563Y-131833834D01*
X112526144Y-131810779D01*
X112525000Y-131787500D01*
X112525000Y-131212500D01*
X112526144Y-131189221D01*
X112529563Y-131166166D01*
X112535227Y-131143557D01*
X112543079Y-131121613D01*
X112553044Y-131100543D01*
X112565026Y-131080552D01*
X112578910Y-131061832D01*
X112594562Y-131044562D01*
X112611832Y-131028910D01*
X112630552Y-131015026D01*
X112650543Y-131003044D01*
X112671613Y-130993079D01*
X112693557Y-130985227D01*
X112716166Y-130979563D01*
X112739221Y-130976144D01*
X112762500Y-130975000D01*
X113237500Y-130975000D01*
X113260779Y-130976144D01*
X113260779Y-130976144D01*
G37*
D16*
X113000000Y-131500000D03*
G04 #@! TD*
D10*
G04 #@! TO.C,R11*
G36*
X113260779Y-136351144D02*
X113283834Y-136354563D01*
X113306443Y-136360227D01*
X113328387Y-136368079D01*
X113349457Y-136378044D01*
X113369448Y-136390026D01*
X113388168Y-136403910D01*
X113405438Y-136419562D01*
X113421090Y-136436832D01*
X113434974Y-136455552D01*
X113446956Y-136475543D01*
X113456921Y-136496613D01*
X113464773Y-136518557D01*
X113470437Y-136541166D01*
X113473856Y-136564221D01*
X113475000Y-136587500D01*
X113475000Y-137162500D01*
X113473856Y-137185779D01*
X113470437Y-137208834D01*
X113464773Y-137231443D01*
X113456921Y-137253387D01*
X113446956Y-137274457D01*
X113434974Y-137294448D01*
X113421090Y-137313168D01*
X113405438Y-137330438D01*
X113388168Y-137346090D01*
X113369448Y-137359974D01*
X113349457Y-137371956D01*
X113328387Y-137381921D01*
X113306443Y-137389773D01*
X113283834Y-137395437D01*
X113260779Y-137398856D01*
X113237500Y-137400000D01*
X112762500Y-137400000D01*
X112739221Y-137398856D01*
X112716166Y-137395437D01*
X112693557Y-137389773D01*
X112671613Y-137381921D01*
X112650543Y-137371956D01*
X112630552Y-137359974D01*
X112611832Y-137346090D01*
X112594562Y-137330438D01*
X112578910Y-137313168D01*
X112565026Y-137294448D01*
X112553044Y-137274457D01*
X112543079Y-137253387D01*
X112535227Y-137231443D01*
X112529563Y-137208834D01*
X112526144Y-137185779D01*
X112525000Y-137162500D01*
X112525000Y-136587500D01*
X112526144Y-136564221D01*
X112529563Y-136541166D01*
X112535227Y-136518557D01*
X112543079Y-136496613D01*
X112553044Y-136475543D01*
X112565026Y-136455552D01*
X112578910Y-136436832D01*
X112594562Y-136419562D01*
X112611832Y-136403910D01*
X112630552Y-136390026D01*
X112650543Y-136378044D01*
X112671613Y-136368079D01*
X112693557Y-136360227D01*
X112716166Y-136354563D01*
X112739221Y-136351144D01*
X112762500Y-136350000D01*
X113237500Y-136350000D01*
X113260779Y-136351144D01*
X113260779Y-136351144D01*
G37*
D16*
X113000000Y-136875000D03*
D10*
G36*
X113260779Y-134601144D02*
X113283834Y-134604563D01*
X113306443Y-134610227D01*
X113328387Y-134618079D01*
X113349457Y-134628044D01*
X113369448Y-134640026D01*
X113388168Y-134653910D01*
X113405438Y-134669562D01*
X113421090Y-134686832D01*
X113434974Y-134705552D01*
X113446956Y-134725543D01*
X113456921Y-134746613D01*
X113464773Y-134768557D01*
X113470437Y-134791166D01*
X113473856Y-134814221D01*
X113475000Y-134837500D01*
X113475000Y-135412500D01*
X113473856Y-135435779D01*
X113470437Y-135458834D01*
X113464773Y-135481443D01*
X113456921Y-135503387D01*
X113446956Y-135524457D01*
X113434974Y-135544448D01*
X113421090Y-135563168D01*
X113405438Y-135580438D01*
X113388168Y-135596090D01*
X113369448Y-135609974D01*
X113349457Y-135621956D01*
X113328387Y-135631921D01*
X113306443Y-135639773D01*
X113283834Y-135645437D01*
X113260779Y-135648856D01*
X113237500Y-135650000D01*
X112762500Y-135650000D01*
X112739221Y-135648856D01*
X112716166Y-135645437D01*
X112693557Y-135639773D01*
X112671613Y-135631921D01*
X112650543Y-135621956D01*
X112630552Y-135609974D01*
X112611832Y-135596090D01*
X112594562Y-135580438D01*
X112578910Y-135563168D01*
X112565026Y-135544448D01*
X112553044Y-135524457D01*
X112543079Y-135503387D01*
X112535227Y-135481443D01*
X112529563Y-135458834D01*
X112526144Y-135435779D01*
X112525000Y-135412500D01*
X112525000Y-134837500D01*
X112526144Y-134814221D01*
X112529563Y-134791166D01*
X112535227Y-134768557D01*
X112543079Y-134746613D01*
X112553044Y-134725543D01*
X112565026Y-134705552D01*
X112578910Y-134686832D01*
X112594562Y-134669562D01*
X112611832Y-134653910D01*
X112630552Y-134640026D01*
X112650543Y-134628044D01*
X112671613Y-134618079D01*
X112693557Y-134610227D01*
X112716166Y-134604563D01*
X112739221Y-134601144D01*
X112762500Y-134600000D01*
X113237500Y-134600000D01*
X113260779Y-134601144D01*
X113260779Y-134601144D01*
G37*
D16*
X113000000Y-135125000D03*
G04 #@! TD*
D10*
G04 #@! TO.C,R9*
G36*
X105685779Y-132026144D02*
X105708834Y-132029563D01*
X105731443Y-132035227D01*
X105753387Y-132043079D01*
X105774457Y-132053044D01*
X105794448Y-132065026D01*
X105813168Y-132078910D01*
X105830438Y-132094562D01*
X105846090Y-132111832D01*
X105859974Y-132130552D01*
X105871956Y-132150543D01*
X105881921Y-132171613D01*
X105889773Y-132193557D01*
X105895437Y-132216166D01*
X105898856Y-132239221D01*
X105900000Y-132262500D01*
X105900000Y-132737500D01*
X105898856Y-132760779D01*
X105895437Y-132783834D01*
X105889773Y-132806443D01*
X105881921Y-132828387D01*
X105871956Y-132849457D01*
X105859974Y-132869448D01*
X105846090Y-132888168D01*
X105830438Y-132905438D01*
X105813168Y-132921090D01*
X105794448Y-132934974D01*
X105774457Y-132946956D01*
X105753387Y-132956921D01*
X105731443Y-132964773D01*
X105708834Y-132970437D01*
X105685779Y-132973856D01*
X105662500Y-132975000D01*
X105087500Y-132975000D01*
X105064221Y-132973856D01*
X105041166Y-132970437D01*
X105018557Y-132964773D01*
X104996613Y-132956921D01*
X104975543Y-132946956D01*
X104955552Y-132934974D01*
X104936832Y-132921090D01*
X104919562Y-132905438D01*
X104903910Y-132888168D01*
X104890026Y-132869448D01*
X104878044Y-132849457D01*
X104868079Y-132828387D01*
X104860227Y-132806443D01*
X104854563Y-132783834D01*
X104851144Y-132760779D01*
X104850000Y-132737500D01*
X104850000Y-132262500D01*
X104851144Y-132239221D01*
X104854563Y-132216166D01*
X104860227Y-132193557D01*
X104868079Y-132171613D01*
X104878044Y-132150543D01*
X104890026Y-132130552D01*
X104903910Y-132111832D01*
X104919562Y-132094562D01*
X104936832Y-132078910D01*
X104955552Y-132065026D01*
X104975543Y-132053044D01*
X104996613Y-132043079D01*
X105018557Y-132035227D01*
X105041166Y-132029563D01*
X105064221Y-132026144D01*
X105087500Y-132025000D01*
X105662500Y-132025000D01*
X105685779Y-132026144D01*
X105685779Y-132026144D01*
G37*
D16*
X105375000Y-132500000D03*
D10*
G36*
X103935779Y-132026144D02*
X103958834Y-132029563D01*
X103981443Y-132035227D01*
X104003387Y-132043079D01*
X104024457Y-132053044D01*
X104044448Y-132065026D01*
X104063168Y-132078910D01*
X104080438Y-132094562D01*
X104096090Y-132111832D01*
X104109974Y-132130552D01*
X104121956Y-132150543D01*
X104131921Y-132171613D01*
X104139773Y-132193557D01*
X104145437Y-132216166D01*
X104148856Y-132239221D01*
X104150000Y-132262500D01*
X104150000Y-132737500D01*
X104148856Y-132760779D01*
X104145437Y-132783834D01*
X104139773Y-132806443D01*
X104131921Y-132828387D01*
X104121956Y-132849457D01*
X104109974Y-132869448D01*
X104096090Y-132888168D01*
X104080438Y-132905438D01*
X104063168Y-132921090D01*
X104044448Y-132934974D01*
X104024457Y-132946956D01*
X104003387Y-132956921D01*
X103981443Y-132964773D01*
X103958834Y-132970437D01*
X103935779Y-132973856D01*
X103912500Y-132975000D01*
X103337500Y-132975000D01*
X103314221Y-132973856D01*
X103291166Y-132970437D01*
X103268557Y-132964773D01*
X103246613Y-132956921D01*
X103225543Y-132946956D01*
X103205552Y-132934974D01*
X103186832Y-132921090D01*
X103169562Y-132905438D01*
X103153910Y-132888168D01*
X103140026Y-132869448D01*
X103128044Y-132849457D01*
X103118079Y-132828387D01*
X103110227Y-132806443D01*
X103104563Y-132783834D01*
X103101144Y-132760779D01*
X103100000Y-132737500D01*
X103100000Y-132262500D01*
X103101144Y-132239221D01*
X103104563Y-132216166D01*
X103110227Y-132193557D01*
X103118079Y-132171613D01*
X103128044Y-132150543D01*
X103140026Y-132130552D01*
X103153910Y-132111832D01*
X103169562Y-132094562D01*
X103186832Y-132078910D01*
X103205552Y-132065026D01*
X103225543Y-132053044D01*
X103246613Y-132043079D01*
X103268557Y-132035227D01*
X103291166Y-132029563D01*
X103314221Y-132026144D01*
X103337500Y-132025000D01*
X103912500Y-132025000D01*
X103935779Y-132026144D01*
X103935779Y-132026144D01*
G37*
D16*
X103625000Y-132500000D03*
G04 #@! TD*
D10*
G04 #@! TO.C,R8*
G36*
X105685779Y-130526144D02*
X105708834Y-130529563D01*
X105731443Y-130535227D01*
X105753387Y-130543079D01*
X105774457Y-130553044D01*
X105794448Y-130565026D01*
X105813168Y-130578910D01*
X105830438Y-130594562D01*
X105846090Y-130611832D01*
X105859974Y-130630552D01*
X105871956Y-130650543D01*
X105881921Y-130671613D01*
X105889773Y-130693557D01*
X105895437Y-130716166D01*
X105898856Y-130739221D01*
X105900000Y-130762500D01*
X105900000Y-131237500D01*
X105898856Y-131260779D01*
X105895437Y-131283834D01*
X105889773Y-131306443D01*
X105881921Y-131328387D01*
X105871956Y-131349457D01*
X105859974Y-131369448D01*
X105846090Y-131388168D01*
X105830438Y-131405438D01*
X105813168Y-131421090D01*
X105794448Y-131434974D01*
X105774457Y-131446956D01*
X105753387Y-131456921D01*
X105731443Y-131464773D01*
X105708834Y-131470437D01*
X105685779Y-131473856D01*
X105662500Y-131475000D01*
X105087500Y-131475000D01*
X105064221Y-131473856D01*
X105041166Y-131470437D01*
X105018557Y-131464773D01*
X104996613Y-131456921D01*
X104975543Y-131446956D01*
X104955552Y-131434974D01*
X104936832Y-131421090D01*
X104919562Y-131405438D01*
X104903910Y-131388168D01*
X104890026Y-131369448D01*
X104878044Y-131349457D01*
X104868079Y-131328387D01*
X104860227Y-131306443D01*
X104854563Y-131283834D01*
X104851144Y-131260779D01*
X104850000Y-131237500D01*
X104850000Y-130762500D01*
X104851144Y-130739221D01*
X104854563Y-130716166D01*
X104860227Y-130693557D01*
X104868079Y-130671613D01*
X104878044Y-130650543D01*
X104890026Y-130630552D01*
X104903910Y-130611832D01*
X104919562Y-130594562D01*
X104936832Y-130578910D01*
X104955552Y-130565026D01*
X104975543Y-130553044D01*
X104996613Y-130543079D01*
X105018557Y-130535227D01*
X105041166Y-130529563D01*
X105064221Y-130526144D01*
X105087500Y-130525000D01*
X105662500Y-130525000D01*
X105685779Y-130526144D01*
X105685779Y-130526144D01*
G37*
D16*
X105375000Y-131000000D03*
D10*
G36*
X103935779Y-130526144D02*
X103958834Y-130529563D01*
X103981443Y-130535227D01*
X104003387Y-130543079D01*
X104024457Y-130553044D01*
X104044448Y-130565026D01*
X104063168Y-130578910D01*
X104080438Y-130594562D01*
X104096090Y-130611832D01*
X104109974Y-130630552D01*
X104121956Y-130650543D01*
X104131921Y-130671613D01*
X104139773Y-130693557D01*
X104145437Y-130716166D01*
X104148856Y-130739221D01*
X104150000Y-130762500D01*
X104150000Y-131237500D01*
X104148856Y-131260779D01*
X104145437Y-131283834D01*
X104139773Y-131306443D01*
X104131921Y-131328387D01*
X104121956Y-131349457D01*
X104109974Y-131369448D01*
X104096090Y-131388168D01*
X104080438Y-131405438D01*
X104063168Y-131421090D01*
X104044448Y-131434974D01*
X104024457Y-131446956D01*
X104003387Y-131456921D01*
X103981443Y-131464773D01*
X103958834Y-131470437D01*
X103935779Y-131473856D01*
X103912500Y-131475000D01*
X103337500Y-131475000D01*
X103314221Y-131473856D01*
X103291166Y-131470437D01*
X103268557Y-131464773D01*
X103246613Y-131456921D01*
X103225543Y-131446956D01*
X103205552Y-131434974D01*
X103186832Y-131421090D01*
X103169562Y-131405438D01*
X103153910Y-131388168D01*
X103140026Y-131369448D01*
X103128044Y-131349457D01*
X103118079Y-131328387D01*
X103110227Y-131306443D01*
X103104563Y-131283834D01*
X103101144Y-131260779D01*
X103100000Y-131237500D01*
X103100000Y-130762500D01*
X103101144Y-130739221D01*
X103104563Y-130716166D01*
X103110227Y-130693557D01*
X103118079Y-130671613D01*
X103128044Y-130650543D01*
X103140026Y-130630552D01*
X103153910Y-130611832D01*
X103169562Y-130594562D01*
X103186832Y-130578910D01*
X103205552Y-130565026D01*
X103225543Y-130553044D01*
X103246613Y-130543079D01*
X103268557Y-130535227D01*
X103291166Y-130529563D01*
X103314221Y-130526144D01*
X103337500Y-130525000D01*
X103912500Y-130525000D01*
X103935779Y-130526144D01*
X103935779Y-130526144D01*
G37*
D16*
X103625000Y-131000000D03*
G04 #@! TD*
D10*
G04 #@! TO.C,R21*
G36*
X130685779Y-85626144D02*
X130708834Y-85629563D01*
X130731443Y-85635227D01*
X130753387Y-85643079D01*
X130774457Y-85653044D01*
X130794448Y-85665026D01*
X130813168Y-85678910D01*
X130830438Y-85694562D01*
X130846090Y-85711832D01*
X130859974Y-85730552D01*
X130871956Y-85750543D01*
X130881921Y-85771613D01*
X130889773Y-85793557D01*
X130895437Y-85816166D01*
X130898856Y-85839221D01*
X130900000Y-85862500D01*
X130900000Y-86337500D01*
X130898856Y-86360779D01*
X130895437Y-86383834D01*
X130889773Y-86406443D01*
X130881921Y-86428387D01*
X130871956Y-86449457D01*
X130859974Y-86469448D01*
X130846090Y-86488168D01*
X130830438Y-86505438D01*
X130813168Y-86521090D01*
X130794448Y-86534974D01*
X130774457Y-86546956D01*
X130753387Y-86556921D01*
X130731443Y-86564773D01*
X130708834Y-86570437D01*
X130685779Y-86573856D01*
X130662500Y-86575000D01*
X130087500Y-86575000D01*
X130064221Y-86573856D01*
X130041166Y-86570437D01*
X130018557Y-86564773D01*
X129996613Y-86556921D01*
X129975543Y-86546956D01*
X129955552Y-86534974D01*
X129936832Y-86521090D01*
X129919562Y-86505438D01*
X129903910Y-86488168D01*
X129890026Y-86469448D01*
X129878044Y-86449457D01*
X129868079Y-86428387D01*
X129860227Y-86406443D01*
X129854563Y-86383834D01*
X129851144Y-86360779D01*
X129850000Y-86337500D01*
X129850000Y-85862500D01*
X129851144Y-85839221D01*
X129854563Y-85816166D01*
X129860227Y-85793557D01*
X129868079Y-85771613D01*
X129878044Y-85750543D01*
X129890026Y-85730552D01*
X129903910Y-85711832D01*
X129919562Y-85694562D01*
X129936832Y-85678910D01*
X129955552Y-85665026D01*
X129975543Y-85653044D01*
X129996613Y-85643079D01*
X130018557Y-85635227D01*
X130041166Y-85629563D01*
X130064221Y-85626144D01*
X130087500Y-85625000D01*
X130662500Y-85625000D01*
X130685779Y-85626144D01*
X130685779Y-85626144D01*
G37*
D16*
X130375000Y-86100000D03*
D10*
G36*
X132435779Y-85626144D02*
X132458834Y-85629563D01*
X132481443Y-85635227D01*
X132503387Y-85643079D01*
X132524457Y-85653044D01*
X132544448Y-85665026D01*
X132563168Y-85678910D01*
X132580438Y-85694562D01*
X132596090Y-85711832D01*
X132609974Y-85730552D01*
X132621956Y-85750543D01*
X132631921Y-85771613D01*
X132639773Y-85793557D01*
X132645437Y-85816166D01*
X132648856Y-85839221D01*
X132650000Y-85862500D01*
X132650000Y-86337500D01*
X132648856Y-86360779D01*
X132645437Y-86383834D01*
X132639773Y-86406443D01*
X132631921Y-86428387D01*
X132621956Y-86449457D01*
X132609974Y-86469448D01*
X132596090Y-86488168D01*
X132580438Y-86505438D01*
X132563168Y-86521090D01*
X132544448Y-86534974D01*
X132524457Y-86546956D01*
X132503387Y-86556921D01*
X132481443Y-86564773D01*
X132458834Y-86570437D01*
X132435779Y-86573856D01*
X132412500Y-86575000D01*
X131837500Y-86575000D01*
X131814221Y-86573856D01*
X131791166Y-86570437D01*
X131768557Y-86564773D01*
X131746613Y-86556921D01*
X131725543Y-86546956D01*
X131705552Y-86534974D01*
X131686832Y-86521090D01*
X131669562Y-86505438D01*
X131653910Y-86488168D01*
X131640026Y-86469448D01*
X131628044Y-86449457D01*
X131618079Y-86428387D01*
X131610227Y-86406443D01*
X131604563Y-86383834D01*
X131601144Y-86360779D01*
X131600000Y-86337500D01*
X131600000Y-85862500D01*
X131601144Y-85839221D01*
X131604563Y-85816166D01*
X131610227Y-85793557D01*
X131618079Y-85771613D01*
X131628044Y-85750543D01*
X131640026Y-85730552D01*
X131653910Y-85711832D01*
X131669562Y-85694562D01*
X131686832Y-85678910D01*
X131705552Y-85665026D01*
X131725543Y-85653044D01*
X131746613Y-85643079D01*
X131768557Y-85635227D01*
X131791166Y-85629563D01*
X131814221Y-85626144D01*
X131837500Y-85625000D01*
X132412500Y-85625000D01*
X132435779Y-85626144D01*
X132435779Y-85626144D01*
G37*
D16*
X132125000Y-86100000D03*
G04 #@! TD*
D10*
G04 #@! TO.C,R41*
G36*
X126010779Y-99641144D02*
X126033834Y-99644563D01*
X126056443Y-99650227D01*
X126078387Y-99658079D01*
X126099457Y-99668044D01*
X126119448Y-99680026D01*
X126138168Y-99693910D01*
X126155438Y-99709562D01*
X126171090Y-99726832D01*
X126184974Y-99745552D01*
X126196956Y-99765543D01*
X126206921Y-99786613D01*
X126214773Y-99808557D01*
X126220437Y-99831166D01*
X126223856Y-99854221D01*
X126225000Y-99877500D01*
X126225000Y-100452500D01*
X126223856Y-100475779D01*
X126220437Y-100498834D01*
X126214773Y-100521443D01*
X126206921Y-100543387D01*
X126196956Y-100564457D01*
X126184974Y-100584448D01*
X126171090Y-100603168D01*
X126155438Y-100620438D01*
X126138168Y-100636090D01*
X126119448Y-100649974D01*
X126099457Y-100661956D01*
X126078387Y-100671921D01*
X126056443Y-100679773D01*
X126033834Y-100685437D01*
X126010779Y-100688856D01*
X125987500Y-100690000D01*
X125512500Y-100690000D01*
X125489221Y-100688856D01*
X125466166Y-100685437D01*
X125443557Y-100679773D01*
X125421613Y-100671921D01*
X125400543Y-100661956D01*
X125380552Y-100649974D01*
X125361832Y-100636090D01*
X125344562Y-100620438D01*
X125328910Y-100603168D01*
X125315026Y-100584448D01*
X125303044Y-100564457D01*
X125293079Y-100543387D01*
X125285227Y-100521443D01*
X125279563Y-100498834D01*
X125276144Y-100475779D01*
X125275000Y-100452500D01*
X125275000Y-99877500D01*
X125276144Y-99854221D01*
X125279563Y-99831166D01*
X125285227Y-99808557D01*
X125293079Y-99786613D01*
X125303044Y-99765543D01*
X125315026Y-99745552D01*
X125328910Y-99726832D01*
X125344562Y-99709562D01*
X125361832Y-99693910D01*
X125380552Y-99680026D01*
X125400543Y-99668044D01*
X125421613Y-99658079D01*
X125443557Y-99650227D01*
X125466166Y-99644563D01*
X125489221Y-99641144D01*
X125512500Y-99640000D01*
X125987500Y-99640000D01*
X126010779Y-99641144D01*
X126010779Y-99641144D01*
G37*
D16*
X125750000Y-100165000D03*
D10*
G36*
X126010779Y-97891144D02*
X126033834Y-97894563D01*
X126056443Y-97900227D01*
X126078387Y-97908079D01*
X126099457Y-97918044D01*
X126119448Y-97930026D01*
X126138168Y-97943910D01*
X126155438Y-97959562D01*
X126171090Y-97976832D01*
X126184974Y-97995552D01*
X126196956Y-98015543D01*
X126206921Y-98036613D01*
X126214773Y-98058557D01*
X126220437Y-98081166D01*
X126223856Y-98104221D01*
X126225000Y-98127500D01*
X126225000Y-98702500D01*
X126223856Y-98725779D01*
X126220437Y-98748834D01*
X126214773Y-98771443D01*
X126206921Y-98793387D01*
X126196956Y-98814457D01*
X126184974Y-98834448D01*
X126171090Y-98853168D01*
X126155438Y-98870438D01*
X126138168Y-98886090D01*
X126119448Y-98899974D01*
X126099457Y-98911956D01*
X126078387Y-98921921D01*
X126056443Y-98929773D01*
X126033834Y-98935437D01*
X126010779Y-98938856D01*
X125987500Y-98940000D01*
X125512500Y-98940000D01*
X125489221Y-98938856D01*
X125466166Y-98935437D01*
X125443557Y-98929773D01*
X125421613Y-98921921D01*
X125400543Y-98911956D01*
X125380552Y-98899974D01*
X125361832Y-98886090D01*
X125344562Y-98870438D01*
X125328910Y-98853168D01*
X125315026Y-98834448D01*
X125303044Y-98814457D01*
X125293079Y-98793387D01*
X125285227Y-98771443D01*
X125279563Y-98748834D01*
X125276144Y-98725779D01*
X125275000Y-98702500D01*
X125275000Y-98127500D01*
X125276144Y-98104221D01*
X125279563Y-98081166D01*
X125285227Y-98058557D01*
X125293079Y-98036613D01*
X125303044Y-98015543D01*
X125315026Y-97995552D01*
X125328910Y-97976832D01*
X125344562Y-97959562D01*
X125361832Y-97943910D01*
X125380552Y-97930026D01*
X125400543Y-97918044D01*
X125421613Y-97908079D01*
X125443557Y-97900227D01*
X125466166Y-97894563D01*
X125489221Y-97891144D01*
X125512500Y-97890000D01*
X125987500Y-97890000D01*
X126010779Y-97891144D01*
X126010779Y-97891144D01*
G37*
D16*
X125750000Y-98415000D03*
G04 #@! TD*
M02*
