M48
;DRILL file {KiCad (5.0.2)-1} date 2019-01-08 05:58:29
;FORMAT={-:-/ absolute / inch / decimal}
FMAT,2
INCH,TZ
T1C0.0079
T2C0.0118
T3C0.0236
T4C0.0276
T5C0.0315
T6C0.0335
T7C0.0350
T8C0.0354
T9C0.0394
T10C0.0400
T11C0.0618
%
G90
G05
T1
X3.5767Y-2.5729
X3.5767Y-3.3209
X3.5767Y-4.1477
X3.5965Y-2.5866
X3.5965Y-3.3346
X3.5965Y-4.1614
X3.622Y-2.6826
X3.622Y-3.4307
X3.622Y-4.2574
X3.6594Y-2.687
X3.6594Y-3.435
X3.6594Y-4.2618
X4.124Y-5.2559
X4.1457Y-4.4035
X4.2205Y-2.8543
X4.3091Y-3.6673
X4.3091Y-4.3169
X4.3209Y-4.1161
X4.3386Y-2.611
X4.3394Y-2.3409
X4.3425Y-3.7717
X4.3583Y-2.9311
X4.3583Y-3.1161
X4.3642Y-2.3957
X4.3678Y-3.1496
X4.3795Y-2.8307
X4.3799Y-2.6937
X4.3878Y-2.6398
X4.3898Y-3.5551
X4.4134Y-2.3976
X4.4134Y-2.6063
X4.4186Y-5.2854
X4.4268Y-4.1357
X4.4291Y-2.8228
X4.4291Y-2.8551
X4.4331Y-3.5217
X4.4337Y-3.4737
X4.4354Y-3.4268
X4.437Y-3.3701
X4.437Y-4.3386
X4.4394Y-2.3409
X4.4449Y-3.063
X4.4449Y-4.0512
X4.4457Y-2.9496
X4.4484Y-3.3291
X4.4488Y-3.6102
X4.4522Y-3.1817
X4.4528Y-3.8661
X4.4567Y-3.6811
X4.4701Y-3.3016
X4.4804Y-3.2094
X4.4961Y-3.2756
X4.502Y-3.065
X4.5039Y-3.5925
X4.5047Y-2.9417
X4.5047Y-3.1937
X4.5066Y-3.5466
X4.5236Y-2.8138
X4.5295Y-2.6898
X4.5354Y-4.3858
X4.5385Y-4.2165
X4.5394Y-2.3409
X4.5394Y-3.4173
X4.5409Y-2.8465
X4.5413Y-3.4823
X4.5418Y-3.0669
X4.5418Y-3.2521
X4.5422Y-3.6575
X4.5422Y-4.0039
X4.5433Y-4.2697
X4.57Y-3.2756
X4.5728Y-4.1791
X4.5739Y-3.6575
X4.5748Y-3.3996
X4.5748Y-3.5059
X4.5763Y-2.8465
X4.5763Y-3.0669
X4.5763Y-3.2402
X4.5807Y-2.6976
X4.5827Y-4.9528
X4.5827Y-5.1969
X4.5906Y-3.2992
X4.6063Y-2.4299
X4.6102Y-3.3268
X4.6142Y-5.2598
X4.6181Y-4.6811
X4.6243Y-3.5488
X4.6394Y-2.3409
X4.6535Y-4.5236
X4.6535Y-4.6811
X4.6551Y-5.2319
X4.6614Y-4.2677
X4.6618Y-3.3628
X4.6661Y-3.9693
X4.67Y-5.2867
X4.6702Y-3.3839
X4.6747Y-4.0841
X4.678Y-4.0402
X4.678Y-3.8984
X4.6791Y-3.2938
X4.685Y-4.6811
X4.685Y-5.2559
X4.6853Y-3.7477
X4.6858Y-5.5827
X4.687Y-3.7953
X4.7008Y-2.6732
X4.7008Y-2.7598
X4.7008Y-5.2874
X4.722Y-4.8583
X4.7249Y-3.7057
X4.7283Y-3.5591
X4.7323Y-4.0354
X4.7323Y-5.5638
X4.7343Y-3.7516
X4.7394Y-2.3409
X4.7402Y-5.2756
X4.7421Y-5.4232
X4.748Y-3.1575
X4.748Y-3.2205
X4.755Y-3.4723
X4.755Y-3.4968
X4.7618Y-3.2564
X4.7638Y-4.8583
X4.7717Y-5.2402
X4.7882Y-3.8315
X4.7992Y-3.9724
X4.8031Y-3.4748
X4.8031Y-4.1575
X4.815Y-3.8819
X4.8189Y-3.3287
X4.8199Y-3.8128
X4.8366Y-3.4665
X4.8386Y-2.3409
X4.8524Y-3.6995
X4.8531Y-3.7833
X4.8568Y-3.7433
X4.8661Y-5.4213
X4.8701Y-3.2913
X4.8888Y-5.5947
X4.8898Y-2.1142
X4.8898Y-4.0453
X4.9016Y-3.289
X4.9134Y-5.5598
X4.9154Y-3.2598
X4.9213Y-3.4252
X4.9213Y-4.4843
X4.9331Y-3.3465
X4.9389Y-5.6307
X4.9394Y-3.5377
X4.9401Y-3.5606
X4.9409Y-3.6723
X4.9409Y-3.5039
X4.9409Y-3.7402
X4.9419Y-3.6496
X4.9444Y-3.7175
X4.9447Y-3.6948
X4.9508Y-3.9898
X4.96Y-3.527
X4.9606Y-3.0984
X4.9606Y-3.6024
X4.9636Y-3.7367
X4.9637Y-3.5039
X4.9646Y-3.5591
X4.9646Y-3.6417
X4.9646Y-3.6811
X4.9685Y-3.7126
X4.9803Y-4.0862
X4.9843Y-3.9862
X4.9863Y-3.7364
X4.9863Y-3.5023
X5.Y-3.563
X5.Y-3.6811
X5.0017Y-3.6024
X5.0017Y-3.6417
X5.0078Y-3.5099
X5.0101Y-3.7392
X5.0292Y-3.5024
X5.0328Y-3.7402
X5.0394Y-3.1142
X5.0394Y-3.563
X5.0394Y-3.6024
X5.0394Y-3.6417
X5.0394Y-3.6811
X5.0394Y-3.5256
X5.0472Y-4.1811
X5.0472Y-4.2441
X5.0484Y-3.7237
X5.0519Y-3.5026
X5.0623Y-3.2434
X5.0637Y-3.7405
X5.065Y-3.5256
X5.065Y-3.5256
X5.0669Y-4.1457
X5.0747Y-3.5006
X5.0787Y-3.5647
X5.0787Y-3.6024
X5.0787Y-3.6417
X5.0787Y-3.6794
X5.0787Y-3.7205
X5.0867Y-3.7417
X5.0906Y-3.4213
X5.0984Y-3.85
X5.0984Y-3.9016
X5.1024Y-3.1102
X5.1063Y-4.0748
X5.108Y-3.5004
X5.1087Y-3.7347
X5.1164Y-3.6024
X5.1164Y-3.6417
X5.1172Y-3.6804
X5.1173Y-3.5227
X5.1181Y-2.5827
X5.1181Y-3.563
X5.1181Y-4.4803
X5.1222Y-3.7164
X5.1324Y-3.7367
X5.1324Y-3.8795
X5.1417Y-3.1575
X5.1535Y-3.685
X5.155Y-3.7395
X5.1575Y-3.6024
X5.1575Y-3.4252
X5.1575Y-3.5039
X5.1575Y-3.5335
X5.1575Y-3.9331
X5.1584Y-3.7167
X5.1614Y-3.6417
X5.1775Y-3.6606
X5.1777Y-3.5497
X5.1777Y-3.6835
X5.1777Y-3.7407
X5.1786Y-3.7063
X5.1802Y-3.5263
X5.1813Y-3.5031
X5.185Y-4.2441
X5.189Y-3.9331
X5.189Y-3.878
X5.2047Y-3.0945
X5.2047Y-3.3071
X5.2165Y-3.4272
X5.2244Y-3.1484
X5.2244Y-3.9567
X5.2283Y-3.3583
X5.2362Y-3.2677
X5.2441Y-5.6504
X5.248Y-4.0039
X5.248Y-4.178
X5.2574Y-3.5528
X5.2651Y-3.7026
X5.2677Y-2.5748
X5.2741Y-3.5151
X5.2776Y-4.1004
X5.2827Y-3.4941
X5.2949Y-3.7353
X5.2992Y-3.8268
X5.2992Y-4.2205
X5.2992Y-4.2835
X5.3051Y-4.1256
X5.3224Y-3.922
X5.3224Y-3.9878
X5.3224Y-4.0778
X5.3248Y-3.7319
X5.3268Y-4.4843
X5.3307Y-3.1339
X5.3324Y-4.0278
X5.3445Y-4.128
X5.3543Y-3.6386
X5.3622Y-3.8189
X5.374Y-3.189
X5.374Y-3.4661
X5.3996Y-4.2205
X5.4016Y-3.2677
X5.4016Y-3.311
X5.4016Y-3.6024
X5.415Y-3.774
X5.4158Y-3.6748
X5.4252Y-4.4843
X5.4291Y-3.7362
X5.439Y-4.1319
X5.4528Y-2.5213
X5.4528Y-3.1024
X5.4528Y-3.2126
X5.4646Y-3.5315
X5.4921Y-3.7008
X5.4941Y-4.2203
X5.498Y-4.1319
X5.4984Y-3.7575
X5.5098Y-3.2587
X5.524Y-3.9287
X5.5433Y-3.1102
X5.5433Y-3.3335
X5.5449Y-3.9039
X5.5512Y-3.4299
X5.5591Y-4.0197
X5.5713Y-3.8815
X5.5728Y-3.3787
X5.5748Y-3.5394
X5.5827Y-3.1732
X5.5866Y-3.252
X5.5906Y-3.6339
X5.6008Y-3.8598
X5.6181Y-3.4449
X5.6185Y-3.5516
X5.6496Y-3.5709
X5.6535Y-3.8583
X5.6594Y-4.4476
X5.6594Y-4.61
X5.689Y-3.5945
X5.6929Y-3.1693
X5.6969Y-3.2677
X5.7008Y-3.6378
X5.722Y-3.3047
X5.7327Y-4.0429
X5.7345Y-3.3802
X5.7378Y-4.0969
X5.7445Y-4.1492
X5.748Y-4.2047
X5.75Y-3.4114
X5.7677Y-3.7528
X5.774Y-4.0331
X5.7874Y-3.9961
X5.8248Y-3.1142
X5.8346Y-3.4488
X5.8543Y-3.4882
X5.8622Y-4.3787
X5.8676Y-3.164
X5.8819Y-3.2047
X5.8858Y-4.2626
X5.9331Y-3.5874
X5.9488Y-3.0433
X5.9646Y-4.2213
X5.9764Y-3.1205
X6.Y-3.248
X6.005Y-4.3186
X6.0236Y-4.4142
X6.063Y-4.4302
X6.0709Y-3.126
X6.0906Y-4.3898
X6.0945Y-4.8858
X6.1181Y-3.1457
X6.1251Y-4.8858
X6.1732Y-3.8709
X6.1831Y-3.2972
X6.1831Y-4.0453
X6.1969Y-4.752
X6.2205Y-3.3016
X6.2205Y-4.0497
X6.2461Y-3.3976
X6.2461Y-4.1457
X6.248Y-4.7795
X6.2658Y-3.4114
X6.2658Y-4.1594
T2
X3.05Y-5.1189
X3.0512Y-3.9764
X3.0512Y-4.5669
X3.0512Y-5.5906
X3.0598Y-4.7547
X3.1189Y-2.2449
X3.1189Y-2.9831
X3.189Y-2.5118
X3.189Y-2.5945
X3.189Y-2.6732
X3.189Y-2.7559
X3.189Y-3.2598
X3.189Y-3.3425
X3.189Y-3.4213
X3.189Y-3.5039
X3.189Y-4.0866
X3.189Y-4.1693
X3.189Y-4.248
X3.189Y-4.3307
X3.2677Y-2.4252
X3.2677Y-3.1732
X3.2677Y-4.
X3.2874Y-5.3937
X3.3504Y-5.1142
X3.3563Y-2.8051
X3.3563Y-3.5531
X3.3563Y-4.3799
X3.3976Y-2.4291
X3.3976Y-3.1772
X3.3976Y-4.0039
X3.4154Y-4.8819
X3.4331Y-2.685
X3.4331Y-3.4331
X3.4331Y-4.2598
X3.4488Y-2.5551
X3.4488Y-3.3031
X3.4488Y-4.1299
X3.4535Y-2.2449
X3.4831Y-2.9043
X3.4831Y-3.0815
X3.4831Y-3.7114
X3.4831Y-3.8689
X3.4843Y-5.7697
X3.5028Y-4.6563
X3.5315Y-2.4646
X3.5315Y-3.2126
X3.5315Y-4.0394
X3.5433Y-2.748
X3.5433Y-3.4961
X3.5433Y-4.3228
X3.5472Y-2.6102
X3.5472Y-3.3583
X3.5472Y-4.185
X3.5913Y-2.3433
X3.6043Y-4.5413
X3.6043Y-5.3957
X3.6063Y-4.7559
X3.622Y-2.9189
X3.6299Y-4.8937
X3.6417Y-4.3012
X3.6673Y-4.3799
X3.6728Y-4.8843
X3.6732Y-3.2165
X3.6732Y-4.0433
X3.674Y-2.4654
X3.689Y-2.7331
X3.689Y-3.4764
X3.6898Y-2.2449
X3.7067Y-4.878
X3.7087Y-4.6
X3.7165Y-5.7677
X3.7224Y-5.1949
X3.7291Y-3.7114
X3.7291Y-3.8689
X3.7402Y-3.1315
X3.752Y-4.6
X3.7677Y-2.4882
X3.7677Y-2.5945
X3.7677Y-2.7008
X3.7677Y-3.2362
X3.7677Y-3.3425
X3.7677Y-3.4488
X3.7697Y-5.6594
X3.7717Y-4.4386
X3.7756Y-4.3622
X3.7815Y-4.9921
X3.7882Y-4.0559
X3.7882Y-4.1642
X3.7882Y-4.2724
X3.7992Y-4.9409
X3.8053Y-4.8565
X3.8189Y-3.1079
X3.8228Y-4.8307
X3.8307Y-5.5283
X3.8346Y-5.0874
X3.8346Y-5.1181
X3.8386Y-5.1575
X3.8465Y-4.3091
X3.8484Y-4.9705
X3.8543Y-4.5213
X3.8583Y-4.4547
X3.8583Y-4.9114
X3.8661Y-2.9976
X3.8701Y-4.811
X3.878Y-2.5768
X3.878Y-2.6098
X3.878Y-3.3249
X3.878Y-3.3579
X3.878Y-5.1575
X3.878Y-5.2165
X3.8866Y-3.1799
X3.8878Y-5.315
X3.8878Y-5.3543
X3.9016Y-4.1512
X3.9016Y-4.2575
X3.9055Y-4.1906
X3.9075Y-4.9902
X3.9173Y-4.8917
X3.9173Y-5.1575
X3.9193Y-4.0354
X3.9232Y-4.5945
X3.9272Y-3.8681
X3.9272Y-4.9409
X3.9272Y-5.2657
X3.9358Y-2.422
X3.937Y-2.7181
X3.937Y-3.4661
X3.937Y-5.0394
X3.937Y-5.0787
X3.9457Y-2.2449
X3.9555Y-3.6425
X3.9567Y-5.4528
X3.9764Y-5.2657
X3.9862Y-4.7087
X3.9862Y-4.8917
X3.9871Y-2.5114
X3.9871Y-3.2594
X3.9961Y-5.3346
X4.Y-4.3126
X4.0059Y-4.4646
X4.0157Y-4.065
X4.0343Y-3.1504
X4.0354Y-3.9488
X4.0453Y-2.472
X4.0453Y-2.7181
X4.0453Y-3.2201
X4.0453Y-3.4661
X4.0453Y-4.8917
X4.0539Y-3.5244
X4.0539Y-3.7409
X4.0551Y-5.4528
X4.063Y-5.7557
X4.0768Y-4.1811
X4.0797Y-5.5254
X4.0846Y-4.0413
X4.0886Y-2.2894
X4.0933Y-2.8157
X4.0984Y-2.6551
X4.0984Y-3.4031
X4.1043Y-4.8917
X4.1437Y-4.5472
X4.1524Y-4.174
X4.1622Y-3.6228
X4.1634Y-5.4528
X4.1654Y-4.7126
X4.172Y-3.9969
X4.1732Y-4.3406
X4.1732Y-4.4685
X4.1732Y-5.2657
X4.1732Y-5.315
X4.1732Y-5.3543
X4.1732Y-5.4035
X4.1791Y-3.7854
X4.1819Y-4.2528
X4.1831Y-3.8563
X4.189Y-5.6378
X4.2106Y-2.3858
X4.2126Y-5.2657
X4.2409Y-2.2547
X4.252Y-5.4528
X4.2598Y-2.4622
X4.2598Y-2.7142
X4.2603Y-5.3445
X4.2618Y-2.7933
X4.3Y-4.6063
X4.3071Y-3.2559
X4.3071Y-3.7343
X4.311Y-3.5138
X4.3135Y-3.407
X4.315Y-2.4622
X4.315Y-2.9114
X4.315Y-3.222
X4.315Y-3.4425
X4.315Y-4.4587
X4.3179Y-5.5963
X4.3189Y-3.874
X4.3189Y-4.2126
X4.3209Y-2.8031
X4.3228Y-2.6748
X4.3228Y-4.3976
X4.3307Y-4.6063
X4.3307Y-4.8917
X4.3406Y-5.4528
X4.3425Y-5.5283
X4.3827Y-3.9575
X4.4252Y-4.7165
X4.439Y-4.7835
X4.439Y-4.8425
X4.439Y-4.8917
X4.4488Y-5.4429
X4.4528Y-5.6031
X4.4685Y-5.0787
X4.4685Y-5.1083
X4.4783Y-4.9695
X4.4882Y-5.1378
X4.4882Y-5.1673
X4.4882Y-5.1969
X4.4882Y-5.2854
X4.4882Y-5.374
X4.5079Y-4.5354
X4.5079Y-4.8425
X4.5079Y-4.8917
X4.5079Y-5.2409
X4.5079Y-5.3315
X4.5157Y-4.7126
X4.5177Y-4.9508
X4.5276Y-5.1378
X4.5276Y-5.1673
X4.5276Y-5.1976
X4.5647Y-2.6349
X4.5658Y-2.4211
X4.5709Y-4.6937
X4.5886Y-5.7008
X4.5953Y-5.5795
X4.6102Y-5.4035
X4.6496Y-2.4134
X4.6858Y-5.4016
X4.689Y-4.1228
X4.7126Y-2.4134
X4.7677Y-3.4232
X4.7685Y-3.8598
X4.7795Y-3.0984
X4.8071Y-5.4094
X4.8189Y-2.7992
X4.9016Y-3.978
X4.9046Y-3.8398
X4.9134Y-5.4134
X4.9154Y-3.2224
X4.9409Y-4.1945
X4.9488Y-2.8071
X5.0472Y-2.815
X5.0591Y-2.4016
X5.0984Y-4.252
X5.1299Y-2.1142
X5.1339Y-2.8189
X5.1378Y-5.3248
X5.187Y-5.2657
X5.1969Y-5.8551
X5.1991Y-3.8287
X5.2362Y-2.8268
X5.2559Y-5.5118
X5.2756Y-3.9066
X5.2756Y-3.9685
X5.3268Y-3.3484
X5.3346Y-2.8268
X5.3628Y-3.8892
X5.3681Y-3.3878
X5.374Y-3.7205
X5.4173Y-3.5106
X5.4252Y-5.2173
X5.4488Y-3.9772
X5.4528Y-5.5118
X5.4724Y-4.9102
X5.4724Y-5.0087
X5.5118Y-5.8551
X5.5315Y-5.2362
X5.5315Y-5.3543
X5.5394Y-5.5795
X5.5748Y-5.6543
X5.5758Y-4.2961
X5.5886Y-4.1614
X5.5906Y-4.4488
X5.6102Y-5.1189
X5.626Y-5.3669
X5.6299Y-2.7598
X5.6417Y-3.7843
X5.6506Y-4.3719
X5.6575Y-4.7488
X5.689Y-4.2803
X5.6988Y-5.6004
X5.7087Y-5.372
X5.7087Y-5.5118
X5.7264Y-4.9055
X5.7264Y-5.0374
X5.7283Y-5.1988
X5.7559Y-4.4181
X5.7559Y-4.6031
X5.7559Y-4.7449
X5.7913Y-3.4173
X5.8012Y-5.4902
X5.8228Y-5.0394
X5.8228Y-5.1969
X5.8228Y-5.6858
X5.8268Y-4.9016
X5.8268Y-5.5906
X5.8465Y-2.0472
X5.8543Y-3.2882
X5.8724Y-2.7728
X5.9016Y-4.0165
X5.9142Y-3.6754
X5.935Y-4.3504
X5.9567Y-3.3669
X5.9606Y-3.4024
X5.9606Y-4.1189
X5.9606Y-4.1543
X5.9882Y-3.0378
X5.9961Y-4.5827
X6.0079Y-4.7323
X6.0187Y-2.7264
X6.0197Y-3.9339
X6.0236Y-4.9291
X6.0236Y-5.1465
X6.0236Y-5.8551
X6.0362Y-2.7006
X6.0423Y-2.6358
X6.0748Y-3.2835
X6.0748Y-3.3898
X6.0748Y-3.4961
X6.0748Y-4.0315
X6.0748Y-4.1378
X6.0748Y-4.2441
X6.0906Y-2.9591
X6.1102Y-4.615
X6.1339Y-2.9591
X6.1348Y-2.6791
X6.1417Y-5.6189
X6.1457Y-4.615
X6.1535Y-3.2559
X6.1535Y-4.0039
X6.1687Y-2.6728
X6.1693Y-3.5157
X6.1693Y-4.2638
X6.1801Y-2.498
X6.185Y-3.611
X6.1969Y-5.0157
X6.2205Y-4.6189
X6.2205Y-5.1465
X6.2313Y-2.8445
X6.2549Y-2.5531
X6.2549Y-2.6752
X6.2953Y-3.374
X6.2953Y-4.122
X6.2992Y-3.2362
X6.2992Y-3.9843
X6.2992Y-4.7402
X6.311Y-3.5197
X6.311Y-4.2677
X6.378Y-2.4528
X6.3937Y-3.4291
X6.3937Y-4.1772
X6.3976Y-2.7677
X6.3976Y-4.7913
X6.4006Y-2.6752
X6.4085Y-2.5453
X6.4094Y-3.2992
X6.4094Y-4.0472
X6.4173Y-4.685
X6.4173Y-4.9252
X6.4252Y-5.0394
X6.4449Y-3.5551
X6.4449Y-4.3031
X6.4862Y-3.1791
X6.4862Y-3.9272
X6.5354Y-2.0472
X6.5669Y-2.4094
X6.5748Y-2.811
X6.5748Y-3.5591
X6.5748Y-4.3071
X6.5748Y-5.0551
X6.6142Y-5.6976
X6.6142Y-5.8551
X6.6535Y-2.4803
X6.6535Y-2.563
X6.6535Y-2.6417
X6.6535Y-2.7244
X6.6535Y-3.2283
X6.6535Y-3.311
X6.6535Y-3.3898
X6.6535Y-3.4724
X6.6535Y-3.9764
X6.6535Y-4.0591
X6.6535Y-4.1378
X6.6535Y-4.2205
X6.6535Y-4.7244
X6.6535Y-4.8071
X6.6535Y-4.8858
X6.6535Y-4.9685
X6.7717Y-5.2252
X6.811Y-2.6476
X6.811Y-3.4252
X6.811Y-4.1142
X6.811Y-4.8031
X6.811Y-5.5945
T3
X5.3898Y-4.8079
X5.4528Y-4.6457
X5.4528Y-4.737
X5.4961Y-4.5571
X5.5906Y-4.9102
X5.5906Y-4.9594
X5.5906Y-5.0087
T4
X4.8425Y-2.472
X5.0295Y-5.4823
X4.8394Y-5.4837
X3.9528Y-2.8165
X4.7644Y-5.3337
X4.4783Y-4.4673
X4.4685Y-2.4425
X4.6144Y-5.3346
T5
X5.2953Y-5.3445
X5.3937Y-5.3445
X5.2657Y-4.6752
X5.3642Y-4.6752
T6
X5.6693Y-5.7397
X5.8661Y-5.7397
T7
X6.5047Y-3.2685
X6.5047Y-3.3488
X6.5047Y-3.4291
X6.5047Y-3.5094
X6.5748Y-3.2283
X6.5748Y-3.3087
X6.5748Y-3.389
X6.5748Y-3.4693
X3.2677Y-3.263
X3.2677Y-3.3433
X3.2677Y-3.4236
X3.2677Y-3.5039
X3.3378Y-3.2228
X3.3378Y-3.3031
X3.3378Y-3.3835
X3.3378Y-3.4638
X6.5047Y-4.0165
X6.5047Y-4.0969
X6.5047Y-4.1772
X6.5047Y-4.2575
X6.5748Y-3.9764
X6.5748Y-4.0567
X6.5748Y-4.137
X6.5748Y-4.2173
X3.2677Y-4.8378
X3.2677Y-4.9181
X3.2677Y-4.9984
X3.2677Y-5.0787
X3.3378Y-4.7976
X3.3378Y-4.878
X3.3378Y-4.9583
X3.3378Y-5.0386
X6.5047Y-2.5205
X6.5047Y-2.6008
X6.5047Y-2.6811
X6.5047Y-2.7614
X6.5748Y-2.4803
X6.5748Y-2.5606
X6.5748Y-2.6409
X6.5748Y-2.7213
X6.5047Y-4.7646
X6.5047Y-4.8449
X6.5047Y-4.9252
X6.5047Y-5.0055
X6.5748Y-4.7244
X6.5748Y-4.8047
X6.5748Y-4.885
X6.5748Y-4.9654
X3.2677Y-2.515
X3.2677Y-2.5953
X3.2677Y-2.6756
X3.2677Y-2.7559
X3.3378Y-2.4748
X3.3378Y-2.5551
X3.3378Y-2.6354
X3.3378Y-2.7157
X3.2677Y-4.0898
X3.2677Y-4.1701
X3.2677Y-4.2504
X3.2677Y-4.3307
X3.3378Y-4.0496
X3.3378Y-4.1299
X3.3378Y-4.2102
X3.3378Y-4.2906
T8
X5.378Y-2.3031
X5.378Y-2.4016
X5.4606Y-2.3031
X5.4606Y-2.4016
X5.5472Y-2.4016
X5.563Y-2.3031
X5.6457Y-2.3031
X5.6457Y-2.4016
X3.4882Y-5.4606
X3.4882Y-5.5591
X3.5709Y-5.5591
X3.5866Y-5.4606
X3.6732Y-5.4606
X3.6732Y-5.5591
X3.7559Y-5.4606
X3.7559Y-5.5591
T9
X4.7724Y-2.6378
X4.7724Y-2.7378
X4.8724Y-2.6378
X4.8724Y-2.7378
X4.9724Y-2.6378
X4.9724Y-2.7378
X5.0724Y-2.6378
X5.0724Y-2.7378
X5.1724Y-2.6378
X5.1724Y-2.7378
X5.2724Y-2.6378
X5.2724Y-2.7378
X5.3724Y-2.6378
X5.3724Y-2.7378
X5.4724Y-2.6378
X5.4724Y-2.7378
X4.2323Y-4.6063
X5.8724Y-4.4378
X5.8724Y-4.5378
X5.8724Y-4.6378
X5.8724Y-4.7378
X4.3307Y-4.7736
X5.878Y-3.8669
X5.8858Y-5.3433
X4.7724Y-4.3378
X4.7724Y-4.4378
X4.8724Y-4.3378
X4.8724Y-4.4378
X4.9724Y-4.3378
X4.9724Y-4.4378
X5.0724Y-4.3378
X5.0724Y-4.4378
X5.1724Y-4.3378
X5.1724Y-4.4378
X5.2724Y-4.3378
X5.2724Y-4.4378
X5.3724Y-4.3378
X5.3724Y-4.4378
X5.4724Y-4.3378
X5.4724Y-4.4378
X4.1394Y-2.0654
X4.1394Y-2.1654
X4.2394Y-2.0654
X4.2394Y-2.1654
X4.3394Y-2.0654
X4.3394Y-2.1654
X4.4394Y-2.0654
X4.4394Y-2.1654
X4.5394Y-2.0654
X4.5394Y-2.1654
X4.6394Y-2.0654
X4.6394Y-2.1654
X4.7394Y-2.0654
X4.7394Y-2.1654
X4.8394Y-2.0654
X4.8394Y-2.1654
X4.9394Y-2.0654
X4.9394Y-2.1654
X5.0394Y-2.0654
X5.0394Y-2.1654
X3.878Y-2.3441
X4.0551Y-4.7736
X4.7724Y-2.9378
X4.7724Y-3.0378
X4.8724Y-2.9378
X4.8724Y-3.0378
X4.9724Y-2.9378
X4.9724Y-3.0378
X5.0724Y-2.9378
X5.0724Y-3.0378
X5.1724Y-2.9378
X5.1724Y-3.0378
X5.2724Y-2.9378
X5.2724Y-3.0378
X5.3724Y-2.9378
X5.3724Y-3.0378
X5.4724Y-2.9378
X5.4724Y-3.0378
X5.5724Y-2.9378
X5.5724Y-3.0378
X5.6724Y-2.9378
X5.6724Y-3.0378
X5.7724Y-2.9378
X5.7724Y-3.0378
X5.8724Y-2.9378
X5.8724Y-3.0378
X3.7953Y-2.8165
X3.952Y-3.0035
X4.052Y-3.0035
X4.152Y-3.0035
X4.252Y-3.0035
T10
X4.1394Y-5.748
X4.1394Y-5.848
X4.2394Y-5.748
X4.2394Y-5.848
X4.3394Y-5.748
X4.3394Y-5.848
X4.4394Y-5.748
X4.4394Y-5.848
X4.5394Y-5.748
X4.5394Y-5.848
X4.6394Y-5.748
X4.6394Y-5.848
X4.7394Y-5.748
X4.7394Y-5.848
X4.8394Y-5.748
X4.8394Y-5.848
X4.9394Y-5.748
X4.9394Y-5.848
X5.0394Y-5.748
X5.0394Y-5.848
T11
X6.5398Y-2.3004
X6.5398Y-2.9406
X6.5398Y-4.5445
X6.5398Y-5.1846
X3.3028Y-2.2957
X3.3028Y-2.9358
X3.3028Y-3.8705
X3.3028Y-4.5106
X6.5398Y-3.0484
X6.5398Y-3.6886
X3.3028Y-3.0437
X3.3028Y-3.6839
X6.5398Y-3.7965
X6.5398Y-4.4366
X3.3028Y-4.6185
X3.3028Y-5.2587
T3
X5.6299Y-5.8597G85X5.6299Y-5.8322
G05
X5.9055Y-5.8322G85X5.9055Y-5.8597
G05
T9
X6.3386Y-5.5118G85X6.3386Y-5.4331
G05
X6.4961Y-5.2874G85X6.4173Y-5.2874
G05
X6.5748Y-5.5118G85X6.5748Y-5.4331
G05
T0
M30
