G04 #@! TF.GenerationSoftware,KiCad,Pcbnew,(5.0.2)-1*
G04 #@! TF.CreationDate,2019-01-06T02:56:27+01:00*
G04 #@! TF.ProjectId,XMOS_XUF216_FB236,584d4f53-5f58-4554-9632-31365f464232,BETA*
G04 #@! TF.SameCoordinates,Original*
G04 #@! TF.FileFunction,Legend,Bot*
G04 #@! TF.FilePolarity,Positive*
%FSLAX46Y46*%
G04 Gerber Fmt 4.6, Leading zero omitted, Abs format (unit mm)*
G04 Created by KiCad (PCBNEW (5.0.2)-1) date 2019-01-06 02:56:27*
%MOMM*%
%LPD*%
G01*
G04 APERTURE LIST*
%ADD10C,0.100000*%
%ADD11C,0.150000*%
%ADD12C,0.300000*%
%ADD13C,0.400000*%
%ADD14C,0.120000*%
G04 APERTURE END LIST*
D10*
D11*
X177002200Y-166007200D02*
X177002200Y-198007200D01*
X285002200Y-198007200D01*
X285002200Y-166007200D01*
X177002200Y-166007200D01*
D10*
D11*
X10000000Y-10000000D02*
X10000000Y-200007200D01*
X287002200Y-200007200D01*
X287002200Y-10000000D01*
X10000000Y-10000000D01*
D10*
D11*
X12000000Y-12000000D02*
X12000000Y-198007200D01*
X285002200Y-198007200D01*
X285002200Y-12000000D01*
X12000000Y-12000000D01*
D10*
D11*
X60000000Y-12000000D02*
X60000000Y-10000000D01*
D10*
D11*
X110000000Y-12000000D02*
X110000000Y-10000000D01*
D10*
D11*
X160000000Y-12000000D02*
X160000000Y-10000000D01*
D10*
D11*
X210000000Y-12000000D02*
X210000000Y-10000000D01*
D10*
D11*
X260000000Y-12000000D02*
X260000000Y-10000000D01*
D10*
D11*
X36065476Y-11588095D02*
X35322619Y-11588095D01*
X35694047Y-11588095D02*
X35694047Y-10288095D01*
X35570238Y-10473809D01*
X35446428Y-10597619D01*
X35322619Y-10659523D01*
D10*
D11*
X85322619Y-10411904D02*
X85384523Y-10350000D01*
X85508333Y-10288095D01*
X85817857Y-10288095D01*
X85941666Y-10350000D01*
X86003571Y-10411904D01*
X86065476Y-10535714D01*
X86065476Y-10659523D01*
X86003571Y-10845238D01*
X85260714Y-11588095D01*
X86065476Y-11588095D01*
D10*
D11*
X135260714Y-10288095D02*
X136065476Y-10288095D01*
X135632142Y-10783333D01*
X135817857Y-10783333D01*
X135941666Y-10845238D01*
X136003571Y-10907142D01*
X136065476Y-11030952D01*
X136065476Y-11340476D01*
X136003571Y-11464285D01*
X135941666Y-11526190D01*
X135817857Y-11588095D01*
X135446428Y-11588095D01*
X135322619Y-11526190D01*
X135260714Y-11464285D01*
D10*
D11*
X185941666Y-10721428D02*
X185941666Y-11588095D01*
X185632142Y-10226190D02*
X185322619Y-11154761D01*
X186127380Y-11154761D01*
D10*
D11*
X236003571Y-10288095D02*
X235384523Y-10288095D01*
X235322619Y-10907142D01*
X235384523Y-10845238D01*
X235508333Y-10783333D01*
X235817857Y-10783333D01*
X235941666Y-10845238D01*
X236003571Y-10907142D01*
X236065476Y-11030952D01*
X236065476Y-11340476D01*
X236003571Y-11464285D01*
X235941666Y-11526190D01*
X235817857Y-11588095D01*
X235508333Y-11588095D01*
X235384523Y-11526190D01*
X235322619Y-11464285D01*
D10*
D11*
X285941666Y-10288095D02*
X285694047Y-10288095D01*
X285570238Y-10350000D01*
X285508333Y-10411904D01*
X285384523Y-10597619D01*
X285322619Y-10845238D01*
X285322619Y-11340476D01*
X285384523Y-11464285D01*
X285446428Y-11526190D01*
X285570238Y-11588095D01*
X285817857Y-11588095D01*
X285941666Y-11526190D01*
X286003571Y-11464285D01*
X286065476Y-11340476D01*
X286065476Y-11030952D01*
X286003571Y-10907142D01*
X285941666Y-10845238D01*
X285817857Y-10783333D01*
X285570238Y-10783333D01*
X285446428Y-10845238D01*
X285384523Y-10907142D01*
X285322619Y-11030952D01*
D10*
D11*
X60000000Y-198007200D02*
X60000000Y-200007200D01*
D10*
D11*
X110000000Y-198007200D02*
X110000000Y-200007200D01*
D10*
D11*
X160000000Y-198007200D02*
X160000000Y-200007200D01*
D10*
D11*
X210000000Y-198007200D02*
X210000000Y-200007200D01*
D10*
D11*
X260000000Y-198007200D02*
X260000000Y-200007200D01*
D10*
D11*
X36065476Y-199595295D02*
X35322619Y-199595295D01*
X35694047Y-199595295D02*
X35694047Y-198295295D01*
X35570238Y-198481009D01*
X35446428Y-198604819D01*
X35322619Y-198666723D01*
D10*
D11*
X85322619Y-198419104D02*
X85384523Y-198357200D01*
X85508333Y-198295295D01*
X85817857Y-198295295D01*
X85941666Y-198357200D01*
X86003571Y-198419104D01*
X86065476Y-198542914D01*
X86065476Y-198666723D01*
X86003571Y-198852438D01*
X85260714Y-199595295D01*
X86065476Y-199595295D01*
D10*
D11*
X135260714Y-198295295D02*
X136065476Y-198295295D01*
X135632142Y-198790533D01*
X135817857Y-198790533D01*
X135941666Y-198852438D01*
X136003571Y-198914342D01*
X136065476Y-199038152D01*
X136065476Y-199347676D01*
X136003571Y-199471485D01*
X135941666Y-199533390D01*
X135817857Y-199595295D01*
X135446428Y-199595295D01*
X135322619Y-199533390D01*
X135260714Y-199471485D01*
D10*
D11*
X185941666Y-198728628D02*
X185941666Y-199595295D01*
X185632142Y-198233390D02*
X185322619Y-199161961D01*
X186127380Y-199161961D01*
D10*
D11*
X236003571Y-198295295D02*
X235384523Y-198295295D01*
X235322619Y-198914342D01*
X235384523Y-198852438D01*
X235508333Y-198790533D01*
X235817857Y-198790533D01*
X235941666Y-198852438D01*
X236003571Y-198914342D01*
X236065476Y-199038152D01*
X236065476Y-199347676D01*
X236003571Y-199471485D01*
X235941666Y-199533390D01*
X235817857Y-199595295D01*
X235508333Y-199595295D01*
X235384523Y-199533390D01*
X235322619Y-199471485D01*
D10*
D11*
X285941666Y-198295295D02*
X285694047Y-198295295D01*
X285570238Y-198357200D01*
X285508333Y-198419104D01*
X285384523Y-198604819D01*
X285322619Y-198852438D01*
X285322619Y-199347676D01*
X285384523Y-199471485D01*
X285446428Y-199533390D01*
X285570238Y-199595295D01*
X285817857Y-199595295D01*
X285941666Y-199533390D01*
X286003571Y-199471485D01*
X286065476Y-199347676D01*
X286065476Y-199038152D01*
X286003571Y-198914342D01*
X285941666Y-198852438D01*
X285817857Y-198790533D01*
X285570238Y-198790533D01*
X285446428Y-198852438D01*
X285384523Y-198914342D01*
X285322619Y-199038152D01*
D10*
D11*
X10000000Y-60000000D02*
X12000000Y-60000000D01*
D10*
D11*
X10000000Y-110000000D02*
X12000000Y-110000000D01*
D10*
D11*
X10000000Y-160000000D02*
X12000000Y-160000000D01*
D10*
D11*
X10690476Y-35216666D02*
X11309523Y-35216666D01*
X10566666Y-35588095D02*
X11000000Y-34288095D01*
X11433333Y-35588095D01*
D10*
D11*
X11092857Y-84907142D02*
X11278571Y-84969047D01*
X11340476Y-85030952D01*
X11402380Y-85154761D01*
X11402380Y-85340476D01*
X11340476Y-85464285D01*
X11278571Y-85526190D01*
X11154761Y-85588095D01*
X10659523Y-85588095D01*
X10659523Y-84288095D01*
X11092857Y-84288095D01*
X11216666Y-84350000D01*
X11278571Y-84411904D01*
X11340476Y-84535714D01*
X11340476Y-84659523D01*
X11278571Y-84783333D01*
X11216666Y-84845238D01*
X11092857Y-84907142D01*
X10659523Y-84907142D01*
D10*
D11*
X11402380Y-135464285D02*
X11340476Y-135526190D01*
X11154761Y-135588095D01*
X11030952Y-135588095D01*
X10845238Y-135526190D01*
X10721428Y-135402380D01*
X10659523Y-135278571D01*
X10597619Y-135030952D01*
X10597619Y-134845238D01*
X10659523Y-134597619D01*
X10721428Y-134473809D01*
X10845238Y-134350000D01*
X11030952Y-134288095D01*
X11154761Y-134288095D01*
X11340476Y-134350000D01*
X11402380Y-134411904D01*
D10*
D11*
X10659523Y-185588095D02*
X10659523Y-184288095D01*
X10969047Y-184288095D01*
X11154761Y-184350000D01*
X11278571Y-184473809D01*
X11340476Y-184597619D01*
X11402380Y-184845238D01*
X11402380Y-185030952D01*
X11340476Y-185278571D01*
X11278571Y-185402380D01*
X11154761Y-185526190D01*
X10969047Y-185588095D01*
X10659523Y-185588095D01*
D10*
D11*
X287002200Y-60000000D02*
X285002200Y-60000000D01*
D10*
D11*
X287002200Y-110000000D02*
X285002200Y-110000000D01*
D10*
D11*
X287002200Y-160000000D02*
X285002200Y-160000000D01*
D10*
D11*
X285692676Y-35216666D02*
X286311723Y-35216666D01*
X285568866Y-35588095D02*
X286002200Y-34288095D01*
X286435533Y-35588095D01*
D10*
D11*
X286095057Y-84907142D02*
X286280771Y-84969047D01*
X286342676Y-85030952D01*
X286404580Y-85154761D01*
X286404580Y-85340476D01*
X286342676Y-85464285D01*
X286280771Y-85526190D01*
X286156961Y-85588095D01*
X285661723Y-85588095D01*
X285661723Y-84288095D01*
X286095057Y-84288095D01*
X286218866Y-84350000D01*
X286280771Y-84411904D01*
X286342676Y-84535714D01*
X286342676Y-84659523D01*
X286280771Y-84783333D01*
X286218866Y-84845238D01*
X286095057Y-84907142D01*
X285661723Y-84907142D01*
D10*
D11*
X286404580Y-135464285D02*
X286342676Y-135526190D01*
X286156961Y-135588095D01*
X286033152Y-135588095D01*
X285847438Y-135526190D01*
X285723628Y-135402380D01*
X285661723Y-135278571D01*
X285599819Y-135030952D01*
X285599819Y-134845238D01*
X285661723Y-134597619D01*
X285723628Y-134473809D01*
X285847438Y-134350000D01*
X286033152Y-134288095D01*
X286156961Y-134288095D01*
X286342676Y-134350000D01*
X286404580Y-134411904D01*
D10*
D11*
X285661723Y-185588095D02*
X285661723Y-184288095D01*
X285971247Y-184288095D01*
X286156961Y-184350000D01*
X286280771Y-184473809D01*
X286342676Y-184597619D01*
X286404580Y-184845238D01*
X286404580Y-185030952D01*
X286342676Y-185278571D01*
X286280771Y-185402380D01*
X286156961Y-185526190D01*
X285971247Y-185588095D01*
X285661723Y-185588095D01*
D10*
D11*
X200434342Y-193785771D02*
X200434342Y-192285771D01*
X200791485Y-192285771D01*
X201005771Y-192357200D01*
X201148628Y-192500057D01*
X201220057Y-192642914D01*
X201291485Y-192928628D01*
X201291485Y-193142914D01*
X201220057Y-193428628D01*
X201148628Y-193571485D01*
X201005771Y-193714342D01*
X200791485Y-193785771D01*
X200434342Y-193785771D01*
X202577200Y-193785771D02*
X202577200Y-193000057D01*
X202505771Y-192857200D01*
X202362914Y-192785771D01*
X202077200Y-192785771D01*
X201934342Y-192857200D01*
X202577200Y-193714342D02*
X202434342Y-193785771D01*
X202077200Y-193785771D01*
X201934342Y-193714342D01*
X201862914Y-193571485D01*
X201862914Y-193428628D01*
X201934342Y-193285771D01*
X202077200Y-193214342D01*
X202434342Y-193214342D01*
X202577200Y-193142914D01*
X203077200Y-192785771D02*
X203648628Y-192785771D01*
X203291485Y-192285771D02*
X203291485Y-193571485D01*
X203362914Y-193714342D01*
X203505771Y-193785771D01*
X203648628Y-193785771D01*
X204720057Y-193714342D02*
X204577200Y-193785771D01*
X204291485Y-193785771D01*
X204148628Y-193714342D01*
X204077200Y-193571485D01*
X204077200Y-193000057D01*
X204148628Y-192857200D01*
X204291485Y-192785771D01*
X204577200Y-192785771D01*
X204720057Y-192857200D01*
X204791485Y-193000057D01*
X204791485Y-193142914D01*
X204077200Y-193285771D01*
X205434342Y-193642914D02*
X205505771Y-193714342D01*
X205434342Y-193785771D01*
X205362914Y-193714342D01*
X205434342Y-193642914D01*
X205434342Y-193785771D01*
X205434342Y-192857200D02*
X205505771Y-192928628D01*
X205434342Y-193000057D01*
X205362914Y-192928628D01*
X205434342Y-192857200D01*
X205434342Y-193000057D01*
X207220057Y-192428628D02*
X207291485Y-192357200D01*
X207434342Y-192285771D01*
X207791485Y-192285771D01*
X207934342Y-192357200D01*
X208005771Y-192428628D01*
X208077200Y-192571485D01*
X208077200Y-192714342D01*
X208005771Y-192928628D01*
X207148628Y-193785771D01*
X208077200Y-193785771D01*
X209005771Y-192285771D02*
X209148628Y-192285771D01*
X209291485Y-192357200D01*
X209362914Y-192428628D01*
X209434342Y-192571485D01*
X209505771Y-192857200D01*
X209505771Y-193214342D01*
X209434342Y-193500057D01*
X209362914Y-193642914D01*
X209291485Y-193714342D01*
X209148628Y-193785771D01*
X209005771Y-193785771D01*
X208862914Y-193714342D01*
X208791485Y-193642914D01*
X208720057Y-193500057D01*
X208648628Y-193214342D01*
X208648628Y-192857200D01*
X208720057Y-192571485D01*
X208791485Y-192428628D01*
X208862914Y-192357200D01*
X209005771Y-192285771D01*
X210934342Y-193785771D02*
X210077200Y-193785771D01*
X210505771Y-193785771D02*
X210505771Y-192285771D01*
X210362914Y-192500057D01*
X210220057Y-192642914D01*
X210077200Y-192714342D01*
X211648628Y-193785771D02*
X211934342Y-193785771D01*
X212077200Y-193714342D01*
X212148628Y-193642914D01*
X212291485Y-193428628D01*
X212362914Y-193142914D01*
X212362914Y-192571485D01*
X212291485Y-192428628D01*
X212220057Y-192357200D01*
X212077200Y-192285771D01*
X211791485Y-192285771D01*
X211648628Y-192357200D01*
X211577200Y-192428628D01*
X211505771Y-192571485D01*
X211505771Y-192928628D01*
X211577200Y-193071485D01*
X211648628Y-193142914D01*
X211791485Y-193214342D01*
X212077200Y-193214342D01*
X212220057Y-193142914D01*
X212291485Y-193071485D01*
X212362914Y-192928628D01*
X213005771Y-193214342D02*
X214148628Y-193214342D01*
X215148628Y-192285771D02*
X215291485Y-192285771D01*
X215434342Y-192357200D01*
X215505771Y-192428628D01*
X215577200Y-192571485D01*
X215648628Y-192857200D01*
X215648628Y-193214342D01*
X215577200Y-193500057D01*
X215505771Y-193642914D01*
X215434342Y-193714342D01*
X215291485Y-193785771D01*
X215148628Y-193785771D01*
X215005771Y-193714342D01*
X214934342Y-193642914D01*
X214862914Y-193500057D01*
X214791485Y-193214342D01*
X214791485Y-192857200D01*
X214862914Y-192571485D01*
X214934342Y-192428628D01*
X215005771Y-192357200D01*
X215148628Y-192285771D01*
X217077200Y-193785771D02*
X216220057Y-193785771D01*
X216648628Y-193785771D02*
X216648628Y-192285771D01*
X216505771Y-192500057D01*
X216362914Y-192642914D01*
X216220057Y-192714342D01*
X217720057Y-193214342D02*
X218862914Y-193214342D01*
X219862914Y-192285771D02*
X220005771Y-192285771D01*
X220148628Y-192357200D01*
X220220057Y-192428628D01*
X220291485Y-192571485D01*
X220362914Y-192857200D01*
X220362914Y-193214342D01*
X220291485Y-193500057D01*
X220220057Y-193642914D01*
X220148628Y-193714342D01*
X220005771Y-193785771D01*
X219862914Y-193785771D01*
X219720057Y-193714342D01*
X219648628Y-193642914D01*
X219577200Y-193500057D01*
X219505771Y-193214342D01*
X219505771Y-192857200D01*
X219577200Y-192571485D01*
X219648628Y-192428628D01*
X219720057Y-192357200D01*
X219862914Y-192285771D01*
X221648628Y-192785771D02*
X221648628Y-193785771D01*
X221291485Y-192214342D02*
X220934342Y-193285771D01*
X221862914Y-193285771D01*
D10*
D11*
X177002200Y-194507200D02*
X285002200Y-194507200D01*
D10*
D11*
X178434342Y-196585771D02*
X178434342Y-195085771D01*
X179291485Y-196585771D02*
X178648628Y-195728628D01*
X179291485Y-195085771D02*
X178434342Y-195942914D01*
X179934342Y-196585771D02*
X179934342Y-195585771D01*
X179934342Y-195085771D02*
X179862914Y-195157200D01*
X179934342Y-195228628D01*
X180005771Y-195157200D01*
X179934342Y-195085771D01*
X179934342Y-195228628D01*
X181505771Y-196442914D02*
X181434342Y-196514342D01*
X181220057Y-196585771D01*
X181077200Y-196585771D01*
X180862914Y-196514342D01*
X180720057Y-196371485D01*
X180648628Y-196228628D01*
X180577200Y-195942914D01*
X180577200Y-195728628D01*
X180648628Y-195442914D01*
X180720057Y-195300057D01*
X180862914Y-195157200D01*
X181077200Y-195085771D01*
X181220057Y-195085771D01*
X181434342Y-195157200D01*
X181505771Y-195228628D01*
X182791485Y-196585771D02*
X182791485Y-195800057D01*
X182720057Y-195657200D01*
X182577200Y-195585771D01*
X182291485Y-195585771D01*
X182148628Y-195657200D01*
X182791485Y-196514342D02*
X182648628Y-196585771D01*
X182291485Y-196585771D01*
X182148628Y-196514342D01*
X182077200Y-196371485D01*
X182077200Y-196228628D01*
X182148628Y-196085771D01*
X182291485Y-196014342D01*
X182648628Y-196014342D01*
X182791485Y-195942914D01*
X184148628Y-196585771D02*
X184148628Y-195085771D01*
X184148628Y-196514342D02*
X184005771Y-196585771D01*
X183720057Y-196585771D01*
X183577200Y-196514342D01*
X183505771Y-196442914D01*
X183434342Y-196300057D01*
X183434342Y-195871485D01*
X183505771Y-195728628D01*
X183577200Y-195657200D01*
X183720057Y-195585771D01*
X184005771Y-195585771D01*
X184148628Y-195657200D01*
X186005771Y-195800057D02*
X186505771Y-195800057D01*
X186720057Y-196585771D02*
X186005771Y-196585771D01*
X186005771Y-195085771D01*
X186720057Y-195085771D01*
X187362914Y-196442914D02*
X187434342Y-196514342D01*
X187362914Y-196585771D01*
X187291485Y-196514342D01*
X187362914Y-196442914D01*
X187362914Y-196585771D01*
X188077200Y-196585771D02*
X188077200Y-195085771D01*
X188434342Y-195085771D01*
X188648628Y-195157200D01*
X188791485Y-195300057D01*
X188862914Y-195442914D01*
X188934342Y-195728628D01*
X188934342Y-195942914D01*
X188862914Y-196228628D01*
X188791485Y-196371485D01*
X188648628Y-196514342D01*
X188434342Y-196585771D01*
X188077200Y-196585771D01*
X189577200Y-196442914D02*
X189648628Y-196514342D01*
X189577200Y-196585771D01*
X189505771Y-196514342D01*
X189577200Y-196442914D01*
X189577200Y-196585771D01*
X190220057Y-196157200D02*
X190934342Y-196157200D01*
X190077200Y-196585771D02*
X190577200Y-195085771D01*
X191077200Y-196585771D01*
X191577200Y-196442914D02*
X191648628Y-196514342D01*
X191577200Y-196585771D01*
X191505771Y-196514342D01*
X191577200Y-196442914D01*
X191577200Y-196585771D01*
X194577200Y-196585771D02*
X194577200Y-195085771D01*
X194720057Y-196014342D02*
X195148628Y-196585771D01*
X195148628Y-195585771D02*
X194577200Y-196157200D01*
X195791485Y-196585771D02*
X195791485Y-195585771D01*
X195791485Y-195085771D02*
X195720057Y-195157200D01*
X195791485Y-195228628D01*
X195862914Y-195157200D01*
X195791485Y-195085771D01*
X195791485Y-195228628D01*
X197148628Y-196514342D02*
X197005771Y-196585771D01*
X196720057Y-196585771D01*
X196577200Y-196514342D01*
X196505771Y-196442914D01*
X196434342Y-196300057D01*
X196434342Y-195871485D01*
X196505771Y-195728628D01*
X196577200Y-195657200D01*
X196720057Y-195585771D01*
X197005771Y-195585771D01*
X197148628Y-195657200D01*
X198434342Y-196585771D02*
X198434342Y-195800057D01*
X198362914Y-195657200D01*
X198220057Y-195585771D01*
X197934342Y-195585771D01*
X197791485Y-195657200D01*
X198434342Y-196514342D02*
X198291485Y-196585771D01*
X197934342Y-196585771D01*
X197791485Y-196514342D01*
X197720057Y-196371485D01*
X197720057Y-196228628D01*
X197791485Y-196085771D01*
X197934342Y-196014342D01*
X198291485Y-196014342D01*
X198434342Y-195942914D01*
X199791485Y-196585771D02*
X199791485Y-195085771D01*
X199791485Y-196514342D02*
X199648628Y-196585771D01*
X199362914Y-196585771D01*
X199220057Y-196514342D01*
X199148628Y-196442914D01*
X199077200Y-196300057D01*
X199077200Y-195871485D01*
X199148628Y-195728628D01*
X199220057Y-195657200D01*
X199362914Y-195585771D01*
X199648628Y-195585771D01*
X199791485Y-195657200D01*
X202077200Y-197157200D02*
X202005771Y-197085771D01*
X201862914Y-196871485D01*
X201791485Y-196728628D01*
X201720057Y-196514342D01*
X201648628Y-196157200D01*
X201648628Y-195871485D01*
X201720057Y-195514342D01*
X201791485Y-195300057D01*
X201862914Y-195157200D01*
X202005771Y-194942914D01*
X202077200Y-194871485D01*
X203362914Y-195085771D02*
X202648628Y-195085771D01*
X202577200Y-195800057D01*
X202648628Y-195728628D01*
X202791485Y-195657200D01*
X203148628Y-195657200D01*
X203291485Y-195728628D01*
X203362914Y-195800057D01*
X203434342Y-195942914D01*
X203434342Y-196300057D01*
X203362914Y-196442914D01*
X203291485Y-196514342D01*
X203148628Y-196585771D01*
X202791485Y-196585771D01*
X202648628Y-196514342D01*
X202577200Y-196442914D01*
X204077200Y-196442914D02*
X204148628Y-196514342D01*
X204077200Y-196585771D01*
X204005771Y-196514342D01*
X204077200Y-196442914D01*
X204077200Y-196585771D01*
X205077200Y-195085771D02*
X205220057Y-195085771D01*
X205362914Y-195157200D01*
X205434342Y-195228628D01*
X205505771Y-195371485D01*
X205577200Y-195657200D01*
X205577200Y-196014342D01*
X205505771Y-196300057D01*
X205434342Y-196442914D01*
X205362914Y-196514342D01*
X205220057Y-196585771D01*
X205077200Y-196585771D01*
X204934342Y-196514342D01*
X204862914Y-196442914D01*
X204791485Y-196300057D01*
X204720057Y-196014342D01*
X204720057Y-195657200D01*
X204791485Y-195371485D01*
X204862914Y-195228628D01*
X204934342Y-195157200D01*
X205077200Y-195085771D01*
X206220057Y-196442914D02*
X206291485Y-196514342D01*
X206220057Y-196585771D01*
X206148628Y-196514342D01*
X206220057Y-196442914D01*
X206220057Y-196585771D01*
X206862914Y-195228628D02*
X206934342Y-195157200D01*
X207077200Y-195085771D01*
X207434342Y-195085771D01*
X207577200Y-195157200D01*
X207648628Y-195228628D01*
X207720057Y-195371485D01*
X207720057Y-195514342D01*
X207648628Y-195728628D01*
X206791485Y-196585771D01*
X207720057Y-196585771D01*
X208220057Y-197157200D02*
X208291485Y-197085771D01*
X208434342Y-196871485D01*
X208505771Y-196728628D01*
X208577200Y-196514342D01*
X208648628Y-196157200D01*
X208648628Y-195871485D01*
X208577200Y-195514342D01*
X208505771Y-195300057D01*
X208434342Y-195157200D01*
X208291485Y-194942914D01*
X208220057Y-194871485D01*
X209362914Y-196014342D02*
X210505771Y-196014342D01*
X212005771Y-196585771D02*
X211148628Y-196585771D01*
X211577200Y-196585771D02*
X211577200Y-195085771D01*
X211434342Y-195300057D01*
X211291485Y-195442914D01*
X211148628Y-195514342D01*
D10*
D11*
X177002200Y-191507200D02*
X285002200Y-191507200D01*
D10*
D12*
X264411485Y-193785771D02*
X263911485Y-193071485D01*
X263554342Y-193785771D02*
X263554342Y-192285771D01*
X264125771Y-192285771D01*
X264268628Y-192357200D01*
X264340057Y-192428628D01*
X264411485Y-192571485D01*
X264411485Y-192785771D01*
X264340057Y-192928628D01*
X264268628Y-193000057D01*
X264125771Y-193071485D01*
X263554342Y-193071485D01*
X265625771Y-193714342D02*
X265482914Y-193785771D01*
X265197200Y-193785771D01*
X265054342Y-193714342D01*
X264982914Y-193571485D01*
X264982914Y-193000057D01*
X265054342Y-192857200D01*
X265197200Y-192785771D01*
X265482914Y-192785771D01*
X265625771Y-192857200D01*
X265697200Y-193000057D01*
X265697200Y-193142914D01*
X264982914Y-193285771D01*
X266197200Y-192785771D02*
X266554342Y-193785771D01*
X266911485Y-192785771D01*
X267482914Y-193642914D02*
X267554342Y-193714342D01*
X267482914Y-193785771D01*
X267411485Y-193714342D01*
X267482914Y-193642914D01*
X267482914Y-193785771D01*
X267482914Y-192857200D02*
X267554342Y-192928628D01*
X267482914Y-193000057D01*
X267411485Y-192928628D01*
X267482914Y-192857200D01*
X267482914Y-193000057D01*
X269840057Y-193000057D02*
X270054342Y-193071485D01*
X270125771Y-193142914D01*
X270197200Y-193285771D01*
X270197200Y-193500057D01*
X270125771Y-193642914D01*
X270054342Y-193714342D01*
X269911485Y-193785771D01*
X269340057Y-193785771D01*
X269340057Y-192285771D01*
X269840057Y-192285771D01*
X269982914Y-192357200D01*
X270054342Y-192428628D01*
X270125771Y-192571485D01*
X270125771Y-192714342D01*
X270054342Y-192857200D01*
X269982914Y-192928628D01*
X269840057Y-193000057D01*
X269340057Y-193000057D01*
X270840057Y-193000057D02*
X271340057Y-193000057D01*
X271554342Y-193785771D02*
X270840057Y-193785771D01*
X270840057Y-192285771D01*
X271554342Y-192285771D01*
X271982914Y-192285771D02*
X272840057Y-192285771D01*
X272411485Y-193785771D02*
X272411485Y-192285771D01*
X273268628Y-193357200D02*
X273982914Y-193357200D01*
X273125771Y-193785771D02*
X273625771Y-192285771D01*
X274125771Y-193785771D01*
D10*
D11*
X178362914Y-193714342D02*
X178577200Y-193785771D01*
X178934342Y-193785771D01*
X179077200Y-193714342D01*
X179148628Y-193642914D01*
X179220057Y-193500057D01*
X179220057Y-193357200D01*
X179148628Y-193214342D01*
X179077200Y-193142914D01*
X178934342Y-193071485D01*
X178648628Y-193000057D01*
X178505771Y-192928628D01*
X178434342Y-192857200D01*
X178362914Y-192714342D01*
X178362914Y-192571485D01*
X178434342Y-192428628D01*
X178505771Y-192357200D01*
X178648628Y-192285771D01*
X179005771Y-192285771D01*
X179220057Y-192357200D01*
X179862914Y-193785771D02*
X179862914Y-192785771D01*
X179862914Y-192285771D02*
X179791485Y-192357200D01*
X179862914Y-192428628D01*
X179934342Y-192357200D01*
X179862914Y-192285771D01*
X179862914Y-192428628D01*
X180434342Y-192785771D02*
X181220057Y-192785771D01*
X180434342Y-193785771D01*
X181220057Y-193785771D01*
X182362914Y-193714342D02*
X182220057Y-193785771D01*
X181934342Y-193785771D01*
X181791485Y-193714342D01*
X181720057Y-193571485D01*
X181720057Y-193000057D01*
X181791485Y-192857200D01*
X181934342Y-192785771D01*
X182220057Y-192785771D01*
X182362914Y-192857200D01*
X182434342Y-193000057D01*
X182434342Y-193142914D01*
X181720057Y-193285771D01*
X183077200Y-193642914D02*
X183148628Y-193714342D01*
X183077200Y-193785771D01*
X183005771Y-193714342D01*
X183077200Y-193642914D01*
X183077200Y-193785771D01*
X183077200Y-192857200D02*
X183148628Y-192928628D01*
X183077200Y-193000057D01*
X183005771Y-192928628D01*
X183077200Y-192857200D01*
X183077200Y-193000057D01*
X184862914Y-193357200D02*
X185577200Y-193357200D01*
X184720057Y-193785771D02*
X185220057Y-192285771D01*
X185720057Y-193785771D01*
X186862914Y-192785771D02*
X186862914Y-193785771D01*
X186505771Y-192214342D02*
X186148628Y-193285771D01*
X187077200Y-193285771D01*
D10*
D11*
X263434342Y-196585771D02*
X263434342Y-195085771D01*
X264791485Y-196585771D02*
X264791485Y-195085771D01*
X264791485Y-196514342D02*
X264648628Y-196585771D01*
X264362914Y-196585771D01*
X264220057Y-196514342D01*
X264148628Y-196442914D01*
X264077200Y-196300057D01*
X264077200Y-195871485D01*
X264148628Y-195728628D01*
X264220057Y-195657200D01*
X264362914Y-195585771D01*
X264648628Y-195585771D01*
X264791485Y-195657200D01*
X265505771Y-196442914D02*
X265577200Y-196514342D01*
X265505771Y-196585771D01*
X265434342Y-196514342D01*
X265505771Y-196442914D01*
X265505771Y-196585771D01*
X265505771Y-195657200D02*
X265577200Y-195728628D01*
X265505771Y-195800057D01*
X265434342Y-195728628D01*
X265505771Y-195657200D01*
X265505771Y-195800057D01*
X268148628Y-196585771D02*
X267291485Y-196585771D01*
X267720057Y-196585771D02*
X267720057Y-195085771D01*
X267577200Y-195300057D01*
X267434342Y-195442914D01*
X267291485Y-195514342D01*
X269862914Y-195014342D02*
X268577200Y-196942914D01*
X271148628Y-196585771D02*
X270291485Y-196585771D01*
X270720057Y-196585771D02*
X270720057Y-195085771D01*
X270577200Y-195300057D01*
X270434342Y-195442914D01*
X270291485Y-195514342D01*
D10*
D11*
X177002200Y-187507200D02*
X285002200Y-187507200D01*
D10*
D13*
X178714580Y-188211961D02*
X179857438Y-188211961D01*
X179036009Y-190211961D02*
X179286009Y-188211961D01*
X180274104Y-190211961D02*
X180440771Y-188878628D01*
X180524104Y-188211961D02*
X180416961Y-188307200D01*
X180500295Y-188402438D01*
X180607438Y-188307200D01*
X180524104Y-188211961D01*
X180500295Y-188402438D01*
X181107438Y-188878628D02*
X181869342Y-188878628D01*
X181476485Y-188211961D02*
X181262200Y-189926247D01*
X181333628Y-190116723D01*
X181512200Y-190211961D01*
X181702676Y-190211961D01*
X182655057Y-190211961D02*
X182476485Y-190116723D01*
X182405057Y-189926247D01*
X182619342Y-188211961D01*
X184190771Y-190116723D02*
X183988390Y-190211961D01*
X183607438Y-190211961D01*
X183428866Y-190116723D01*
X183357438Y-189926247D01*
X183452676Y-189164342D01*
X183571723Y-188973866D01*
X183774104Y-188878628D01*
X184155057Y-188878628D01*
X184333628Y-188973866D01*
X184405057Y-189164342D01*
X184381247Y-189354819D01*
X183405057Y-189545295D01*
X185155057Y-190021485D02*
X185238390Y-190116723D01*
X185131247Y-190211961D01*
X185047914Y-190116723D01*
X185155057Y-190021485D01*
X185131247Y-190211961D01*
X185286009Y-188973866D02*
X185369342Y-189069104D01*
X185262200Y-189164342D01*
X185178866Y-189069104D01*
X185286009Y-188973866D01*
X185262200Y-189164342D01*
X188631247Y-188878628D02*
X188464580Y-190211961D01*
X188250295Y-188116723D02*
X187595533Y-189545295D01*
X188833628Y-189545295D01*
X191321723Y-190211961D02*
X191143152Y-190116723D01*
X191071723Y-189926247D01*
X191286009Y-188211961D01*
X192940771Y-190211961D02*
X193071723Y-189164342D01*
X193000295Y-188973866D01*
X192821723Y-188878628D01*
X192440771Y-188878628D01*
X192238390Y-188973866D01*
X192952676Y-190116723D02*
X192750295Y-190211961D01*
X192274104Y-190211961D01*
X192095533Y-190116723D01*
X192024104Y-189926247D01*
X192047914Y-189735771D01*
X192166961Y-189545295D01*
X192369342Y-189450057D01*
X192845533Y-189450057D01*
X193047914Y-189354819D01*
X193869342Y-188878628D02*
X194178866Y-190211961D01*
X194821723Y-188878628D02*
X194178866Y-190211961D01*
X193928866Y-190688152D01*
X193821723Y-190783390D01*
X193619342Y-190878628D01*
X196190771Y-190116723D02*
X195988390Y-190211961D01*
X195607438Y-190211961D01*
X195428866Y-190116723D01*
X195357438Y-189926247D01*
X195452676Y-189164342D01*
X195571723Y-188973866D01*
X195774104Y-188878628D01*
X196155057Y-188878628D01*
X196333628Y-188973866D01*
X196405057Y-189164342D01*
X196381247Y-189354819D01*
X195405057Y-189545295D01*
X197131247Y-190211961D02*
X197297914Y-188878628D01*
X197250295Y-189259580D02*
X197369342Y-189069104D01*
X197476485Y-188973866D01*
X197678866Y-188878628D01*
X197869342Y-188878628D01*
X200940771Y-190211961D02*
X199797914Y-190211961D01*
X200369342Y-190211961D02*
X200619342Y-188211961D01*
X200393152Y-188497676D01*
X200178866Y-188688152D01*
X199976485Y-188783390D01*
X202428866Y-188211961D02*
X202619342Y-188211961D01*
X202797914Y-188307200D01*
X202881247Y-188402438D01*
X202952676Y-188592914D01*
X203000295Y-188973866D01*
X202940771Y-189450057D01*
X202797914Y-189831009D01*
X202678866Y-190021485D01*
X202571723Y-190116723D01*
X202369342Y-190211961D01*
X202178866Y-190211961D01*
X202000295Y-190116723D01*
X201916961Y-190021485D01*
X201845533Y-189831009D01*
X201797914Y-189450057D01*
X201857438Y-188973866D01*
X202000295Y-188592914D01*
X202119342Y-188402438D01*
X202226485Y-188307200D01*
X202428866Y-188211961D01*
X204333628Y-188211961D02*
X204524104Y-188211961D01*
X204702676Y-188307200D01*
X204786009Y-188402438D01*
X204857438Y-188592914D01*
X204905057Y-188973866D01*
X204845533Y-189450057D01*
X204702676Y-189831009D01*
X204583628Y-190021485D01*
X204476485Y-190116723D01*
X204274104Y-190211961D01*
X204083628Y-190211961D01*
X203905057Y-190116723D01*
X203821723Y-190021485D01*
X203750295Y-189831009D01*
X203702676Y-189450057D01*
X203762200Y-188973866D01*
X203905057Y-188592914D01*
X204024104Y-188402438D01*
X204131247Y-188307200D01*
X204333628Y-188211961D01*
X205416961Y-190211961D02*
X206631247Y-188878628D01*
X205583628Y-188878628D02*
X206464580Y-190211961D01*
X208274104Y-190211961D02*
X207131247Y-190211961D01*
X207702676Y-190211961D02*
X207952676Y-188211961D01*
X207726485Y-188497676D01*
X207512200Y-188688152D01*
X207309819Y-188783390D01*
X209762200Y-188211961D02*
X209952676Y-188211961D01*
X210131247Y-188307200D01*
X210214580Y-188402438D01*
X210286009Y-188592914D01*
X210333628Y-188973866D01*
X210274104Y-189450057D01*
X210131247Y-189831009D01*
X210012200Y-190021485D01*
X209905057Y-190116723D01*
X209702676Y-190211961D01*
X209512200Y-190211961D01*
X209333628Y-190116723D01*
X209250295Y-190021485D01*
X209178866Y-189831009D01*
X209131247Y-189450057D01*
X209190771Y-188973866D01*
X209333628Y-188592914D01*
X209452676Y-188402438D01*
X209559819Y-188307200D01*
X209762200Y-188211961D01*
X211666961Y-188211961D02*
X211857438Y-188211961D01*
X212036009Y-188307200D01*
X212119342Y-188402438D01*
X212190771Y-188592914D01*
X212238390Y-188973866D01*
X212178866Y-189450057D01*
X212036009Y-189831009D01*
X211916961Y-190021485D01*
X211809819Y-190116723D01*
X211607438Y-190211961D01*
X211416961Y-190211961D01*
X211238390Y-190116723D01*
X211155057Y-190021485D01*
X211083628Y-189831009D01*
X211036009Y-189450057D01*
X211095533Y-188973866D01*
X211238390Y-188592914D01*
X211357438Y-188402438D01*
X211464580Y-188307200D01*
X211666961Y-188211961D01*
X214464580Y-190211961D02*
X214631247Y-188878628D01*
X214607438Y-189069104D02*
X214714580Y-188973866D01*
X214916961Y-188878628D01*
X215202676Y-188878628D01*
X215381247Y-188973866D01*
X215452676Y-189164342D01*
X215321723Y-190211961D01*
X215452676Y-189164342D02*
X215571723Y-188973866D01*
X215774104Y-188878628D01*
X216059819Y-188878628D01*
X216238390Y-188973866D01*
X216309819Y-189164342D01*
X216178866Y-190211961D01*
X217131247Y-190211961D02*
X217297914Y-188878628D01*
X217274104Y-189069104D02*
X217381247Y-188973866D01*
X217583628Y-188878628D01*
X217869342Y-188878628D01*
X218047914Y-188973866D01*
X218119342Y-189164342D01*
X217988390Y-190211961D01*
X218119342Y-189164342D02*
X218238390Y-188973866D01*
X218440771Y-188878628D01*
X218726485Y-188878628D01*
X218905057Y-188973866D01*
X218976485Y-189164342D01*
X218845533Y-190211961D01*
X221321723Y-190211961D02*
X221571723Y-188211961D01*
X222333628Y-188211961D01*
X222512199Y-188307200D01*
X222595533Y-188402438D01*
X222666961Y-188592914D01*
X222631247Y-188878628D01*
X222512199Y-189069104D01*
X222405057Y-189164342D01*
X222202676Y-189259580D01*
X221440771Y-189259580D01*
X224488390Y-190021485D02*
X224381247Y-190116723D01*
X224083628Y-190211961D01*
X223893152Y-190211961D01*
X223619342Y-190116723D01*
X223452676Y-189926247D01*
X223381247Y-189735771D01*
X223333628Y-189354819D01*
X223369342Y-189069104D01*
X223512200Y-188688152D01*
X223631247Y-188497676D01*
X223845533Y-188307200D01*
X224143152Y-188211961D01*
X224333628Y-188211961D01*
X224607438Y-188307200D01*
X224690771Y-188402438D01*
X226119342Y-189164342D02*
X226393152Y-189259580D01*
X226476485Y-189354819D01*
X226547914Y-189545295D01*
X226512199Y-189831009D01*
X226393152Y-190021485D01*
X226286009Y-190116723D01*
X226083628Y-190211961D01*
X225321723Y-190211961D01*
X225571723Y-188211961D01*
X226238390Y-188211961D01*
X226416961Y-188307200D01*
X226500295Y-188402438D01*
X226571723Y-188592914D01*
X226547914Y-188783390D01*
X226428866Y-188973866D01*
X226321723Y-189069104D01*
X226119342Y-189164342D01*
X225452676Y-189164342D01*
D10*
D11*
X178934342Y-185600057D02*
X178434342Y-185600057D01*
X178434342Y-186385771D02*
X178434342Y-184885771D01*
X179148628Y-184885771D01*
X179720057Y-186385771D02*
X179720057Y-185385771D01*
X179720057Y-184885771D02*
X179648628Y-184957200D01*
X179720057Y-185028628D01*
X179791485Y-184957200D01*
X179720057Y-184885771D01*
X179720057Y-185028628D01*
X180648628Y-186385771D02*
X180505771Y-186314342D01*
X180434342Y-186171485D01*
X180434342Y-184885771D01*
X181791485Y-186314342D02*
X181648628Y-186385771D01*
X181362914Y-186385771D01*
X181220057Y-186314342D01*
X181148628Y-186171485D01*
X181148628Y-185600057D01*
X181220057Y-185457200D01*
X181362914Y-185385771D01*
X181648628Y-185385771D01*
X181791485Y-185457200D01*
X181862914Y-185600057D01*
X181862914Y-185742914D01*
X181148628Y-185885771D01*
X182505771Y-186242914D02*
X182577200Y-186314342D01*
X182505771Y-186385771D01*
X182434342Y-186314342D01*
X182505771Y-186242914D01*
X182505771Y-186385771D01*
X182505771Y-185457200D02*
X182577200Y-185528628D01*
X182505771Y-185600057D01*
X182434342Y-185528628D01*
X182505771Y-185457200D01*
X182505771Y-185600057D01*
X184220057Y-184885771D02*
X185220057Y-186385771D01*
X185220057Y-184885771D02*
X184220057Y-186385771D01*
X185791485Y-186385771D02*
X185791485Y-184885771D01*
X186291485Y-185957200D01*
X186791485Y-184885771D01*
X186791485Y-186385771D01*
X187791485Y-184885771D02*
X188077200Y-184885771D01*
X188220057Y-184957200D01*
X188362914Y-185100057D01*
X188434342Y-185385771D01*
X188434342Y-185885771D01*
X188362914Y-186171485D01*
X188220057Y-186314342D01*
X188077200Y-186385771D01*
X187791485Y-186385771D01*
X187648628Y-186314342D01*
X187505771Y-186171485D01*
X187434342Y-185885771D01*
X187434342Y-185385771D01*
X187505771Y-185100057D01*
X187648628Y-184957200D01*
X187791485Y-184885771D01*
X189005771Y-186314342D02*
X189220057Y-186385771D01*
X189577200Y-186385771D01*
X189720057Y-186314342D01*
X189791485Y-186242914D01*
X189862914Y-186100057D01*
X189862914Y-185957200D01*
X189791485Y-185814342D01*
X189720057Y-185742914D01*
X189577200Y-185671485D01*
X189291485Y-185600057D01*
X189148628Y-185528628D01*
X189077200Y-185457200D01*
X189005771Y-185314342D01*
X189005771Y-185171485D01*
X189077200Y-185028628D01*
X189148628Y-184957200D01*
X189291485Y-184885771D01*
X189648628Y-184885771D01*
X189862914Y-184957200D01*
X190148628Y-186528628D02*
X191291485Y-186528628D01*
X191505771Y-184885771D02*
X192505771Y-186385771D01*
X192505771Y-184885771D02*
X191505771Y-186385771D01*
X193077200Y-184885771D02*
X193077200Y-186100057D01*
X193148628Y-186242914D01*
X193220057Y-186314342D01*
X193362914Y-186385771D01*
X193648628Y-186385771D01*
X193791485Y-186314342D01*
X193862914Y-186242914D01*
X193934342Y-186100057D01*
X193934342Y-184885771D01*
X195148628Y-185600057D02*
X194648628Y-185600057D01*
X194648628Y-186385771D02*
X194648628Y-184885771D01*
X195362914Y-184885771D01*
X195862914Y-185028628D02*
X195934342Y-184957200D01*
X196077200Y-184885771D01*
X196434342Y-184885771D01*
X196577200Y-184957200D01*
X196648628Y-185028628D01*
X196720057Y-185171485D01*
X196720057Y-185314342D01*
X196648628Y-185528628D01*
X195791485Y-186385771D01*
X196720057Y-186385771D01*
X198148628Y-186385771D02*
X197291485Y-186385771D01*
X197720057Y-186385771D02*
X197720057Y-184885771D01*
X197577200Y-185100057D01*
X197434342Y-185242914D01*
X197291485Y-185314342D01*
X199434342Y-184885771D02*
X199148628Y-184885771D01*
X199005771Y-184957200D01*
X198934342Y-185028628D01*
X198791485Y-185242914D01*
X198720057Y-185528628D01*
X198720057Y-186100057D01*
X198791485Y-186242914D01*
X198862914Y-186314342D01*
X199005771Y-186385771D01*
X199291485Y-186385771D01*
X199434342Y-186314342D01*
X199505771Y-186242914D01*
X199577200Y-186100057D01*
X199577200Y-185742914D01*
X199505771Y-185600057D01*
X199434342Y-185528628D01*
X199291485Y-185457200D01*
X199005771Y-185457200D01*
X198862914Y-185528628D01*
X198791485Y-185600057D01*
X198720057Y-185742914D01*
X199862914Y-186528628D02*
X201005771Y-186528628D01*
X201862914Y-185600057D02*
X201362914Y-185600057D01*
X201362914Y-186385771D02*
X201362914Y-184885771D01*
X202077200Y-184885771D01*
X203148628Y-185600057D02*
X203362914Y-185671485D01*
X203434342Y-185742914D01*
X203505771Y-185885771D01*
X203505771Y-186100057D01*
X203434342Y-186242914D01*
X203362914Y-186314342D01*
X203220057Y-186385771D01*
X202648628Y-186385771D01*
X202648628Y-184885771D01*
X203148628Y-184885771D01*
X203291485Y-184957200D01*
X203362914Y-185028628D01*
X203434342Y-185171485D01*
X203434342Y-185314342D01*
X203362914Y-185457200D01*
X203291485Y-185528628D01*
X203148628Y-185600057D01*
X202648628Y-185600057D01*
X204077200Y-185028628D02*
X204148628Y-184957200D01*
X204291485Y-184885771D01*
X204648628Y-184885771D01*
X204791485Y-184957200D01*
X204862914Y-185028628D01*
X204934342Y-185171485D01*
X204934342Y-185314342D01*
X204862914Y-185528628D01*
X204005771Y-186385771D01*
X204934342Y-186385771D01*
X205434342Y-184885771D02*
X206362914Y-184885771D01*
X205862914Y-185457200D01*
X206077200Y-185457200D01*
X206220057Y-185528628D01*
X206291485Y-185600057D01*
X206362914Y-185742914D01*
X206362914Y-186100057D01*
X206291485Y-186242914D01*
X206220057Y-186314342D01*
X206077200Y-186385771D01*
X205648628Y-186385771D01*
X205505771Y-186314342D01*
X205434342Y-186242914D01*
X207648628Y-184885771D02*
X207362914Y-184885771D01*
X207220057Y-184957200D01*
X207148628Y-185028628D01*
X207005771Y-185242914D01*
X206934342Y-185528628D01*
X206934342Y-186100057D01*
X207005771Y-186242914D01*
X207077200Y-186314342D01*
X207220057Y-186385771D01*
X207505771Y-186385771D01*
X207648628Y-186314342D01*
X207720057Y-186242914D01*
X207791485Y-186100057D01*
X207791485Y-185742914D01*
X207720057Y-185600057D01*
X207648628Y-185528628D01*
X207505771Y-185457200D01*
X207220057Y-185457200D01*
X207077200Y-185528628D01*
X207005771Y-185600057D01*
X206934342Y-185742914D01*
X208434342Y-186242914D02*
X208505771Y-186314342D01*
X208434342Y-186385771D01*
X208362914Y-186314342D01*
X208434342Y-186242914D01*
X208434342Y-186385771D01*
X209148628Y-186385771D02*
X209148628Y-184885771D01*
X209291485Y-185814342D02*
X209720057Y-186385771D01*
X209720057Y-185385771D02*
X209148628Y-185957200D01*
X210362914Y-186385771D02*
X210362914Y-185385771D01*
X210362914Y-184885771D02*
X210291485Y-184957200D01*
X210362914Y-185028628D01*
X210434342Y-184957200D01*
X210362914Y-184885771D01*
X210362914Y-185028628D01*
X211720057Y-186314342D02*
X211577200Y-186385771D01*
X211291485Y-186385771D01*
X211148628Y-186314342D01*
X211077200Y-186242914D01*
X211005771Y-186100057D01*
X211005771Y-185671485D01*
X211077200Y-185528628D01*
X211148628Y-185457200D01*
X211291485Y-185385771D01*
X211577200Y-185385771D01*
X211720057Y-185457200D01*
X213005771Y-186385771D02*
X213005771Y-185600057D01*
X212934342Y-185457200D01*
X212791485Y-185385771D01*
X212505771Y-185385771D01*
X212362914Y-185457200D01*
X213005771Y-186314342D02*
X212862914Y-186385771D01*
X212505771Y-186385771D01*
X212362914Y-186314342D01*
X212291485Y-186171485D01*
X212291485Y-186028628D01*
X212362914Y-185885771D01*
X212505771Y-185814342D01*
X212862914Y-185814342D01*
X213005771Y-185742914D01*
X214362914Y-186385771D02*
X214362914Y-184885771D01*
X214362914Y-186314342D02*
X214220057Y-186385771D01*
X213934342Y-186385771D01*
X213791485Y-186314342D01*
X213720057Y-186242914D01*
X213648628Y-186100057D01*
X213648628Y-185671485D01*
X213720057Y-185528628D01*
X213791485Y-185457200D01*
X213934342Y-185385771D01*
X214220057Y-185385771D01*
X214362914Y-185457200D01*
X214720057Y-186528628D02*
X215862914Y-186528628D01*
X216220057Y-185385771D02*
X216220057Y-186885771D01*
X216220057Y-185457200D02*
X216362914Y-185385771D01*
X216648628Y-185385771D01*
X216791485Y-185457200D01*
X216862914Y-185528628D01*
X216934342Y-185671485D01*
X216934342Y-186100057D01*
X216862914Y-186242914D01*
X216791485Y-186314342D01*
X216648628Y-186385771D01*
X216362914Y-186385771D01*
X216220057Y-186314342D01*
X218220057Y-186314342D02*
X218077200Y-186385771D01*
X217791485Y-186385771D01*
X217648628Y-186314342D01*
X217577200Y-186242914D01*
X217505771Y-186100057D01*
X217505771Y-185671485D01*
X217577200Y-185528628D01*
X217648628Y-185457200D01*
X217791485Y-185385771D01*
X218077200Y-185385771D01*
X218220057Y-185457200D01*
X218862914Y-186385771D02*
X218862914Y-184885771D01*
X218862914Y-185457200D02*
X219005771Y-185385771D01*
X219291485Y-185385771D01*
X219434342Y-185457200D01*
X219505771Y-185528628D01*
X219577200Y-185671485D01*
X219577200Y-186100057D01*
X219505771Y-186242914D01*
X219434342Y-186314342D01*
X219291485Y-186385771D01*
X219005771Y-186385771D01*
X218862914Y-186314342D01*
D10*
D11*
X177002200Y-181507200D02*
X285002200Y-181507200D01*
D10*
D11*
X178362914Y-183614342D02*
X178577200Y-183685771D01*
X178934342Y-183685771D01*
X179077200Y-183614342D01*
X179148628Y-183542914D01*
X179220057Y-183400057D01*
X179220057Y-183257200D01*
X179148628Y-183114342D01*
X179077200Y-183042914D01*
X178934342Y-182971485D01*
X178648628Y-182900057D01*
X178505771Y-182828628D01*
X178434342Y-182757200D01*
X178362914Y-182614342D01*
X178362914Y-182471485D01*
X178434342Y-182328628D01*
X178505771Y-182257200D01*
X178648628Y-182185771D01*
X179005771Y-182185771D01*
X179220057Y-182257200D01*
X179862914Y-183685771D02*
X179862914Y-182185771D01*
X180505771Y-183685771D02*
X180505771Y-182900057D01*
X180434342Y-182757200D01*
X180291485Y-182685771D01*
X180077200Y-182685771D01*
X179934342Y-182757200D01*
X179862914Y-182828628D01*
X181791485Y-183614342D02*
X181648628Y-183685771D01*
X181362914Y-183685771D01*
X181220057Y-183614342D01*
X181148628Y-183471485D01*
X181148628Y-182900057D01*
X181220057Y-182757200D01*
X181362914Y-182685771D01*
X181648628Y-182685771D01*
X181791485Y-182757200D01*
X181862914Y-182900057D01*
X181862914Y-183042914D01*
X181148628Y-183185771D01*
X183077200Y-183614342D02*
X182934342Y-183685771D01*
X182648628Y-183685771D01*
X182505771Y-183614342D01*
X182434342Y-183471485D01*
X182434342Y-182900057D01*
X182505771Y-182757200D01*
X182648628Y-182685771D01*
X182934342Y-182685771D01*
X183077200Y-182757200D01*
X183148628Y-182900057D01*
X183148628Y-183042914D01*
X182434342Y-183185771D01*
X183577200Y-182685771D02*
X184148628Y-182685771D01*
X183791485Y-182185771D02*
X183791485Y-183471485D01*
X183862914Y-183614342D01*
X184005771Y-183685771D01*
X184148628Y-183685771D01*
X184648628Y-183542914D02*
X184720057Y-183614342D01*
X184648628Y-183685771D01*
X184577200Y-183614342D01*
X184648628Y-183542914D01*
X184648628Y-183685771D01*
X184648628Y-182757200D02*
X184720057Y-182828628D01*
X184648628Y-182900057D01*
X184577200Y-182828628D01*
X184648628Y-182757200D01*
X184648628Y-182900057D01*
D10*
D12*
X178768628Y-180685771D02*
X178625771Y-180614342D01*
X178554342Y-180542914D01*
X178482914Y-180400057D01*
X178482914Y-179971485D01*
X178554342Y-179828628D01*
X178625771Y-179757200D01*
X178768628Y-179685771D01*
X178982914Y-179685771D01*
X179125771Y-179757200D01*
X179197200Y-179828628D01*
X179268628Y-179971485D01*
X179268628Y-180400057D01*
X179197200Y-180542914D01*
X179125771Y-180614342D01*
X178982914Y-180685771D01*
X178768628Y-180685771D01*
X179911485Y-179685771D02*
X179911485Y-181185771D01*
X179911485Y-179757200D02*
X180054342Y-179685771D01*
X180340057Y-179685771D01*
X180482914Y-179757200D01*
X180554342Y-179828628D01*
X180625771Y-179971485D01*
X180625771Y-180400057D01*
X180554342Y-180542914D01*
X180482914Y-180614342D01*
X180340057Y-180685771D01*
X180054342Y-180685771D01*
X179911485Y-180614342D01*
X181840057Y-180614342D02*
X181697200Y-180685771D01*
X181411485Y-180685771D01*
X181268628Y-180614342D01*
X181197200Y-180471485D01*
X181197200Y-179900057D01*
X181268628Y-179757200D01*
X181411485Y-179685771D01*
X181697200Y-179685771D01*
X181840057Y-179757200D01*
X181911485Y-179900057D01*
X181911485Y-180042914D01*
X181197200Y-180185771D01*
X182554342Y-179685771D02*
X182554342Y-180685771D01*
X182554342Y-179828628D02*
X182625771Y-179757200D01*
X182768628Y-179685771D01*
X182982914Y-179685771D01*
X183125771Y-179757200D01*
X183197200Y-179900057D01*
X183197200Y-180685771D01*
X183911485Y-180685771D02*
X183911485Y-179185771D01*
X184482914Y-179185771D01*
X184625771Y-179257200D01*
X184697200Y-179328628D01*
X184768628Y-179471485D01*
X184768628Y-179685771D01*
X184697200Y-179828628D01*
X184625771Y-179900057D01*
X184482914Y-179971485D01*
X183911485Y-179971485D01*
X185411485Y-179685771D02*
X185411485Y-180685771D01*
X185411485Y-179828628D02*
X185482914Y-179757200D01*
X185625771Y-179685771D01*
X185840057Y-179685771D01*
X185982914Y-179757200D01*
X186054342Y-179900057D01*
X186054342Y-180685771D01*
X186768628Y-180685771D02*
X186768628Y-179185771D01*
X187340057Y-179185771D01*
X187482914Y-179257200D01*
X187554342Y-179328628D01*
X187625771Y-179471485D01*
X187625771Y-179685771D01*
X187554342Y-179828628D01*
X187482914Y-179900057D01*
X187340057Y-179971485D01*
X186768628Y-179971485D01*
D10*
D11*
X197002200Y-191507200D02*
X197002200Y-194507200D01*
D10*
D11*
X261002200Y-191507200D02*
X261002200Y-198007200D01*
D14*
G04 #@! TO.C,C9*
X154571267Y-98830000D02*
X154228733Y-98830000D01*
X154571267Y-97810000D02*
X154228733Y-97810000D01*
G04 #@! TO.C,C2*
X147728733Y-93110000D02*
X148071267Y-93110000D01*
X147728733Y-94130000D02*
X148071267Y-94130000D01*
G04 #@! TO.C,JP9*
X114300000Y-143160000D02*
G75*
G03X115000000Y-143860000I700000J0D01*
G01*
X115600000Y-143860000D02*
G75*
G03X116300000Y-143160000I0J700000D01*
G01*
X116300000Y-141760000D02*
G75*
G03X115600000Y-141060000I-700000J0D01*
G01*
X115000000Y-141060000D02*
G75*
G03X114300000Y-141760000I0J-700000D01*
G01*
X115600000Y-141060000D02*
X115000000Y-141060000D01*
X116300000Y-143160000D02*
X116300000Y-141760000D01*
X115000000Y-143860000D02*
X115600000Y-143860000D01*
X114300000Y-141760000D02*
X114300000Y-143160000D01*
G04 #@! TO.C,JP10*
X121900000Y-141760000D02*
X121900000Y-143160000D01*
X122600000Y-143860000D02*
X123200000Y-143860000D01*
X123900000Y-143160000D02*
X123900000Y-141760000D01*
X123200000Y-141060000D02*
X122600000Y-141060000D01*
X122600000Y-141060000D02*
G75*
G03X121900000Y-141760000I0J-700000D01*
G01*
X123900000Y-141760000D02*
G75*
G03X123200000Y-141060000I-700000J0D01*
G01*
X123200000Y-143860000D02*
G75*
G03X123900000Y-143160000I0J700000D01*
G01*
X121900000Y-143160000D02*
G75*
G03X122600000Y-143860000I700000J0D01*
G01*
G04 #@! TO.C,JP17*
X111220000Y-59510000D02*
X111220000Y-58110000D01*
X110520000Y-57410000D02*
X109920000Y-57410000D01*
X109220000Y-58110000D02*
X109220000Y-59510000D01*
X109920000Y-60210000D02*
X110520000Y-60210000D01*
X110520000Y-60210000D02*
G75*
G03X111220000Y-59510000I0J700000D01*
G01*
X109220000Y-59510000D02*
G75*
G03X109920000Y-60210000I700000J0D01*
G01*
X109920000Y-57410000D02*
G75*
G03X109220000Y-58110000I0J-700000D01*
G01*
X111220000Y-58110000D02*
G75*
G03X110520000Y-57410000I-700000J0D01*
G01*
G04 #@! TO.C,JP13*
X121380000Y-58110000D02*
G75*
G03X120680000Y-57410000I-700000J0D01*
G01*
X120080000Y-57410000D02*
G75*
G03X119380000Y-58110000I0J-700000D01*
G01*
X119380000Y-59510000D02*
G75*
G03X120080000Y-60210000I700000J0D01*
G01*
X120680000Y-60210000D02*
G75*
G03X121380000Y-59510000I0J700000D01*
G01*
X120080000Y-60210000D02*
X120680000Y-60210000D01*
X119380000Y-58110000D02*
X119380000Y-59510000D01*
X120680000Y-57410000D02*
X120080000Y-57410000D01*
X121380000Y-59510000D02*
X121380000Y-58110000D01*
G04 #@! TO.C,JP16*
X113760000Y-58110000D02*
G75*
G03X113060000Y-57410000I-700000J0D01*
G01*
X112460000Y-57410000D02*
G75*
G03X111760000Y-58110000I0J-700000D01*
G01*
X111760000Y-59510000D02*
G75*
G03X112460000Y-60210000I700000J0D01*
G01*
X113060000Y-60210000D02*
G75*
G03X113760000Y-59510000I0J700000D01*
G01*
X112460000Y-60210000D02*
X113060000Y-60210000D01*
X111760000Y-58110000D02*
X111760000Y-59510000D01*
X113060000Y-57410000D02*
X112460000Y-57410000D01*
X113760000Y-59510000D02*
X113760000Y-58110000D01*
G04 #@! TO.C,JP15*
X116300000Y-59510000D02*
X116300000Y-58110000D01*
X115600000Y-57410000D02*
X115000000Y-57410000D01*
X114300000Y-58110000D02*
X114300000Y-59510000D01*
X115000000Y-60210000D02*
X115600000Y-60210000D01*
X115600000Y-60210000D02*
G75*
G03X116300000Y-59510000I0J700000D01*
G01*
X114300000Y-59510000D02*
G75*
G03X115000000Y-60210000I700000J0D01*
G01*
X115000000Y-57410000D02*
G75*
G03X114300000Y-58110000I0J-700000D01*
G01*
X116300000Y-58110000D02*
G75*
G03X115600000Y-57410000I-700000J0D01*
G01*
G04 #@! TO.C,JP12*
X123900000Y-58110000D02*
G75*
G03X123200000Y-57410000I-700000J0D01*
G01*
X122600000Y-57410000D02*
G75*
G03X121900000Y-58110000I0J-700000D01*
G01*
X121900000Y-59510000D02*
G75*
G03X122600000Y-60210000I700000J0D01*
G01*
X123200000Y-60210000D02*
G75*
G03X123900000Y-59510000I0J700000D01*
G01*
X122600000Y-60210000D02*
X123200000Y-60210000D01*
X121900000Y-58110000D02*
X121900000Y-59510000D01*
X123200000Y-57410000D02*
X122600000Y-57410000D01*
X123900000Y-59510000D02*
X123900000Y-58110000D01*
G04 #@! TO.C,JP14*
X118840000Y-59510000D02*
X118840000Y-58110000D01*
X118140000Y-57410000D02*
X117540000Y-57410000D01*
X116840000Y-58110000D02*
X116840000Y-59510000D01*
X117540000Y-60210000D02*
X118140000Y-60210000D01*
X118140000Y-60210000D02*
G75*
G03X118840000Y-59510000I0J700000D01*
G01*
X116840000Y-59510000D02*
G75*
G03X117540000Y-60210000I700000J0D01*
G01*
X117540000Y-57410000D02*
G75*
G03X116840000Y-58110000I0J-700000D01*
G01*
X118840000Y-58110000D02*
G75*
G03X118140000Y-57410000I-700000J0D01*
G01*
G04 #@! TO.C,JP11*
X126474500Y-59523500D02*
X126474500Y-58123500D01*
X125774500Y-57423500D02*
X125174500Y-57423500D01*
X124474500Y-58123500D02*
X124474500Y-59523500D01*
X125174500Y-60223500D02*
X125774500Y-60223500D01*
X125774500Y-60223500D02*
G75*
G03X126474500Y-59523500I0J700000D01*
G01*
X124474500Y-59523500D02*
G75*
G03X125174500Y-60223500I700000J0D01*
G01*
X125174500Y-57423500D02*
G75*
G03X124474500Y-58123500I0J-700000D01*
G01*
X126474500Y-58123500D02*
G75*
G03X125774500Y-57423500I-700000J0D01*
G01*
G04 #@! TO.C,JP19*
X118500000Y-108950000D02*
G75*
G03X117800000Y-109650000I0J-700000D01*
G01*
X119800000Y-109650000D02*
G75*
G03X119100000Y-108950000I-700000J0D01*
G01*
X119100000Y-113050000D02*
G75*
G03X119800000Y-112350000I0J700000D01*
G01*
X117800000Y-112350000D02*
G75*
G03X118500000Y-113050000I700000J0D01*
G01*
X117800000Y-109600000D02*
X117800000Y-112400000D01*
X118500000Y-113050000D02*
X119100000Y-113050000D01*
X119800000Y-112400000D02*
X119800000Y-109600000D01*
X119100000Y-108950000D02*
X118500000Y-108950000D01*
G04 #@! TO.C,JP18*
X120440000Y-107600000D02*
G75*
G03X121140000Y-108300000I700000J0D01*
G01*
X121140000Y-106300000D02*
G75*
G03X120440000Y-107000000I0J-700000D01*
G01*
X124540000Y-107000000D02*
G75*
G03X123840000Y-106300000I-700000J0D01*
G01*
X123840000Y-108300000D02*
G75*
G03X124540000Y-107600000I0J700000D01*
G01*
X121090000Y-108300000D02*
X123890000Y-108300000D01*
X124540000Y-107600000D02*
X124540000Y-107000000D01*
X123890000Y-106300000D02*
X121090000Y-106300000D01*
X120440000Y-107000000D02*
X120440000Y-107600000D01*
G04 #@! TO.C,C19*
X134228733Y-85590000D02*
X134571267Y-85590000D01*
X134228733Y-86610000D02*
X134571267Y-86610000D01*
G04 #@! TO.C,C22*
X132521000Y-98056733D02*
X132521000Y-98399267D01*
X133541000Y-98056733D02*
X133541000Y-98399267D01*
G04 #@! TO.C,C24*
X124968500Y-99118733D02*
X124968500Y-99461267D01*
X123948500Y-99118733D02*
X123948500Y-99461267D01*
G04 #@! TO.C,C42*
X116760000Y-64211267D02*
X116760000Y-63868733D01*
X115740000Y-64211267D02*
X115740000Y-63868733D01*
G04 #@! TO.C,C43*
X119610000Y-139328733D02*
X119610000Y-139671267D01*
X118590000Y-139328733D02*
X118590000Y-139671267D01*
G04 #@! TO.C,C45*
X104010000Y-87411267D02*
X104010000Y-87068733D01*
X102990000Y-87411267D02*
X102990000Y-87068733D01*
G04 #@! TO.C,C17*
X123296267Y-87510000D02*
X122953733Y-87510000D01*
X123296267Y-86490000D02*
X122953733Y-86490000D01*
G04 #@! TO.C,C8*
X106528733Y-74650000D02*
X106871267Y-74650000D01*
X106528733Y-73630000D02*
X106871267Y-73630000D01*
G04 #@! TO.C,C15*
X98510000Y-105743733D02*
X98510000Y-106086267D01*
X97490000Y-105743733D02*
X97490000Y-106086267D01*
G04 #@! TO.C,C1*
X155471267Y-73550000D02*
X155128733Y-73550000D01*
X155471267Y-74570000D02*
X155128733Y-74570000D01*
G04 #@! TO.C,C46*
X96890000Y-84843733D02*
X96890000Y-85186267D01*
X97910000Y-84843733D02*
X97910000Y-85186267D01*
G04 #@! TO.C,C48*
X151790000Y-86266267D02*
X151790000Y-85923733D01*
X152810000Y-86266267D02*
X152810000Y-85923733D01*
G04 #@! TO.C,C49*
X152910000Y-105291267D02*
X152910000Y-104948733D01*
X151890000Y-105291267D02*
X151890000Y-104948733D01*
G04 #@! TO.C,C50*
X97910000Y-65843733D02*
X97910000Y-66186267D01*
X96890000Y-65843733D02*
X96890000Y-66186267D01*
G04 #@! TO.C,C44*
X111210000Y-87171267D02*
X111210000Y-86828733D01*
X110190000Y-87171267D02*
X110190000Y-86828733D01*
G04 #@! TO.C,C51*
X108690000Y-68736267D02*
X108690000Y-68393733D01*
X109710000Y-68736267D02*
X109710000Y-68393733D01*
G04 #@! TO.C,C52*
X103910000Y-68486267D02*
X103910000Y-68143733D01*
X102890000Y-68486267D02*
X102890000Y-68143733D01*
G04 #@! TO.C,C53*
X94528733Y-117430000D02*
X94871267Y-117430000D01*
X94528733Y-118450000D02*
X94871267Y-118450000D01*
G04 #@! TO.C,C47*
X155528733Y-117810000D02*
X155871267Y-117810000D01*
X155528733Y-118830000D02*
X155871267Y-118830000D01*
G04 #@! TO.C,J11*
X142810000Y-75830000D02*
X142810000Y-78490000D01*
X142810000Y-75830000D02*
X150490000Y-75830000D01*
X150490000Y-75830000D02*
X150490000Y-78490000D01*
X142810000Y-78490000D02*
X150490000Y-78490000D01*
X140210000Y-78490000D02*
X141540000Y-78490000D01*
X140210000Y-77160000D02*
X140210000Y-78490000D01*
G04 #@! TO.C,J3*
X149160000Y-121670000D02*
X150490000Y-121670000D01*
X150490000Y-121670000D02*
X150490000Y-120340000D01*
X150490000Y-119070000D02*
X150490000Y-111390000D01*
X147830000Y-111390000D02*
X150490000Y-111390000D01*
X147830000Y-119070000D02*
X147830000Y-111390000D01*
X147830000Y-119070000D02*
X150490000Y-119070000D01*
G04 #@! TO.C,J12*
X140330000Y-77160000D02*
X140330000Y-75830000D01*
X140330000Y-75830000D02*
X139000000Y-75830000D01*
X137730000Y-75830000D02*
X119890000Y-75830000D01*
X119890000Y-78490000D02*
X119890000Y-75830000D01*
X137730000Y-78490000D02*
X119890000Y-78490000D01*
X137730000Y-78490000D02*
X137730000Y-75830000D01*
G04 #@! TO.C,J15*
X119890000Y-108850000D02*
X119890000Y-111450000D01*
X119890000Y-108850000D02*
X140330000Y-108850000D01*
X140330000Y-108850000D02*
X140330000Y-114050000D01*
X122490000Y-114050000D02*
X140330000Y-114050000D01*
X122490000Y-111450000D02*
X122490000Y-114050000D01*
X119890000Y-111450000D02*
X122490000Y-111450000D01*
X119890000Y-114050000D02*
X121220000Y-114050000D01*
X119890000Y-112720000D02*
X119890000Y-114050000D01*
G04 #@! TO.C,J6*
X140330000Y-67000000D02*
X140330000Y-65670000D01*
X140330000Y-65670000D02*
X139000000Y-65670000D01*
X140330000Y-68270000D02*
X137730000Y-68270000D01*
X137730000Y-68270000D02*
X137730000Y-65670000D01*
X137730000Y-65670000D02*
X119890000Y-65670000D01*
X119890000Y-70870000D02*
X119890000Y-65670000D01*
X140330000Y-70870000D02*
X119890000Y-70870000D01*
X140330000Y-70870000D02*
X140330000Y-68270000D01*
G04 #@! TO.C,R40*
X119740000Y-97461267D02*
X119740000Y-97118733D01*
X120760000Y-97461267D02*
X120760000Y-97118733D01*
G04 #@! TO.C,R22*
X113740000Y-138711267D02*
X113740000Y-138368733D01*
X114760000Y-138711267D02*
X114760000Y-138368733D01*
G04 #@! TO.C,R10*
X113510000Y-132203733D02*
X113510000Y-132546267D01*
X112490000Y-132203733D02*
X112490000Y-132546267D01*
G04 #@! TO.C,R11*
X113510000Y-135828733D02*
X113510000Y-136171267D01*
X112490000Y-135828733D02*
X112490000Y-136171267D01*
G04 #@! TO.C,R9*
X104671267Y-131990000D02*
X104328733Y-131990000D01*
X104671267Y-133010000D02*
X104328733Y-133010000D01*
G04 #@! TO.C,R8*
X104328733Y-130490000D02*
X104671267Y-130490000D01*
X104328733Y-131510000D02*
X104671267Y-131510000D01*
G04 #@! TO.C,R21*
X131421267Y-86610000D02*
X131078733Y-86610000D01*
X131421267Y-85590000D02*
X131078733Y-85590000D01*
G04 #@! TO.C,R41*
X126260000Y-99461267D02*
X126260000Y-99118733D01*
X125240000Y-99461267D02*
X125240000Y-99118733D01*
G04 #@! TO.C,C9*
D11*
X154566666Y-97247142D02*
X154614285Y-97294761D01*
X154757142Y-97342380D01*
X154852380Y-97342380D01*
X154995238Y-97294761D01*
X155090476Y-97199523D01*
X155138095Y-97104285D01*
X155185714Y-96913809D01*
X155185714Y-96770952D01*
X155138095Y-96580476D01*
X155090476Y-96485238D01*
X154995238Y-96390000D01*
X154852380Y-96342380D01*
X154757142Y-96342380D01*
X154614285Y-96390000D01*
X154566666Y-96437619D01*
X154090476Y-97342380D02*
X153900000Y-97342380D01*
X153804761Y-97294761D01*
X153757142Y-97247142D01*
X153661904Y-97104285D01*
X153614285Y-96913809D01*
X153614285Y-96532857D01*
X153661904Y-96437619D01*
X153709523Y-96390000D01*
X153804761Y-96342380D01*
X153995238Y-96342380D01*
X154090476Y-96390000D01*
X154138095Y-96437619D01*
X154185714Y-96532857D01*
X154185714Y-96770952D01*
X154138095Y-96866190D01*
X154090476Y-96913809D01*
X153995238Y-96961428D01*
X153804761Y-96961428D01*
X153709523Y-96913809D01*
X153661904Y-96866190D01*
X153614285Y-96770952D01*
G04 #@! TO.C,C2*
X148066666Y-95407142D02*
X148114285Y-95454761D01*
X148257142Y-95502380D01*
X148352380Y-95502380D01*
X148495238Y-95454761D01*
X148590476Y-95359523D01*
X148638095Y-95264285D01*
X148685714Y-95073809D01*
X148685714Y-94930952D01*
X148638095Y-94740476D01*
X148590476Y-94645238D01*
X148495238Y-94550000D01*
X148352380Y-94502380D01*
X148257142Y-94502380D01*
X148114285Y-94550000D01*
X148066666Y-94597619D01*
X147685714Y-94597619D02*
X147638095Y-94550000D01*
X147542857Y-94502380D01*
X147304761Y-94502380D01*
X147209523Y-94550000D01*
X147161904Y-94597619D01*
X147114285Y-94692857D01*
X147114285Y-94788095D01*
X147161904Y-94930952D01*
X147733333Y-95502380D01*
X147114285Y-95502380D01*
G04 #@! TO.C,JP9*
X113976190Y-141545000D02*
X112976190Y-141545000D01*
X113738095Y-142912380D02*
X113738095Y-141912380D01*
X113500000Y-141912380D01*
X113357142Y-141960000D01*
X113261904Y-142055238D01*
X113214285Y-142150476D01*
X113166666Y-142340952D01*
X113166666Y-142483809D01*
X113214285Y-142674285D01*
X113261904Y-142769523D01*
X113357142Y-142864761D01*
X113500000Y-142912380D01*
X113738095Y-142912380D01*
X112976190Y-141545000D02*
X112071428Y-141545000D01*
X112738095Y-142388571D02*
X112404761Y-142388571D01*
X112261904Y-142912380D02*
X112738095Y-142912380D01*
X112738095Y-141912380D01*
X112261904Y-141912380D01*
X112071428Y-141545000D02*
X111071428Y-141545000D01*
X111500000Y-142388571D02*
X111357142Y-142436190D01*
X111309523Y-142483809D01*
X111261904Y-142579047D01*
X111261904Y-142721904D01*
X111309523Y-142817142D01*
X111357142Y-142864761D01*
X111452380Y-142912380D01*
X111833333Y-142912380D01*
X111833333Y-141912380D01*
X111500000Y-141912380D01*
X111404761Y-141960000D01*
X111357142Y-142007619D01*
X111309523Y-142102857D01*
X111309523Y-142198095D01*
X111357142Y-142293333D01*
X111404761Y-142340952D01*
X111500000Y-142388571D01*
X111833333Y-142388571D01*
X111071428Y-141545000D02*
X110023809Y-141545000D01*
X110833333Y-141912380D02*
X110833333Y-142721904D01*
X110785714Y-142817142D01*
X110738095Y-142864761D01*
X110642857Y-142912380D01*
X110452380Y-142912380D01*
X110357142Y-142864761D01*
X110309523Y-142817142D01*
X110261904Y-142721904D01*
X110261904Y-141912380D01*
X110023809Y-141545000D02*
X109023809Y-141545000D01*
X109261904Y-141960000D02*
X109357142Y-141912380D01*
X109500000Y-141912380D01*
X109642857Y-141960000D01*
X109738095Y-142055238D01*
X109785714Y-142150476D01*
X109833333Y-142340952D01*
X109833333Y-142483809D01*
X109785714Y-142674285D01*
X109738095Y-142769523D01*
X109642857Y-142864761D01*
X109500000Y-142912380D01*
X109404761Y-142912380D01*
X109261904Y-142864761D01*
X109214285Y-142817142D01*
X109214285Y-142483809D01*
X109404761Y-142483809D01*
G04 #@! TO.C,JP10*
X124252380Y-141150476D02*
X124252380Y-141721904D01*
X125252380Y-141436190D02*
X124252380Y-141436190D01*
X125252380Y-142055238D02*
X124252380Y-142055238D01*
X124252380Y-142293333D01*
X124300000Y-142436190D01*
X124395238Y-142531428D01*
X124490476Y-142579047D01*
X124680952Y-142626666D01*
X124823809Y-142626666D01*
X125014285Y-142579047D01*
X125109523Y-142531428D01*
X125204761Y-142436190D01*
X125252380Y-142293333D01*
X125252380Y-142055238D01*
X124252380Y-143245714D02*
X124252380Y-143436190D01*
X124300000Y-143531428D01*
X124395238Y-143626666D01*
X124585714Y-143674285D01*
X124919047Y-143674285D01*
X125109523Y-143626666D01*
X125204761Y-143531428D01*
X125252380Y-143436190D01*
X125252380Y-143245714D01*
X125204761Y-143150476D01*
X125109523Y-143055238D01*
X124919047Y-143007619D01*
X124585714Y-143007619D01*
X124395238Y-143055238D01*
X124300000Y-143150476D01*
X124252380Y-143245714D01*
G04 #@! TO.C,JP17*
X107405000Y-57452857D02*
X107405000Y-58452857D01*
X108772380Y-58262380D02*
X108296190Y-57929047D01*
X108772380Y-57690952D02*
X107772380Y-57690952D01*
X107772380Y-58071904D01*
X107820000Y-58167142D01*
X107867619Y-58214761D01*
X107962857Y-58262380D01*
X108105714Y-58262380D01*
X108200952Y-58214761D01*
X108248571Y-58167142D01*
X108296190Y-58071904D01*
X108296190Y-57690952D01*
X107405000Y-58452857D02*
X107405000Y-59405238D01*
X108724761Y-58643333D02*
X108772380Y-58786190D01*
X108772380Y-59024285D01*
X108724761Y-59119523D01*
X108677142Y-59167142D01*
X108581904Y-59214761D01*
X108486666Y-59214761D01*
X108391428Y-59167142D01*
X108343809Y-59119523D01*
X108296190Y-59024285D01*
X108248571Y-58833809D01*
X108200952Y-58738571D01*
X108153333Y-58690952D01*
X108058095Y-58643333D01*
X107962857Y-58643333D01*
X107867619Y-58690952D01*
X107820000Y-58738571D01*
X107772380Y-58833809D01*
X107772380Y-59071904D01*
X107820000Y-59214761D01*
X107405000Y-59405238D02*
X107405000Y-60167142D01*
X107772380Y-59500476D02*
X107772380Y-60071904D01*
X108772380Y-59786190D02*
X107772380Y-59786190D01*
G04 #@! TO.C,JP13*
X119702380Y-60636666D02*
X119702380Y-61208095D01*
X120702380Y-60922380D02*
X119702380Y-60922380D01*
X120702380Y-61541428D02*
X119702380Y-61541428D01*
X120416666Y-61874761D01*
X119702380Y-62208095D01*
X120702380Y-62208095D01*
X120654761Y-62636666D02*
X120702380Y-62779523D01*
X120702380Y-63017619D01*
X120654761Y-63112857D01*
X120607142Y-63160476D01*
X120511904Y-63208095D01*
X120416666Y-63208095D01*
X120321428Y-63160476D01*
X120273809Y-63112857D01*
X120226190Y-63017619D01*
X120178571Y-62827142D01*
X120130952Y-62731904D01*
X120083333Y-62684285D01*
X119988095Y-62636666D01*
X119892857Y-62636666D01*
X119797619Y-62684285D01*
X119750000Y-62731904D01*
X119702380Y-62827142D01*
X119702380Y-63065238D01*
X119750000Y-63208095D01*
G04 #@! TO.C,JP16*
X110952380Y-60446190D02*
X110952380Y-61017619D01*
X111952380Y-60731904D02*
X110952380Y-60731904D01*
X111952380Y-61350952D02*
X110952380Y-61350952D01*
X110952380Y-61589047D01*
X111000000Y-61731904D01*
X111095238Y-61827142D01*
X111190476Y-61874761D01*
X111380952Y-61922380D01*
X111523809Y-61922380D01*
X111714285Y-61874761D01*
X111809523Y-61827142D01*
X111904761Y-61731904D01*
X111952380Y-61589047D01*
X111952380Y-61350952D01*
X111952380Y-62350952D02*
X110952380Y-62350952D01*
G04 #@! TO.C,JP15*
X114335000Y-60493809D02*
X114335000Y-61493809D01*
X115702380Y-60731904D02*
X114702380Y-60731904D01*
X114702380Y-60970000D01*
X114750000Y-61112857D01*
X114845238Y-61208095D01*
X114940476Y-61255714D01*
X115130952Y-61303333D01*
X115273809Y-61303333D01*
X115464285Y-61255714D01*
X115559523Y-61208095D01*
X115654761Y-61112857D01*
X115702380Y-60970000D01*
X115702380Y-60731904D01*
X114335000Y-61493809D02*
X114335000Y-62398571D01*
X115178571Y-61731904D02*
X115178571Y-62065238D01*
X115702380Y-62208095D02*
X115702380Y-61731904D01*
X114702380Y-61731904D01*
X114702380Y-62208095D01*
X114335000Y-62398571D02*
X114335000Y-63398571D01*
X115178571Y-62970000D02*
X115226190Y-63112857D01*
X115273809Y-63160476D01*
X115369047Y-63208095D01*
X115511904Y-63208095D01*
X115607142Y-63160476D01*
X115654761Y-63112857D01*
X115702380Y-63017619D01*
X115702380Y-62636666D01*
X114702380Y-62636666D01*
X114702380Y-62970000D01*
X114750000Y-63065238D01*
X114797619Y-63112857D01*
X114892857Y-63160476D01*
X114988095Y-63160476D01*
X115083333Y-63112857D01*
X115130952Y-63065238D01*
X115178571Y-62970000D01*
X115178571Y-62636666D01*
X114335000Y-63398571D02*
X114335000Y-64446190D01*
X114702380Y-63636666D02*
X115511904Y-63636666D01*
X115607142Y-63684285D01*
X115654761Y-63731904D01*
X115702380Y-63827142D01*
X115702380Y-64017619D01*
X115654761Y-64112857D01*
X115607142Y-64160476D01*
X115511904Y-64208095D01*
X114702380Y-64208095D01*
X114335000Y-64446190D02*
X114335000Y-65446190D01*
X114750000Y-65208095D02*
X114702380Y-65112857D01*
X114702380Y-64970000D01*
X114750000Y-64827142D01*
X114845238Y-64731904D01*
X114940476Y-64684285D01*
X115130952Y-64636666D01*
X115273809Y-64636666D01*
X115464285Y-64684285D01*
X115559523Y-64731904D01*
X115654761Y-64827142D01*
X115702380Y-64970000D01*
X115702380Y-65065238D01*
X115654761Y-65208095D01*
X115607142Y-65255714D01*
X115273809Y-65255714D01*
X115273809Y-65065238D01*
G04 #@! TO.C,JP12*
X124452380Y-61440476D02*
X124452380Y-62011904D01*
X125452380Y-61726190D02*
X124452380Y-61726190D01*
X125452380Y-62345238D02*
X124452380Y-62345238D01*
X124452380Y-62583333D01*
X124500000Y-62726190D01*
X124595238Y-62821428D01*
X124690476Y-62869047D01*
X124880952Y-62916666D01*
X125023809Y-62916666D01*
X125214285Y-62869047D01*
X125309523Y-62821428D01*
X125404761Y-62726190D01*
X125452380Y-62583333D01*
X125452380Y-62345238D01*
X124452380Y-63535714D02*
X124452380Y-63726190D01*
X124500000Y-63821428D01*
X124595238Y-63916666D01*
X124785714Y-63964285D01*
X125119047Y-63964285D01*
X125309523Y-63916666D01*
X125404761Y-63821428D01*
X125452380Y-63726190D01*
X125452380Y-63535714D01*
X125404761Y-63440476D01*
X125309523Y-63345238D01*
X125119047Y-63297619D01*
X124785714Y-63297619D01*
X124595238Y-63345238D01*
X124500000Y-63440476D01*
X124452380Y-63535714D01*
G04 #@! TO.C,JP14*
X117202380Y-60434285D02*
X117202380Y-61005714D01*
X118202380Y-60720000D02*
X117202380Y-60720000D01*
X118107142Y-61910476D02*
X118154761Y-61862857D01*
X118202380Y-61720000D01*
X118202380Y-61624761D01*
X118154761Y-61481904D01*
X118059523Y-61386666D01*
X117964285Y-61339047D01*
X117773809Y-61291428D01*
X117630952Y-61291428D01*
X117440476Y-61339047D01*
X117345238Y-61386666D01*
X117250000Y-61481904D01*
X117202380Y-61624761D01*
X117202380Y-61720000D01*
X117250000Y-61862857D01*
X117297619Y-61910476D01*
X118202380Y-62339047D02*
X117202380Y-62339047D01*
X118202380Y-62910476D02*
X117630952Y-62481904D01*
X117202380Y-62910476D02*
X117773809Y-62339047D01*
G04 #@! TO.C,JP11*
X127952380Y-57303333D02*
X126952380Y-57303333D01*
X127666666Y-57636666D01*
X126952380Y-57970000D01*
X127952380Y-57970000D01*
X127904761Y-58398571D02*
X127952380Y-58541428D01*
X127952380Y-58779523D01*
X127904761Y-58874761D01*
X127857142Y-58922380D01*
X127761904Y-58970000D01*
X127666666Y-58970000D01*
X127571428Y-58922380D01*
X127523809Y-58874761D01*
X127476190Y-58779523D01*
X127428571Y-58589047D01*
X127380952Y-58493809D01*
X127333333Y-58446190D01*
X127238095Y-58398571D01*
X127142857Y-58398571D01*
X127047619Y-58446190D01*
X127000000Y-58493809D01*
X126952380Y-58589047D01*
X126952380Y-58827142D01*
X127000000Y-58970000D01*
X127428571Y-59398571D02*
X127428571Y-59731904D01*
X127952380Y-59874761D02*
X127952380Y-59398571D01*
X126952380Y-59398571D01*
X126952380Y-59874761D01*
X127952380Y-60779523D02*
X127952380Y-60303333D01*
X126952380Y-60303333D01*
G04 #@! TO.C,C33*
X135142857Y-83827142D02*
X135190476Y-83874761D01*
X135333333Y-83922380D01*
X135428571Y-83922380D01*
X135571428Y-83874761D01*
X135666666Y-83779523D01*
X135714285Y-83684285D01*
X135761904Y-83493809D01*
X135761904Y-83350952D01*
X135714285Y-83160476D01*
X135666666Y-83065238D01*
X135571428Y-82970000D01*
X135428571Y-82922380D01*
X135333333Y-82922380D01*
X135190476Y-82970000D01*
X135142857Y-83017619D01*
X134809523Y-82922380D02*
X134190476Y-82922380D01*
X134523809Y-83303333D01*
X134380952Y-83303333D01*
X134285714Y-83350952D01*
X134238095Y-83398571D01*
X134190476Y-83493809D01*
X134190476Y-83731904D01*
X134238095Y-83827142D01*
X134285714Y-83874761D01*
X134380952Y-83922380D01*
X134666666Y-83922380D01*
X134761904Y-83874761D01*
X134809523Y-83827142D01*
X133857142Y-82922380D02*
X133238095Y-82922380D01*
X133571428Y-83303333D01*
X133428571Y-83303333D01*
X133333333Y-83350952D01*
X133285714Y-83398571D01*
X133238095Y-83493809D01*
X133238095Y-83731904D01*
X133285714Y-83827142D01*
X133333333Y-83874761D01*
X133428571Y-83922380D01*
X133714285Y-83922380D01*
X133809523Y-83874761D01*
X133857142Y-83827142D01*
G04 #@! TO.C,C20*
X122992857Y-83427142D02*
X123040476Y-83474761D01*
X123183333Y-83522380D01*
X123278571Y-83522380D01*
X123421428Y-83474761D01*
X123516666Y-83379523D01*
X123564285Y-83284285D01*
X123611904Y-83093809D01*
X123611904Y-82950952D01*
X123564285Y-82760476D01*
X123516666Y-82665238D01*
X123421428Y-82570000D01*
X123278571Y-82522380D01*
X123183333Y-82522380D01*
X123040476Y-82570000D01*
X122992857Y-82617619D01*
X122611904Y-82617619D02*
X122564285Y-82570000D01*
X122469047Y-82522380D01*
X122230952Y-82522380D01*
X122135714Y-82570000D01*
X122088095Y-82617619D01*
X122040476Y-82712857D01*
X122040476Y-82808095D01*
X122088095Y-82950952D01*
X122659523Y-83522380D01*
X122040476Y-83522380D01*
X121421428Y-82522380D02*
X121326190Y-82522380D01*
X121230952Y-82570000D01*
X121183333Y-82617619D01*
X121135714Y-82712857D01*
X121088095Y-82903333D01*
X121088095Y-83141428D01*
X121135714Y-83331904D01*
X121183333Y-83427142D01*
X121230952Y-83474761D01*
X121326190Y-83522380D01*
X121421428Y-83522380D01*
X121516666Y-83474761D01*
X121564285Y-83427142D01*
X121611904Y-83331904D01*
X121659523Y-83141428D01*
X121659523Y-82903333D01*
X121611904Y-82712857D01*
X121564285Y-82617619D01*
X121516666Y-82570000D01*
X121421428Y-82522380D01*
G04 #@! TO.C,C19*
X138392857Y-86577142D02*
X138440476Y-86624761D01*
X138583333Y-86672380D01*
X138678571Y-86672380D01*
X138821428Y-86624761D01*
X138916666Y-86529523D01*
X138964285Y-86434285D01*
X139011904Y-86243809D01*
X139011904Y-86100952D01*
X138964285Y-85910476D01*
X138916666Y-85815238D01*
X138821428Y-85720000D01*
X138678571Y-85672380D01*
X138583333Y-85672380D01*
X138440476Y-85720000D01*
X138392857Y-85767619D01*
X137440476Y-86672380D02*
X138011904Y-86672380D01*
X137726190Y-86672380D02*
X137726190Y-85672380D01*
X137821428Y-85815238D01*
X137916666Y-85910476D01*
X138011904Y-85958095D01*
X136964285Y-86672380D02*
X136773809Y-86672380D01*
X136678571Y-86624761D01*
X136630952Y-86577142D01*
X136535714Y-86434285D01*
X136488095Y-86243809D01*
X136488095Y-85862857D01*
X136535714Y-85767619D01*
X136583333Y-85720000D01*
X136678571Y-85672380D01*
X136869047Y-85672380D01*
X136964285Y-85720000D01*
X137011904Y-85767619D01*
X137059523Y-85862857D01*
X137059523Y-86100952D01*
X137011904Y-86196190D01*
X136964285Y-86243809D01*
X136869047Y-86291428D01*
X136678571Y-86291428D01*
X136583333Y-86243809D01*
X136535714Y-86196190D01*
X136488095Y-86100952D01*
G04 #@! TO.C,C24*
X123385642Y-98647142D02*
X123433261Y-98599523D01*
X123480880Y-98456666D01*
X123480880Y-98361428D01*
X123433261Y-98218571D01*
X123338023Y-98123333D01*
X123242785Y-98075714D01*
X123052309Y-98028095D01*
X122909452Y-98028095D01*
X122718976Y-98075714D01*
X122623738Y-98123333D01*
X122528500Y-98218571D01*
X122480880Y-98361428D01*
X122480880Y-98456666D01*
X122528500Y-98599523D01*
X122576119Y-98647142D01*
X122576119Y-99028095D02*
X122528500Y-99075714D01*
X122480880Y-99170952D01*
X122480880Y-99409047D01*
X122528500Y-99504285D01*
X122576119Y-99551904D01*
X122671357Y-99599523D01*
X122766595Y-99599523D01*
X122909452Y-99551904D01*
X123480880Y-98980476D01*
X123480880Y-99599523D01*
X122814214Y-100456666D02*
X123480880Y-100456666D01*
X122433261Y-100218571D02*
X123147547Y-99980476D01*
X123147547Y-100599523D01*
G04 #@! TO.C,C42*
X116607142Y-67077142D02*
X116654761Y-67029523D01*
X116702380Y-66886666D01*
X116702380Y-66791428D01*
X116654761Y-66648571D01*
X116559523Y-66553333D01*
X116464285Y-66505714D01*
X116273809Y-66458095D01*
X116130952Y-66458095D01*
X115940476Y-66505714D01*
X115845238Y-66553333D01*
X115750000Y-66648571D01*
X115702380Y-66791428D01*
X115702380Y-66886666D01*
X115750000Y-67029523D01*
X115797619Y-67077142D01*
X116035714Y-67934285D02*
X116702380Y-67934285D01*
X115654761Y-67696190D02*
X116369047Y-67458095D01*
X116369047Y-68077142D01*
X115797619Y-68410476D02*
X115750000Y-68458095D01*
X115702380Y-68553333D01*
X115702380Y-68791428D01*
X115750000Y-68886666D01*
X115797619Y-68934285D01*
X115892857Y-68981904D01*
X115988095Y-68981904D01*
X116130952Y-68934285D01*
X116702380Y-68362857D01*
X116702380Y-68981904D01*
G04 #@! TO.C,C43*
X118027142Y-138857142D02*
X118074761Y-138809523D01*
X118122380Y-138666666D01*
X118122380Y-138571428D01*
X118074761Y-138428571D01*
X117979523Y-138333333D01*
X117884285Y-138285714D01*
X117693809Y-138238095D01*
X117550952Y-138238095D01*
X117360476Y-138285714D01*
X117265238Y-138333333D01*
X117170000Y-138428571D01*
X117122380Y-138571428D01*
X117122380Y-138666666D01*
X117170000Y-138809523D01*
X117217619Y-138857142D01*
X117455714Y-139714285D02*
X118122380Y-139714285D01*
X117074761Y-139476190D02*
X117789047Y-139238095D01*
X117789047Y-139857142D01*
X117122380Y-140142857D02*
X117122380Y-140761904D01*
X117503333Y-140428571D01*
X117503333Y-140571428D01*
X117550952Y-140666666D01*
X117598571Y-140714285D01*
X117693809Y-140761904D01*
X117931904Y-140761904D01*
X118027142Y-140714285D01*
X118074761Y-140666666D01*
X118122380Y-140571428D01*
X118122380Y-140285714D01*
X118074761Y-140190476D01*
X118027142Y-140142857D01*
G04 #@! TO.C,C45*
X105287142Y-86597142D02*
X105334761Y-86549523D01*
X105382380Y-86406666D01*
X105382380Y-86311428D01*
X105334761Y-86168571D01*
X105239523Y-86073333D01*
X105144285Y-86025714D01*
X104953809Y-85978095D01*
X104810952Y-85978095D01*
X104620476Y-86025714D01*
X104525238Y-86073333D01*
X104430000Y-86168571D01*
X104382380Y-86311428D01*
X104382380Y-86406666D01*
X104430000Y-86549523D01*
X104477619Y-86597142D01*
X104715714Y-87454285D02*
X105382380Y-87454285D01*
X104334761Y-87216190D02*
X105049047Y-86978095D01*
X105049047Y-87597142D01*
X104382380Y-88454285D02*
X104382380Y-87978095D01*
X104858571Y-87930476D01*
X104810952Y-87978095D01*
X104763333Y-88073333D01*
X104763333Y-88311428D01*
X104810952Y-88406666D01*
X104858571Y-88454285D01*
X104953809Y-88501904D01*
X105191904Y-88501904D01*
X105287142Y-88454285D01*
X105334761Y-88406666D01*
X105382380Y-88311428D01*
X105382380Y-88073333D01*
X105334761Y-87978095D01*
X105287142Y-87930476D01*
G04 #@! TO.C,C17*
X123767857Y-85927142D02*
X123815476Y-85974761D01*
X123958333Y-86022380D01*
X124053571Y-86022380D01*
X124196428Y-85974761D01*
X124291666Y-85879523D01*
X124339285Y-85784285D01*
X124386904Y-85593809D01*
X124386904Y-85450952D01*
X124339285Y-85260476D01*
X124291666Y-85165238D01*
X124196428Y-85070000D01*
X124053571Y-85022380D01*
X123958333Y-85022380D01*
X123815476Y-85070000D01*
X123767857Y-85117619D01*
X122815476Y-86022380D02*
X123386904Y-86022380D01*
X123101190Y-86022380D02*
X123101190Y-85022380D01*
X123196428Y-85165238D01*
X123291666Y-85260476D01*
X123386904Y-85308095D01*
X122482142Y-85022380D02*
X121815476Y-85022380D01*
X122244047Y-86022380D01*
G04 #@! TO.C,C8*
X106666666Y-72957142D02*
X106714285Y-73004761D01*
X106857142Y-73052380D01*
X106952380Y-73052380D01*
X107095238Y-73004761D01*
X107190476Y-72909523D01*
X107238095Y-72814285D01*
X107285714Y-72623809D01*
X107285714Y-72480952D01*
X107238095Y-72290476D01*
X107190476Y-72195238D01*
X107095238Y-72100000D01*
X106952380Y-72052380D01*
X106857142Y-72052380D01*
X106714285Y-72100000D01*
X106666666Y-72147619D01*
X106095238Y-72480952D02*
X106190476Y-72433333D01*
X106238095Y-72385714D01*
X106285714Y-72290476D01*
X106285714Y-72242857D01*
X106238095Y-72147619D01*
X106190476Y-72100000D01*
X106095238Y-72052380D01*
X105904761Y-72052380D01*
X105809523Y-72100000D01*
X105761904Y-72147619D01*
X105714285Y-72242857D01*
X105714285Y-72290476D01*
X105761904Y-72385714D01*
X105809523Y-72433333D01*
X105904761Y-72480952D01*
X106095238Y-72480952D01*
X106190476Y-72528571D01*
X106238095Y-72576190D01*
X106285714Y-72671428D01*
X106285714Y-72861904D01*
X106238095Y-72957142D01*
X106190476Y-73004761D01*
X106095238Y-73052380D01*
X105904761Y-73052380D01*
X105809523Y-73004761D01*
X105761904Y-72957142D01*
X105714285Y-72861904D01*
X105714285Y-72671428D01*
X105761904Y-72576190D01*
X105809523Y-72528571D01*
X105904761Y-72480952D01*
G04 #@! TO.C,C15*
X96927142Y-105272142D02*
X96974761Y-105224523D01*
X97022380Y-105081666D01*
X97022380Y-104986428D01*
X96974761Y-104843571D01*
X96879523Y-104748333D01*
X96784285Y-104700714D01*
X96593809Y-104653095D01*
X96450952Y-104653095D01*
X96260476Y-104700714D01*
X96165238Y-104748333D01*
X96070000Y-104843571D01*
X96022380Y-104986428D01*
X96022380Y-105081666D01*
X96070000Y-105224523D01*
X96117619Y-105272142D01*
X97022380Y-106224523D02*
X97022380Y-105653095D01*
X97022380Y-105938809D02*
X96022380Y-105938809D01*
X96165238Y-105843571D01*
X96260476Y-105748333D01*
X96308095Y-105653095D01*
X96022380Y-107129285D02*
X96022380Y-106653095D01*
X96498571Y-106605476D01*
X96450952Y-106653095D01*
X96403333Y-106748333D01*
X96403333Y-106986428D01*
X96450952Y-107081666D01*
X96498571Y-107129285D01*
X96593809Y-107176904D01*
X96831904Y-107176904D01*
X96927142Y-107129285D01*
X96974761Y-107081666D01*
X97022380Y-106986428D01*
X97022380Y-106748333D01*
X96974761Y-106653095D01*
X96927142Y-106605476D01*
G04 #@! TO.C,C1*
X155466666Y-72987142D02*
X155514285Y-73034761D01*
X155657142Y-73082380D01*
X155752380Y-73082380D01*
X155895238Y-73034761D01*
X155990476Y-72939523D01*
X156038095Y-72844285D01*
X156085714Y-72653809D01*
X156085714Y-72510952D01*
X156038095Y-72320476D01*
X155990476Y-72225238D01*
X155895238Y-72130000D01*
X155752380Y-72082380D01*
X155657142Y-72082380D01*
X155514285Y-72130000D01*
X155466666Y-72177619D01*
X154514285Y-73082380D02*
X155085714Y-73082380D01*
X154800000Y-73082380D02*
X154800000Y-72082380D01*
X154895238Y-72225238D01*
X154990476Y-72320476D01*
X155085714Y-72368095D01*
G04 #@! TO.C,C46*
X96327142Y-84372142D02*
X96374761Y-84324523D01*
X96422380Y-84181666D01*
X96422380Y-84086428D01*
X96374761Y-83943571D01*
X96279523Y-83848333D01*
X96184285Y-83800714D01*
X95993809Y-83753095D01*
X95850952Y-83753095D01*
X95660476Y-83800714D01*
X95565238Y-83848333D01*
X95470000Y-83943571D01*
X95422380Y-84086428D01*
X95422380Y-84181666D01*
X95470000Y-84324523D01*
X95517619Y-84372142D01*
X95755714Y-85229285D02*
X96422380Y-85229285D01*
X95374761Y-84991190D02*
X96089047Y-84753095D01*
X96089047Y-85372142D01*
X95422380Y-86181666D02*
X95422380Y-85991190D01*
X95470000Y-85895952D01*
X95517619Y-85848333D01*
X95660476Y-85753095D01*
X95850952Y-85705476D01*
X96231904Y-85705476D01*
X96327142Y-85753095D01*
X96374761Y-85800714D01*
X96422380Y-85895952D01*
X96422380Y-86086428D01*
X96374761Y-86181666D01*
X96327142Y-86229285D01*
X96231904Y-86276904D01*
X95993809Y-86276904D01*
X95898571Y-86229285D01*
X95850952Y-86181666D01*
X95803333Y-86086428D01*
X95803333Y-85895952D01*
X95850952Y-85800714D01*
X95898571Y-85753095D01*
X95993809Y-85705476D01*
G04 #@! TO.C,C48*
X154087142Y-85452142D02*
X154134761Y-85404523D01*
X154182380Y-85261666D01*
X154182380Y-85166428D01*
X154134761Y-85023571D01*
X154039523Y-84928333D01*
X153944285Y-84880714D01*
X153753809Y-84833095D01*
X153610952Y-84833095D01*
X153420476Y-84880714D01*
X153325238Y-84928333D01*
X153230000Y-85023571D01*
X153182380Y-85166428D01*
X153182380Y-85261666D01*
X153230000Y-85404523D01*
X153277619Y-85452142D01*
X153515714Y-86309285D02*
X154182380Y-86309285D01*
X153134761Y-86071190D02*
X153849047Y-85833095D01*
X153849047Y-86452142D01*
X153610952Y-86975952D02*
X153563333Y-86880714D01*
X153515714Y-86833095D01*
X153420476Y-86785476D01*
X153372857Y-86785476D01*
X153277619Y-86833095D01*
X153230000Y-86880714D01*
X153182380Y-86975952D01*
X153182380Y-87166428D01*
X153230000Y-87261666D01*
X153277619Y-87309285D01*
X153372857Y-87356904D01*
X153420476Y-87356904D01*
X153515714Y-87309285D01*
X153563333Y-87261666D01*
X153610952Y-87166428D01*
X153610952Y-86975952D01*
X153658571Y-86880714D01*
X153706190Y-86833095D01*
X153801428Y-86785476D01*
X153991904Y-86785476D01*
X154087142Y-86833095D01*
X154134761Y-86880714D01*
X154182380Y-86975952D01*
X154182380Y-87166428D01*
X154134761Y-87261666D01*
X154087142Y-87309285D01*
X153991904Y-87356904D01*
X153801428Y-87356904D01*
X153706190Y-87309285D01*
X153658571Y-87261666D01*
X153610952Y-87166428D01*
G04 #@! TO.C,C49*
X154187142Y-104477142D02*
X154234761Y-104429523D01*
X154282380Y-104286666D01*
X154282380Y-104191428D01*
X154234761Y-104048571D01*
X154139523Y-103953333D01*
X154044285Y-103905714D01*
X153853809Y-103858095D01*
X153710952Y-103858095D01*
X153520476Y-103905714D01*
X153425238Y-103953333D01*
X153330000Y-104048571D01*
X153282380Y-104191428D01*
X153282380Y-104286666D01*
X153330000Y-104429523D01*
X153377619Y-104477142D01*
X153615714Y-105334285D02*
X154282380Y-105334285D01*
X153234761Y-105096190D02*
X153949047Y-104858095D01*
X153949047Y-105477142D01*
X154282380Y-105905714D02*
X154282380Y-106096190D01*
X154234761Y-106191428D01*
X154187142Y-106239047D01*
X154044285Y-106334285D01*
X153853809Y-106381904D01*
X153472857Y-106381904D01*
X153377619Y-106334285D01*
X153330000Y-106286666D01*
X153282380Y-106191428D01*
X153282380Y-106000952D01*
X153330000Y-105905714D01*
X153377619Y-105858095D01*
X153472857Y-105810476D01*
X153710952Y-105810476D01*
X153806190Y-105858095D01*
X153853809Y-105905714D01*
X153901428Y-106000952D01*
X153901428Y-106191428D01*
X153853809Y-106286666D01*
X153806190Y-106334285D01*
X153710952Y-106381904D01*
G04 #@! TO.C,C50*
X96327142Y-65372142D02*
X96374761Y-65324523D01*
X96422380Y-65181666D01*
X96422380Y-65086428D01*
X96374761Y-64943571D01*
X96279523Y-64848333D01*
X96184285Y-64800714D01*
X95993809Y-64753095D01*
X95850952Y-64753095D01*
X95660476Y-64800714D01*
X95565238Y-64848333D01*
X95470000Y-64943571D01*
X95422380Y-65086428D01*
X95422380Y-65181666D01*
X95470000Y-65324523D01*
X95517619Y-65372142D01*
X95422380Y-66276904D02*
X95422380Y-65800714D01*
X95898571Y-65753095D01*
X95850952Y-65800714D01*
X95803333Y-65895952D01*
X95803333Y-66134047D01*
X95850952Y-66229285D01*
X95898571Y-66276904D01*
X95993809Y-66324523D01*
X96231904Y-66324523D01*
X96327142Y-66276904D01*
X96374761Y-66229285D01*
X96422380Y-66134047D01*
X96422380Y-65895952D01*
X96374761Y-65800714D01*
X96327142Y-65753095D01*
X95422380Y-66943571D02*
X95422380Y-67038809D01*
X95470000Y-67134047D01*
X95517619Y-67181666D01*
X95612857Y-67229285D01*
X95803333Y-67276904D01*
X96041428Y-67276904D01*
X96231904Y-67229285D01*
X96327142Y-67181666D01*
X96374761Y-67134047D01*
X96422380Y-67038809D01*
X96422380Y-66943571D01*
X96374761Y-66848333D01*
X96327142Y-66800714D01*
X96231904Y-66753095D01*
X96041428Y-66705476D01*
X95803333Y-66705476D01*
X95612857Y-66753095D01*
X95517619Y-66800714D01*
X95470000Y-66848333D01*
X95422380Y-66943571D01*
G04 #@! TO.C,C44*
X112487142Y-86357142D02*
X112534761Y-86309523D01*
X112582380Y-86166666D01*
X112582380Y-86071428D01*
X112534761Y-85928571D01*
X112439523Y-85833333D01*
X112344285Y-85785714D01*
X112153809Y-85738095D01*
X112010952Y-85738095D01*
X111820476Y-85785714D01*
X111725238Y-85833333D01*
X111630000Y-85928571D01*
X111582380Y-86071428D01*
X111582380Y-86166666D01*
X111630000Y-86309523D01*
X111677619Y-86357142D01*
X111915714Y-87214285D02*
X112582380Y-87214285D01*
X111534761Y-86976190D02*
X112249047Y-86738095D01*
X112249047Y-87357142D01*
X111915714Y-88166666D02*
X112582380Y-88166666D01*
X111534761Y-87928571D02*
X112249047Y-87690476D01*
X112249047Y-88309523D01*
G04 #@! TO.C,C51*
X110987142Y-67922142D02*
X111034761Y-67874523D01*
X111082380Y-67731666D01*
X111082380Y-67636428D01*
X111034761Y-67493571D01*
X110939523Y-67398333D01*
X110844285Y-67350714D01*
X110653809Y-67303095D01*
X110510952Y-67303095D01*
X110320476Y-67350714D01*
X110225238Y-67398333D01*
X110130000Y-67493571D01*
X110082380Y-67636428D01*
X110082380Y-67731666D01*
X110130000Y-67874523D01*
X110177619Y-67922142D01*
X110082380Y-68826904D02*
X110082380Y-68350714D01*
X110558571Y-68303095D01*
X110510952Y-68350714D01*
X110463333Y-68445952D01*
X110463333Y-68684047D01*
X110510952Y-68779285D01*
X110558571Y-68826904D01*
X110653809Y-68874523D01*
X110891904Y-68874523D01*
X110987142Y-68826904D01*
X111034761Y-68779285D01*
X111082380Y-68684047D01*
X111082380Y-68445952D01*
X111034761Y-68350714D01*
X110987142Y-68303095D01*
X111082380Y-69826904D02*
X111082380Y-69255476D01*
X111082380Y-69541190D02*
X110082380Y-69541190D01*
X110225238Y-69445952D01*
X110320476Y-69350714D01*
X110368095Y-69255476D01*
G04 #@! TO.C,C52*
X105187142Y-67672142D02*
X105234761Y-67624523D01*
X105282380Y-67481666D01*
X105282380Y-67386428D01*
X105234761Y-67243571D01*
X105139523Y-67148333D01*
X105044285Y-67100714D01*
X104853809Y-67053095D01*
X104710952Y-67053095D01*
X104520476Y-67100714D01*
X104425238Y-67148333D01*
X104330000Y-67243571D01*
X104282380Y-67386428D01*
X104282380Y-67481666D01*
X104330000Y-67624523D01*
X104377619Y-67672142D01*
X104282380Y-68576904D02*
X104282380Y-68100714D01*
X104758571Y-68053095D01*
X104710952Y-68100714D01*
X104663333Y-68195952D01*
X104663333Y-68434047D01*
X104710952Y-68529285D01*
X104758571Y-68576904D01*
X104853809Y-68624523D01*
X105091904Y-68624523D01*
X105187142Y-68576904D01*
X105234761Y-68529285D01*
X105282380Y-68434047D01*
X105282380Y-68195952D01*
X105234761Y-68100714D01*
X105187142Y-68053095D01*
X104377619Y-69005476D02*
X104330000Y-69053095D01*
X104282380Y-69148333D01*
X104282380Y-69386428D01*
X104330000Y-69481666D01*
X104377619Y-69529285D01*
X104472857Y-69576904D01*
X104568095Y-69576904D01*
X104710952Y-69529285D01*
X105282380Y-68957857D01*
X105282380Y-69576904D01*
G04 #@! TO.C,C53*
X95342857Y-119727142D02*
X95390476Y-119774761D01*
X95533333Y-119822380D01*
X95628571Y-119822380D01*
X95771428Y-119774761D01*
X95866666Y-119679523D01*
X95914285Y-119584285D01*
X95961904Y-119393809D01*
X95961904Y-119250952D01*
X95914285Y-119060476D01*
X95866666Y-118965238D01*
X95771428Y-118870000D01*
X95628571Y-118822380D01*
X95533333Y-118822380D01*
X95390476Y-118870000D01*
X95342857Y-118917619D01*
X94438095Y-118822380D02*
X94914285Y-118822380D01*
X94961904Y-119298571D01*
X94914285Y-119250952D01*
X94819047Y-119203333D01*
X94580952Y-119203333D01*
X94485714Y-119250952D01*
X94438095Y-119298571D01*
X94390476Y-119393809D01*
X94390476Y-119631904D01*
X94438095Y-119727142D01*
X94485714Y-119774761D01*
X94580952Y-119822380D01*
X94819047Y-119822380D01*
X94914285Y-119774761D01*
X94961904Y-119727142D01*
X94057142Y-118822380D02*
X93438095Y-118822380D01*
X93771428Y-119203333D01*
X93628571Y-119203333D01*
X93533333Y-119250952D01*
X93485714Y-119298571D01*
X93438095Y-119393809D01*
X93438095Y-119631904D01*
X93485714Y-119727142D01*
X93533333Y-119774761D01*
X93628571Y-119822380D01*
X93914285Y-119822380D01*
X94009523Y-119774761D01*
X94057142Y-119727142D01*
G04 #@! TO.C,C47*
X156342857Y-120107142D02*
X156390476Y-120154761D01*
X156533333Y-120202380D01*
X156628571Y-120202380D01*
X156771428Y-120154761D01*
X156866666Y-120059523D01*
X156914285Y-119964285D01*
X156961904Y-119773809D01*
X156961904Y-119630952D01*
X156914285Y-119440476D01*
X156866666Y-119345238D01*
X156771428Y-119250000D01*
X156628571Y-119202380D01*
X156533333Y-119202380D01*
X156390476Y-119250000D01*
X156342857Y-119297619D01*
X155485714Y-119535714D02*
X155485714Y-120202380D01*
X155723809Y-119154761D02*
X155961904Y-119869047D01*
X155342857Y-119869047D01*
X155057142Y-119202380D02*
X154390476Y-119202380D01*
X154819047Y-120202380D01*
G04 #@! TO.C,J11*
X146809523Y-74302380D02*
X146809523Y-75016666D01*
X146857142Y-75159523D01*
X146952380Y-75254761D01*
X147095238Y-75302380D01*
X147190476Y-75302380D01*
X145809523Y-75302380D02*
X146380952Y-75302380D01*
X146095238Y-75302380D02*
X146095238Y-74302380D01*
X146190476Y-74445238D01*
X146285714Y-74540476D01*
X146380952Y-74588095D01*
X144857142Y-75302380D02*
X145428571Y-75302380D01*
X145142857Y-75302380D02*
X145142857Y-74302380D01*
X145238095Y-74445238D01*
X145333333Y-74540476D01*
X145428571Y-74588095D01*
G04 #@! TO.C,J3*
X149493333Y-122562380D02*
X149493333Y-123276666D01*
X149540952Y-123419523D01*
X149636190Y-123514761D01*
X149779047Y-123562380D01*
X149874285Y-123562380D01*
X149112380Y-122562380D02*
X148493333Y-122562380D01*
X148826666Y-122943333D01*
X148683809Y-122943333D01*
X148588571Y-122990952D01*
X148540952Y-123038571D01*
X148493333Y-123133809D01*
X148493333Y-123371904D01*
X148540952Y-123467142D01*
X148588571Y-123514761D01*
X148683809Y-123562380D01*
X148969523Y-123562380D01*
X149064761Y-123514761D01*
X149112380Y-123467142D01*
G04 #@! TO.C,J12*
X130409523Y-74252380D02*
X130409523Y-74966666D01*
X130457142Y-75109523D01*
X130552380Y-75204761D01*
X130695238Y-75252380D01*
X130790476Y-75252380D01*
X129409523Y-75252380D02*
X129980952Y-75252380D01*
X129695238Y-75252380D02*
X129695238Y-74252380D01*
X129790476Y-74395238D01*
X129885714Y-74490476D01*
X129980952Y-74538095D01*
X129028571Y-74347619D02*
X128980952Y-74300000D01*
X128885714Y-74252380D01*
X128647619Y-74252380D01*
X128552380Y-74300000D01*
X128504761Y-74347619D01*
X128457142Y-74442857D01*
X128457142Y-74538095D01*
X128504761Y-74680952D01*
X129076190Y-75252380D01*
X128457142Y-75252380D01*
G04 #@! TO.C,J15*
X129809523Y-107172380D02*
X129809523Y-107886666D01*
X129857142Y-108029523D01*
X129952380Y-108124761D01*
X130095238Y-108172380D01*
X130190476Y-108172380D01*
X128809523Y-108172380D02*
X129380952Y-108172380D01*
X129095238Y-108172380D02*
X129095238Y-107172380D01*
X129190476Y-107315238D01*
X129285714Y-107410476D01*
X129380952Y-107458095D01*
X127904761Y-107172380D02*
X128380952Y-107172380D01*
X128428571Y-107648571D01*
X128380952Y-107600952D01*
X128285714Y-107553333D01*
X128047619Y-107553333D01*
X127952380Y-107600952D01*
X127904761Y-107648571D01*
X127857142Y-107743809D01*
X127857142Y-107981904D01*
X127904761Y-108077142D01*
X127952380Y-108124761D01*
X128047619Y-108172380D01*
X128285714Y-108172380D01*
X128380952Y-108124761D01*
X128428571Y-108077142D01*
G04 #@! TO.C,J6*
X141222380Y-67936666D02*
X141936666Y-67936666D01*
X142079523Y-67889047D01*
X142174761Y-67793809D01*
X142222380Y-67650952D01*
X142222380Y-67555714D01*
X141222380Y-68841428D02*
X141222380Y-68650952D01*
X141270000Y-68555714D01*
X141317619Y-68508095D01*
X141460476Y-68412857D01*
X141650952Y-68365238D01*
X142031904Y-68365238D01*
X142127142Y-68412857D01*
X142174761Y-68460476D01*
X142222380Y-68555714D01*
X142222380Y-68746190D01*
X142174761Y-68841428D01*
X142127142Y-68889047D01*
X142031904Y-68936666D01*
X141793809Y-68936666D01*
X141698571Y-68889047D01*
X141650952Y-68841428D01*
X141603333Y-68746190D01*
X141603333Y-68555714D01*
X141650952Y-68460476D01*
X141698571Y-68412857D01*
X141793809Y-68365238D01*
G04 #@! TO.C,R40*
X122132380Y-96647142D02*
X121656190Y-96313809D01*
X122132380Y-96075714D02*
X121132380Y-96075714D01*
X121132380Y-96456666D01*
X121180000Y-96551904D01*
X121227619Y-96599523D01*
X121322857Y-96647142D01*
X121465714Y-96647142D01*
X121560952Y-96599523D01*
X121608571Y-96551904D01*
X121656190Y-96456666D01*
X121656190Y-96075714D01*
X121465714Y-97504285D02*
X122132380Y-97504285D01*
X121084761Y-97266190D02*
X121799047Y-97028095D01*
X121799047Y-97647142D01*
X121132380Y-98218571D02*
X121132380Y-98313809D01*
X121180000Y-98409047D01*
X121227619Y-98456666D01*
X121322857Y-98504285D01*
X121513333Y-98551904D01*
X121751428Y-98551904D01*
X121941904Y-98504285D01*
X122037142Y-98456666D01*
X122084761Y-98409047D01*
X122132380Y-98313809D01*
X122132380Y-98218571D01*
X122084761Y-98123333D01*
X122037142Y-98075714D01*
X121941904Y-98028095D01*
X121751428Y-97980476D01*
X121513333Y-97980476D01*
X121322857Y-98028095D01*
X121227619Y-98075714D01*
X121180000Y-98123333D01*
X121132380Y-98218571D01*
G04 #@! TO.C,R22*
X116132380Y-137897142D02*
X115656190Y-137563809D01*
X116132380Y-137325714D02*
X115132380Y-137325714D01*
X115132380Y-137706666D01*
X115180000Y-137801904D01*
X115227619Y-137849523D01*
X115322857Y-137897142D01*
X115465714Y-137897142D01*
X115560952Y-137849523D01*
X115608571Y-137801904D01*
X115656190Y-137706666D01*
X115656190Y-137325714D01*
X115227619Y-138278095D02*
X115180000Y-138325714D01*
X115132380Y-138420952D01*
X115132380Y-138659047D01*
X115180000Y-138754285D01*
X115227619Y-138801904D01*
X115322857Y-138849523D01*
X115418095Y-138849523D01*
X115560952Y-138801904D01*
X116132380Y-138230476D01*
X116132380Y-138849523D01*
X115227619Y-139230476D02*
X115180000Y-139278095D01*
X115132380Y-139373333D01*
X115132380Y-139611428D01*
X115180000Y-139706666D01*
X115227619Y-139754285D01*
X115322857Y-139801904D01*
X115418095Y-139801904D01*
X115560952Y-139754285D01*
X116132380Y-139182857D01*
X116132380Y-139801904D01*
G04 #@! TO.C,R10*
X112022380Y-131732142D02*
X111546190Y-131398809D01*
X112022380Y-131160714D02*
X111022380Y-131160714D01*
X111022380Y-131541666D01*
X111070000Y-131636904D01*
X111117619Y-131684523D01*
X111212857Y-131732142D01*
X111355714Y-131732142D01*
X111450952Y-131684523D01*
X111498571Y-131636904D01*
X111546190Y-131541666D01*
X111546190Y-131160714D01*
X112022380Y-132684523D02*
X112022380Y-132113095D01*
X112022380Y-132398809D02*
X111022380Y-132398809D01*
X111165238Y-132303571D01*
X111260476Y-132208333D01*
X111308095Y-132113095D01*
X111022380Y-133303571D02*
X111022380Y-133398809D01*
X111070000Y-133494047D01*
X111117619Y-133541666D01*
X111212857Y-133589285D01*
X111403333Y-133636904D01*
X111641428Y-133636904D01*
X111831904Y-133589285D01*
X111927142Y-133541666D01*
X111974761Y-133494047D01*
X112022380Y-133398809D01*
X112022380Y-133303571D01*
X111974761Y-133208333D01*
X111927142Y-133160714D01*
X111831904Y-133113095D01*
X111641428Y-133065476D01*
X111403333Y-133065476D01*
X111212857Y-133113095D01*
X111117619Y-133160714D01*
X111070000Y-133208333D01*
X111022380Y-133303571D01*
G04 #@! TO.C,R11*
X112022380Y-135357142D02*
X111546190Y-135023809D01*
X112022380Y-134785714D02*
X111022380Y-134785714D01*
X111022380Y-135166666D01*
X111070000Y-135261904D01*
X111117619Y-135309523D01*
X111212857Y-135357142D01*
X111355714Y-135357142D01*
X111450952Y-135309523D01*
X111498571Y-135261904D01*
X111546190Y-135166666D01*
X111546190Y-134785714D01*
X112022380Y-136309523D02*
X112022380Y-135738095D01*
X112022380Y-136023809D02*
X111022380Y-136023809D01*
X111165238Y-135928571D01*
X111260476Y-135833333D01*
X111308095Y-135738095D01*
X112022380Y-137261904D02*
X112022380Y-136690476D01*
X112022380Y-136976190D02*
X111022380Y-136976190D01*
X111165238Y-136880952D01*
X111260476Y-136785714D01*
X111308095Y-136690476D01*
G04 #@! TO.C,R9*
X107416666Y-132672380D02*
X107750000Y-132196190D01*
X107988095Y-132672380D02*
X107988095Y-131672380D01*
X107607142Y-131672380D01*
X107511904Y-131720000D01*
X107464285Y-131767619D01*
X107416666Y-131862857D01*
X107416666Y-132005714D01*
X107464285Y-132100952D01*
X107511904Y-132148571D01*
X107607142Y-132196190D01*
X107988095Y-132196190D01*
X106940476Y-132672380D02*
X106750000Y-132672380D01*
X106654761Y-132624761D01*
X106607142Y-132577142D01*
X106511904Y-132434285D01*
X106464285Y-132243809D01*
X106464285Y-131862857D01*
X106511904Y-131767619D01*
X106559523Y-131720000D01*
X106654761Y-131672380D01*
X106845238Y-131672380D01*
X106940476Y-131720000D01*
X106988095Y-131767619D01*
X107035714Y-131862857D01*
X107035714Y-132100952D01*
X106988095Y-132196190D01*
X106940476Y-132243809D01*
X106845238Y-132291428D01*
X106654761Y-132291428D01*
X106559523Y-132243809D01*
X106511904Y-132196190D01*
X106464285Y-132100952D01*
G04 #@! TO.C,R8*
X107416666Y-131422380D02*
X107750000Y-130946190D01*
X107988095Y-131422380D02*
X107988095Y-130422380D01*
X107607142Y-130422380D01*
X107511904Y-130470000D01*
X107464285Y-130517619D01*
X107416666Y-130612857D01*
X107416666Y-130755714D01*
X107464285Y-130850952D01*
X107511904Y-130898571D01*
X107607142Y-130946190D01*
X107988095Y-130946190D01*
X106845238Y-130850952D02*
X106940476Y-130803333D01*
X106988095Y-130755714D01*
X107035714Y-130660476D01*
X107035714Y-130612857D01*
X106988095Y-130517619D01*
X106940476Y-130470000D01*
X106845238Y-130422380D01*
X106654761Y-130422380D01*
X106559523Y-130470000D01*
X106511904Y-130517619D01*
X106464285Y-130612857D01*
X106464285Y-130660476D01*
X106511904Y-130755714D01*
X106559523Y-130803333D01*
X106654761Y-130850952D01*
X106845238Y-130850952D01*
X106940476Y-130898571D01*
X106988095Y-130946190D01*
X107035714Y-131041428D01*
X107035714Y-131231904D01*
X106988095Y-131327142D01*
X106940476Y-131374761D01*
X106845238Y-131422380D01*
X106654761Y-131422380D01*
X106559523Y-131374761D01*
X106511904Y-131327142D01*
X106464285Y-131231904D01*
X106464285Y-131041428D01*
X106511904Y-130946190D01*
X106559523Y-130898571D01*
X106654761Y-130850952D01*
G04 #@! TO.C,R21*
X131892857Y-85122380D02*
X132226190Y-84646190D01*
X132464285Y-85122380D02*
X132464285Y-84122380D01*
X132083333Y-84122380D01*
X131988095Y-84170000D01*
X131940476Y-84217619D01*
X131892857Y-84312857D01*
X131892857Y-84455714D01*
X131940476Y-84550952D01*
X131988095Y-84598571D01*
X132083333Y-84646190D01*
X132464285Y-84646190D01*
X131511904Y-84217619D02*
X131464285Y-84170000D01*
X131369047Y-84122380D01*
X131130952Y-84122380D01*
X131035714Y-84170000D01*
X130988095Y-84217619D01*
X130940476Y-84312857D01*
X130940476Y-84408095D01*
X130988095Y-84550952D01*
X131559523Y-85122380D01*
X130940476Y-85122380D01*
X129988095Y-85122380D02*
X130559523Y-85122380D01*
X130273809Y-85122380D02*
X130273809Y-84122380D01*
X130369047Y-84265238D01*
X130464285Y-84360476D01*
X130559523Y-84408095D01*
G04 #@! TO.C,R41*
X127632380Y-98647142D02*
X127156190Y-98313809D01*
X127632380Y-98075714D02*
X126632380Y-98075714D01*
X126632380Y-98456666D01*
X126680000Y-98551904D01*
X126727619Y-98599523D01*
X126822857Y-98647142D01*
X126965714Y-98647142D01*
X127060952Y-98599523D01*
X127108571Y-98551904D01*
X127156190Y-98456666D01*
X127156190Y-98075714D01*
X126965714Y-99504285D02*
X127632380Y-99504285D01*
X126584761Y-99266190D02*
X127299047Y-99028095D01*
X127299047Y-99647142D01*
X127632380Y-100551904D02*
X127632380Y-99980476D01*
X127632380Y-100266190D02*
X126632380Y-100266190D01*
X126775238Y-100170952D01*
X126870476Y-100075714D01*
X126918095Y-99980476D01*
G04 #@! TD*
M02*
