M48
;DRILL file {KiCad (5.0.2)-1} date 2019-01-08 05:58:29
;FORMAT={-:-/ absolute / inch / decimal}
FMAT,2
INCH,TZ
T1C0.0866
T2C0.1260
T3C0.1280
%
G90
G05
T1
X5.2461Y-2.185
X5.5118Y-2.1535
X5.7776Y-2.185
X3.3563Y-5.6772
X3.622Y-5.7087
X3.8878Y-5.6772
T2
X3.0906Y-2.1063
X3.0906Y-5.7677
X6.752Y-5.7677
X6.752Y-2.1063
T3
X6.6748Y-2.3705
X6.6748Y-2.8705
X6.6748Y-4.6146
X6.6748Y-5.1146
X3.1677Y-2.3657
X3.1677Y-2.8657
X3.1677Y-3.9406
X3.1677Y-4.4406
X6.6748Y-3.1185
X6.6748Y-3.6185
X3.1677Y-3.1138
X3.1677Y-3.6138
X6.6748Y-3.8665
X6.6748Y-4.3665
X3.1677Y-4.6886
X3.1677Y-5.1886
T0
M30
